<svg width="41" height="41" viewBox="0 0 41 41" fill="none" xmlns="http://www.w3.org/2000/svg">
<rect x="0.5" y="0.281494" width="40" height="40" rx="20" fill="#E6E9EF"/>
<path fill-rule="evenodd" clip-rule="evenodd" d="M21.6094 13.2229C20.9376 12.775 20.0624 12.775 19.3906 13.2229L17.8906 14.2229C17.3342 14.5938 17 15.2183 17 15.887V17.5819L18.5574 16.7167C19.7655 16.0455 21.2345 16.0455 22.4426 16.7167L24 17.5819V15.887C24 15.2183 23.6658 14.5938 23.1094 14.2229L21.6094 13.2229ZM26 18.693V15.887C26 14.5495 25.3316 13.3006 24.2188 12.5588L23.6846 13.36L24.2188 12.5588L22.7188 11.5588C21.3752 10.663 19.6248 10.663 18.2812 11.5588L16.7812 12.5588C15.6684 13.3006 15 14.5495 15 15.887V18.693L12.5574 20.05C11.2876 20.7555 10.5 22.094 10.5 23.5466V24.6759C10.5 26.0133 11.1684 27.2622 12.2812 28.0041L13.8514 29.0509C15.1474 29.9148 16.827 29.948 18.156 29.1358L20.5 27.7034L22.844 29.1358C24.173 29.948 25.8526 29.9148 27.1486 29.0509L28.7188 28.0041C29.8316 27.2622 30.5 26.0133 30.5 24.6759V23.5466C30.5 22.094 29.7124 20.7555 28.4426 20.05L26 18.693ZM24 19.8698L21.4713 18.465C20.8672 18.1294 20.1328 18.1294 19.5287 18.465L17 19.8698V22.0989C17 22.7956 17.3626 23.4422 17.9571 23.8055L20.5 25.3595L23.0429 23.8055C23.6374 23.4422 24 22.7956 24 22.0989V19.8698ZM22.4177 26.5314L24.0858 25.512C25.2748 24.7854 26 23.4924 26 22.0989V20.9809L27.4713 21.7983C28.1062 22.151 28.5 22.8203 28.5 23.5466V24.6759C28.5 25.3446 28.1658 25.969 27.6094 26.34L26.0392 27.3868C25.3912 27.8188 24.5514 27.8353 23.8869 27.4292L22.4177 26.5314ZM18.5823 26.5314L16.9142 25.512C15.7252 24.7854 15 23.4924 15 22.0989V20.9809L13.5287 21.7983C12.8938 22.151 12.5 22.8203 12.5 23.5466V24.6759C12.5 25.3446 12.8342 25.969 13.3906 26.34L14.9608 27.3868C15.6088 27.8188 16.4486 27.8353 17.1131 27.4292L18.5823 26.5314Z" fill="#221AFB"/>
</svg>
