<svg width="300" height="107" viewBox="0 0 300 107" fill="none" xmlns="http://www.w3.org/2000/svg">
<path d="M292.085 53.5832L274.762 43.6008V23.7007C274.758 20.9263 274.024 18.2018 272.634 15.7998C271.243 13.3978 269.246 11.4028 266.84 10.0145L253.13 2.10994C250.72 0.727497 247.99 0 245.211 0C242.432 0 239.702 0.727497 237.293 2.10994L223.575 10.0145C221.171 11.4038 219.174 13.3991 217.784 15.8008C216.394 18.2025 215.659 20.9266 215.654 23.7007V43.6008L198.337 53.5832C195.933 54.9725 193.936 56.9677 192.546 59.3695C191.156 61.7712 190.421 64.4953 190.416 67.2694V83.072C190.42 85.8472 191.154 88.5726 192.544 90.9756C193.934 93.3786 195.932 95.3748 198.337 96.7647L212.055 104.663C214.463 106.05 217.193 106.78 219.973 106.78C222.753 106.78 225.484 106.05 227.892 104.663L245.163 94.7127L245.208 94.745L245.26 94.7127L262.531 104.663C264.939 106.05 267.669 106.78 270.449 106.78C273.229 106.78 275.96 106.05 278.367 104.663L292.085 96.7647C294.489 95.3745 296.486 93.378 297.875 90.975C299.264 88.5719 299.997 85.8467 300 83.072V67.2694C299.996 64.4958 299.263 61.7719 297.874 59.3701C296.485 56.9683 294.488 54.9728 292.085 53.5832ZM224.286 23.7007C224.288 22.4384 224.623 21.1988 225.255 20.106C225.888 19.0132 226.797 18.1056 227.892 17.4738L241.602 9.56927C242.7 8.94162 243.943 8.61142 245.208 8.61142C246.473 8.61142 247.716 8.94162 248.813 9.56927L262.531 17.4738C263.625 18.1056 264.534 19.0132 265.167 20.106C265.8 21.1988 266.134 22.4384 266.136 23.7007V38.6903L254.293 31.8505C251.528 30.2617 248.394 29.4256 245.205 29.4256C242.015 29.4256 238.881 30.2617 236.117 31.8505L224.286 38.6903V23.7007ZM223.575 97.2035C222.479 97.8342 221.235 98.1663 219.97 98.1663C218.704 98.1663 217.461 97.8342 216.364 97.2035L202.654 89.2795C201.56 88.6458 200.651 87.7367 200.018 86.6431C199.386 85.5494 199.051 84.3092 199.048 83.0462V67.2694C199.05 66.007 199.385 64.7675 200.017 63.6747C200.65 62.5819 201.559 61.6742 202.654 61.0425L215.654 53.5509V67.2435C215.659 70.4273 216.502 73.5537 218.097 76.31C219.693 79.0664 221.985 81.3559 224.745 82.9494L236.53 89.7441L223.575 97.2035ZM245.208 84.8014L229.055 75.4966C227.605 74.659 226.4 73.4559 225.562 72.0075C224.724 70.5591 224.282 68.9163 224.28 67.2435V48.6275L240.433 39.3227C241.885 38.4887 243.53 38.0498 245.205 38.0498C246.879 38.0498 248.525 38.4887 249.976 39.3227L266.13 48.6275V67.2371C266.126 68.9088 265.683 70.5502 264.845 71.9974C264.007 73.4445 262.804 74.6467 261.355 75.4836L245.208 84.8014ZM291.368 83.072C291.366 84.3346 291.033 85.5745 290.401 86.6683C289.77 87.762 288.862 88.6712 287.769 89.3053L274.051 97.2035C272.955 97.8342 271.711 98.1663 270.446 98.1663C269.18 98.1663 267.937 97.8342 266.84 97.2035L253.918 89.7441L265.703 82.9494C268.461 81.3546 270.752 79.0646 272.346 76.3084C273.941 73.5523 274.783 70.4265 274.788 67.2435V53.5509L287.795 61.0425C288.888 61.6745 289.796 62.5825 290.428 63.6753C291.059 64.7681 291.392 66.0075 291.393 67.2694L291.368 83.072Z" fill="#221AFB"/>
<path d="M47.756 57.2096C47.756 57.6244 47.8791 58.0298 48.1099 58.3747C48.3406 58.7196 48.6686 58.9884 49.0523 59.1471C49.436 59.3058 49.8582 59.3473 50.2656 59.2664C50.6729 59.1855 51.0471 58.9858 51.3408 58.6925C51.6345 58.3992 51.8345 58.0255 51.9155 57.6187C51.9965 57.2119 51.9549 56.7902 51.796 56.407C51.6371 56.0238 51.3679 55.6963 51.0226 55.4659C50.6772 55.2355 50.2712 55.1125 49.8559 55.1125C49.3005 55.1175 48.7693 55.3401 48.3766 55.7323C47.9839 56.1245 47.761 56.655 47.756 57.2096Z" fill="#221AFB"/>
<path d="M90.8918 32.8313H87.2477V52.0152H90.8918V32.8313Z" fill="#221AFB"/>
<path d="M21.6845 52.0087V41.1423H19.9722C17.7883 41.1423 16.5736 42.9362 16.5736 45.014V52.0216H7.04309C6.08435 52.052 5.12975 51.883 4.2399 51.5253C3.35005 51.1676 2.54438 50.629 1.87402 49.9438C0.666914 48.5897 0 46.8399 0 45.0269C0 43.2139 0.666914 41.4641 1.87402 40.1099L4.52318 42.3103C3.92979 43.0849 3.6197 44.039 3.64443 45.014C3.61794 45.9971 3.9279 46.96 4.52318 47.7435C4.82536 48.1177 5.20996 48.4172 5.64705 48.6187C6.08413 48.8201 6.56188 48.9181 7.04309 48.905H12.9229V45.0333C12.8908 44.1032 13.0517 43.1765 13.3955 42.3114C13.7393 41.4463 14.2585 40.6616 14.9205 40.0065C15.5825 39.3514 16.373 38.8402 17.2424 38.5049C18.1117 38.1695 19.0412 38.0174 19.9722 38.058H25.3416V48.9243H38.051C37.8637 48.4093 37.7675 47.8656 37.7667 47.3176V45.0333C37.7899 44.0565 37.475 43.1016 36.8751 42.3297C36.5686 41.9575 36.1812 41.66 35.7423 41.4598C35.3034 41.2597 34.8246 41.1621 34.3422 41.1746C33.8615 41.1607 33.3841 41.2577 32.9471 41.458C32.51 41.6583 32.1251 41.9566 31.8223 42.3297L29.1732 40.1293C30.5683 38.8067 32.4186 38.0693 34.3422 38.0693C36.2659 38.0693 38.1161 38.8067 39.5113 40.1293C40.7462 41.4613 41.4176 43.2184 41.3851 45.0333V47.6919C41.3868 48.0193 41.5182 48.3328 41.7507 48.5637C41.9832 48.7947 42.2978 48.9243 42.6257 48.9243H52.7053C52.518 48.4093 52.4218 47.8656 52.421 47.3176V45.0333C52.445 44.0553 52.1275 43.0994 51.5229 42.3297C51.2178 41.9576 50.8316 41.6601 50.3937 41.4599C49.9558 41.2597 49.4779 41.1621 48.9965 41.1746C48.5159 41.1607 48.0384 41.2577 47.6014 41.458C47.1643 41.6583 46.7794 41.9566 46.4766 42.3297L43.8275 40.1293C45.2219 38.8052 47.0724 38.0669 48.9965 38.0669C50.9207 38.0669 52.7712 38.8052 54.1656 40.1293C55.4022 41.4606 56.0759 43.2177 56.0458 45.0333V47.6919C56.0475 48.0182 56.1781 48.3307 56.4092 48.5615C56.6403 48.7922 56.9532 48.9226 57.28 48.9243H58.1652V52.041L21.6845 52.0087Z" fill="#221AFB"/>
<path d="M9.06551 57.2096C9.06551 56.6534 8.84426 56.12 8.45045 55.7267C8.05664 55.3334 7.52251 55.1125 6.96557 55.1125C6.40864 55.1125 5.87451 55.3334 5.4807 55.7267C5.08688 56.12 4.86564 56.6534 4.86564 57.2096C4.86564 57.7658 5.08688 58.2992 5.4807 58.6925C5.87451 59.0858 6.40864 59.3067 6.96557 59.3067C7.52251 59.3067 8.05664 59.0858 8.45045 58.6925C8.84426 58.2992 9.06551 57.7658 9.06551 57.2096Z" fill="#221AFB"/>
<path d="M105.346 37.4256C105.761 37.4256 106.167 37.3026 106.513 37.0722C106.858 36.8417 107.127 36.5142 107.286 36.131C107.445 35.7478 107.486 35.3261 107.405 34.9193C107.324 34.5125 107.124 34.1389 106.831 33.8456C106.537 33.5523 106.163 33.3526 105.756 33.2716C105.348 33.1907 104.926 33.2322 104.542 33.391C104.159 33.5497 103.831 33.8185 103.6 34.1634C103.369 34.5082 103.246 34.9137 103.246 35.3285C103.246 35.8847 103.467 36.4181 103.861 36.8114C104.255 37.2047 104.789 37.4256 105.346 37.4256Z" fill="#221AFB"/>
<path d="M12.9876 55.1125C12.5723 55.1125 12.1663 55.2355 11.8209 55.4659C11.4756 55.6963 11.2064 56.0238 11.0475 56.407C10.8886 56.7902 10.847 57.2119 10.928 57.6187C11.009 58.0255 11.209 58.3992 11.5027 58.6925C11.7964 58.9858 12.1706 59.1855 12.5779 59.2664C12.9853 59.3473 13.4075 59.3058 13.7912 59.1471C14.1749 58.9884 14.5029 58.7196 14.7336 58.3747C14.9644 58.0298 15.0875 57.6244 15.0875 57.2096C15.0825 56.655 14.8596 56.1245 14.4669 55.7323C14.0741 55.3401 13.543 55.1175 12.9876 55.1125Z" fill="#221AFB"/>
<path d="M113.332 38.0192C112.401 37.9796 111.471 38.1326 110.602 38.4686C109.732 38.8047 108.942 39.3166 108.28 39.9721C107.618 40.6277 107.099 41.4128 106.755 42.2782C106.412 43.1436 106.251 44.0706 106.283 45.0011C106.274 46.366 106.645 47.7065 107.355 48.8727H102.567C102.087 48.8858 101.61 48.7878 101.174 48.5863C100.738 48.3848 100.355 48.0853 100.054 47.7112C99.4588 46.9277 99.1488 45.9649 99.1753 44.9817C99.1506 44.0067 99.4607 43.0527 100.054 42.278L97.3984 40.0777C96.1913 41.4318 95.5244 43.1816 95.5244 44.9946C95.5244 46.8076 96.1913 48.5574 97.3984 49.9116C98.0697 50.5955 98.8756 51.1332 99.7652 51.4908C100.655 51.8484 101.609 52.0181 102.567 51.9894H113.332C115.19 51.9894 116.971 51.2524 118.285 49.9406C119.598 48.6289 120.336 46.8497 120.336 44.9946C120.336 43.1395 119.598 41.3604 118.285 40.0486C116.971 38.7368 115.19 37.9999 113.332 37.9999V38.0192ZM113.332 48.8727C111.148 48.8727 109.933 47.0788 109.933 45.0011C109.933 42.9233 111.148 41.1295 113.332 41.1295C115.516 41.1295 116.757 42.9233 116.757 45.0011C116.757 47.0788 115.51 48.8727 113.332 48.8727Z" fill="#221AFB"/>
<path d="M162.425 38.0192C161.494 37.9796 160.564 38.1326 159.695 38.4686C158.826 38.8047 158.035 39.3166 157.373 39.9721C156.711 40.6277 156.192 41.4128 155.849 42.2782C155.505 43.1436 155.344 44.0706 155.376 45.0011C155.365 46.3662 155.737 47.7072 156.449 48.8727H151.822C151.684 48.8814 151.546 48.8452 151.43 48.7697C151.313 48.6942 151.224 48.5832 151.176 48.4533C151.657 47.5612 151.92 46.5686 151.945 45.556C151.976 44.6238 151.814 43.6953 151.468 42.8288C151.123 41.9623 150.601 41.1768 149.936 40.5215C149.272 39.8662 148.479 39.3555 147.607 39.0215C146.735 38.6874 145.803 38.5373 144.87 38.5806C140.89 38.5806 138.073 40.7036 136.153 43.0975V39.7228H132.755V48.8985H128.794C128.193 48.8985 128.006 48.4339 128.006 47.8467V39.3033H124.362V51.0279C124.362 53.125 123.121 54.8995 120.937 54.8995V58.0162C121.849 58.0571 122.759 57.9133 123.614 57.5933C124.468 57.2733 125.249 56.7838 125.909 56.1543C126.569 55.5247 127.094 54.7683 127.454 53.9305C127.813 53.0927 127.998 52.1909 127.999 51.2796C128.162 51.5087 128.38 51.6937 128.633 51.8176C128.886 51.9415 129.165 52.0006 129.447 51.9894H145.923C147.348 51.9663 148.709 51.39 149.716 50.3826C149.988 50.8742 150.388 51.2832 150.873 51.5661C151.359 51.849 151.913 51.9952 152.475 51.9894H162.425C164.283 51.9894 166.064 51.2524 167.378 49.9406C168.691 48.6289 169.429 46.8497 169.429 44.9946C169.429 43.1395 168.691 41.3604 167.378 40.0486C166.064 38.7368 164.283 37.9999 162.425 37.9999V38.0192ZM144.825 48.8727H136.632C138.247 44.9624 141.297 41.6973 144.85 41.6973C147.034 41.6973 148.281 43.4847 148.281 45.5689C148.281 47.6531 146.989 48.8856 144.825 48.8856V48.8727ZM162.425 48.8856C160.241 48.8856 159.027 47.0917 159.027 45.014C159.027 42.9362 160.241 41.1423 162.425 41.1423C164.609 41.1423 165.85 42.9362 165.85 45.014C165.85 47.0917 164.603 48.8856 162.425 48.8856Z" fill="#221AFB"/>
<path d="M66.3582 32.8313H62.714V52.0152H66.3582V32.8313Z" fill="#221AFB"/>
<path d="M80.4374 46.7691C80.4374 48.2597 79.6879 48.8921 78.667 48.8921H75.585C74.9841 48.8921 74.8031 48.4275 74.8031 47.8403V39.3033H71.1525V51.0279C71.1525 53.125 69.9119 54.8995 67.728 54.8995V58.0162C68.6397 58.0571 69.5502 57.9133 70.4047 57.5933C71.2592 57.2733 72.04 56.7837 72.6999 56.1542C73.3598 55.5247 73.8853 54.7683 74.2445 53.9305C74.6038 53.0927 74.7894 52.1909 74.7902 51.2795C74.9538 51.5083 75.1716 51.6929 75.4242 51.8168C75.6768 51.9407 75.9563 52 76.2376 51.9893H79.1904C82.4211 51.9893 83.9395 49.9761 83.9395 46.9433V32.8119H80.4374V46.7691Z" fill="#221AFB"/>
<path d="M99.3304 84.8594V63.5332H102.981V71.5862C103.54 71.1353 104.165 70.7739 104.835 70.5151C105.46 70.3077 106.115 70.2052 106.774 70.2118C107.824 70.1935 108.866 70.4079 109.823 70.8397C110.781 71.2715 111.63 71.9099 112.311 72.709C113.636 74.2068 114.321 76.1631 114.22 78.1591C114.118 80.1551 113.238 82.0321 111.768 83.3882C110.42 84.6594 108.628 85.3541 106.774 85.324C106.114 85.3308 105.458 85.2216 104.835 85.0014C104.171 84.7399 103.546 84.3858 102.981 83.9496V84.8465L99.3304 84.8594ZM106.729 73.5091C106.181 73.4893 105.636 73.6008 105.141 73.8343C104.645 74.0678 104.212 74.4165 103.879 74.8513C103.24 75.684 102.911 76.7129 102.949 77.7615C102.921 78.3508 103.011 78.9398 103.214 79.4939C103.417 80.0479 103.729 80.5559 104.131 80.9878C104.47 81.3251 104.873 81.59 105.318 81.7664C105.762 81.9428 106.238 82.027 106.716 82.0138C107.273 82.032 107.826 81.9201 108.332 81.6871C108.838 81.4541 109.282 81.1064 109.63 80.6716C110.267 79.8381 110.593 78.8092 110.554 77.7615C110.586 77.1689 110.495 76.5761 110.286 76.0207C110.077 75.4653 109.754 74.9593 109.339 74.5351C108.997 74.1899 108.588 73.9184 108.137 73.7375C107.685 73.5566 107.202 73.4701 106.716 73.4833" fill="#221AFB"/>
<path d="M131.088 84.8594H127.437V83.9625C126.872 84.3987 126.248 84.7528 125.583 85.0143C124.961 85.2353 124.305 85.3446 123.644 85.3369C122.594 85.358 121.551 85.1448 120.593 84.7128C119.635 84.2808 118.786 83.6409 118.107 82.8397C116.783 81.3389 116.095 79.3821 116.191 77.3839C116.286 75.3857 117.156 73.5031 118.617 72.1347C119.983 70.8696 121.782 70.1766 123.644 70.1989C124.303 70.1916 124.958 70.2941 125.583 70.5022C126.253 70.761 126.878 71.1224 127.437 71.5733V70.6957H131.088V84.8594ZM123.696 73.5091C123.139 73.4879 122.584 73.5984 122.078 73.8316C121.572 74.0648 121.128 74.4142 120.782 74.8513C120.143 75.684 119.814 76.7129 119.852 77.7615C119.824 78.3534 119.918 78.9447 120.127 79.4993C120.336 80.054 120.655 80.5604 121.066 80.9878C121.414 81.3258 121.825 81.5908 122.277 81.767C122.729 81.9432 123.211 82.0272 123.696 82.0138C124.247 82.0304 124.794 81.9177 125.294 81.6845C125.793 81.4514 126.231 81.1045 126.571 80.6716C127.211 79.8389 127.54 78.81 127.502 77.7615C127.536 77.1716 127.448 76.581 127.245 76.0261C127.041 75.4713 126.726 74.9639 126.319 74.5351C125.977 74.1905 125.568 73.9195 125.117 73.7386C124.665 73.5577 124.182 73.4708 123.696 73.4833" fill="#221AFB"/>
<path d="M138.454 71.4314C138.919 71.0325 139.447 70.7141 140.017 70.4893C140.573 70.2924 141.16 70.1983 141.749 70.2118C142.58 70.2127 143.402 70.3818 144.166 70.7087C144.926 71.0237 145.609 71.4991 146.169 72.1024C147.189 73.2123 147.7 74.9223 147.7 77.2646V84.8788H144.056V77.4711C144.056 75.8708 143.817 74.8061 143.351 74.277C143.113 74.0162 142.819 73.8118 142.492 73.679C142.164 73.5461 141.811 73.4881 141.458 73.5091C141.019 73.4762 140.578 73.5486 140.172 73.7203C139.766 73.8921 139.408 74.1581 139.126 74.4964C138.673 75.0513 138.48 76.1418 138.48 77.7615V84.8594H134.829V70.6635H138.48L138.454 71.4314Z" fill="#221AFB"/>
<path d="M158.904 76.6387L165.404 84.8594H160.926L156.41 79.0714L155.066 80.3813V84.8594H151.415V63.5332H155.066V75.7482L160.222 70.6957H165.023L158.904 76.6387Z" fill="#221AFB"/>
<path d="M19.0031 84.8594H15.3589V83.9625C14.7902 84.3972 14.164 84.7512 13.498 85.0143C12.876 85.2353 12.2198 85.3446 11.5596 85.3369C10.506 85.3556 9.46142 85.1401 8.50148 84.7059C7.54155 84.2718 6.69029 83.63 6.00933 82.8268C4.69566 81.3211 4.01533 79.3667 4.11045 77.3719C4.20557 75.377 5.06878 73.4961 6.51978 72.1218C7.88562 70.8579 9.68474 70.165 11.5467 70.186C12.2052 70.1787 12.8604 70.2812 13.4851 70.4893C14.1565 70.7493 14.7841 71.1105 15.346 71.5604V70.6957H18.9902L19.0031 84.8594ZM11.6113 73.5091C11.0542 73.4889 10.5002 73.5999 9.99394 73.833C9.48772 74.0662 9.04352 74.415 8.69725 74.8513C8.05807 75.684 7.7291 76.7129 7.76682 77.7615C7.73892 78.354 7.83288 78.946 8.04291 79.5009C8.25294 80.0558 8.57459 80.5618 8.98801 80.9878C9.33414 81.3256 9.74472 81.5905 10.1954 81.7668C10.646 81.943 11.1275 82.027 11.6113 82.0138C12.1633 82.0304 12.7114 81.9177 13.2119 81.6846C13.7123 81.4516 14.1511 81.1046 14.4931 80.6716C15.1299 79.8381 15.4566 78.8092 15.417 77.7615C15.4508 77.1716 15.3633 76.581 15.16 76.0261C14.9566 75.4713 14.6417 74.9639 14.2346 74.5351C13.8927 74.1899 13.4834 73.9184 13.0322 73.7375C12.581 73.5566 12.0974 73.4701 11.6113 73.4833" fill="#221AFB"/>
<path d="M26.4013 63.5332H22.7506V84.8594H26.4013V63.5332Z" fill="#221AFB"/>
<path d="M54.3142 84.8594H50.6636V83.9625C50.0982 84.3987 49.4739 84.7528 48.8092 85.0143C48.1872 85.2353 47.5309 85.3446 46.8708 85.3369C45.8199 85.358 44.7776 85.1448 43.8197 84.7128C42.8618 84.2808 42.0124 83.6409 41.3334 82.8397C40.009 81.3389 39.3217 79.3821 39.417 77.3839C39.5122 75.3857 40.3827 73.5031 41.8439 72.1347C43.209 70.8696 45.0086 70.1766 46.8708 70.1989C47.5293 70.1916 48.1844 70.2941 48.8092 70.5022C49.4792 70.761 50.1048 71.1224 50.6636 71.5733V70.6957H54.3142V84.8594ZM46.9225 73.5091C46.3652 73.4879 45.8108 73.5984 45.3044 73.8316C44.7981 74.0648 44.354 74.4142 44.0084 74.8513C43.3692 75.684 43.0403 76.7129 43.078 77.7615C43.0508 78.3534 43.1444 78.9447 43.3532 79.4993C43.5621 80.054 43.8817 80.5604 44.2927 80.9878C44.64 81.3258 45.0517 81.5908 45.5035 81.767C45.9552 81.9432 46.4377 82.0272 46.9225 82.0138C47.4735 82.0304 48.0207 81.9177 48.5201 81.6845C49.0195 81.4514 49.4571 81.1045 49.7978 80.6716C50.4369 79.8389 50.7659 78.81 50.7282 77.7615C50.762 77.1716 50.6745 76.581 50.4711 76.0261C50.2678 75.4713 49.9529 74.9639 49.5458 74.5351C49.2034 74.1905 48.794 73.9195 48.3429 73.7386C47.8918 73.5577 47.4084 73.4708 46.9225 73.4833" fill="#221AFB"/>
<path d="M60.1424 63.63C60.444 63.6243 60.7439 63.6783 61.0245 63.7891C61.3051 63.8998 61.5609 64.0651 61.7771 64.2753C61.9881 64.4815 62.1543 64.7288 62.2654 65.0019C62.3766 65.275 62.4303 65.568 62.4232 65.8627C62.4323 66.1615 62.3797 66.4589 62.2685 66.7365C62.1573 67.0141 61.99 67.2658 61.7771 67.4759C61.5617 67.6872 61.3061 67.8533 61.0253 67.9641C60.7445 68.0749 60.4442 68.1283 60.1424 68.1211C59.8438 68.1228 59.5478 68.0655 59.2715 67.9523C58.9952 67.8392 58.7441 67.6725 58.5326 67.4619C58.3212 67.2514 58.1536 67.0011 58.0395 66.7255C57.9254 66.4499 57.8671 66.1544 57.868 65.8562C57.8609 65.5615 57.9146 65.2685 58.0257 64.9954C58.1369 64.7224 58.3031 64.475 58.5141 64.2689C58.7245 64.0599 58.9747 63.8952 59.25 63.7844C59.5252 63.6735 59.8198 63.6189 60.1165 63.6236" fill="#221AFB"/>
<path d="M69.3627 71.4314C69.8276 71.0325 70.3561 70.7141 70.9263 70.4893C71.4819 70.2928 72.0687 70.1988 72.6579 70.2118C73.4888 70.2127 74.3108 70.3817 75.0745 70.7086C75.8349 71.0237 76.5182 71.4991 77.0775 72.1024C78.0984 73.2123 78.6153 74.9223 78.6153 77.2646V84.8788H74.9646V77.4711C74.9646 75.8708 74.7256 74.8061 74.2603 74.277C74.0221 74.0162 73.7284 73.8118 73.4008 73.679C73.0733 73.5461 72.7201 73.4881 72.3672 73.5091C71.9278 73.4767 71.487 73.5494 71.0814 73.7211C70.6757 73.8928 70.3169 74.1585 70.0346 74.4964C69.5823 75.0513 69.3885 76.1418 69.3885 77.7615V84.8594H65.7378V63.5332H69.3885L69.3627 71.4314Z" fill="#221AFB"/>
<path d="M84.1527 63.63C84.4535 63.6237 84.7525 63.6775 85.0321 63.7883C85.3118 63.8991 85.5664 64.0647 85.781 64.2753C85.9929 64.4808 86.1597 64.728 86.271 65.0012C86.3822 65.2745 86.4353 65.5678 86.4271 65.8627C86.4374 66.1616 86.3852 66.4594 86.274 66.7372C86.1628 67.0149 85.9949 67.2665 85.781 67.4759C85.5673 67.6876 85.3128 67.854 85.033 67.9649C84.7531 68.0758 84.4537 68.129 84.1527 68.1211C83.8541 68.1228 83.5581 68.0655 83.2818 67.9523C83.0055 67.8392 82.7544 67.6725 82.5429 67.4619C82.3315 67.2514 82.1639 67.0011 82.0498 66.7255C81.9357 66.4499 81.8774 66.1544 81.8783 65.8562C81.8712 65.5615 81.9249 65.2685 82.0361 64.9954C82.1472 64.7224 82.3135 64.475 82.5244 64.2689C82.7349 64.0599 82.9851 63.8952 83.2603 63.7844C83.5355 63.6735 83.8302 63.6189 84.1269 63.6236L84.1527 63.63ZM85.949 84.853H82.2983V70.657H85.949V84.853Z" fill="#221AFB"/>
<path d="M29.871 76.3225V84.8981H33.5152V76.1741C33.5152 74.2383 34.5168 73.6511 36.0998 73.6511H38.1416V70.4247L35.977 70.3925C31.8547 70.3925 29.871 72.6509 29.871 76.3031" fill="#221AFB"/>
<path d="M61.9645 70.6957H58.3203V85.266C58.3203 87.4018 57.0604 89.2215 54.8441 89.2215V92.3897C55.7668 92.406 56.6835 92.2394 57.5413 91.8998C58.3992 91.5602 59.1811 91.0541 59.842 90.4109C60.5028 89.7678 61.0295 89.0002 61.3916 88.1525C61.7537 87.3049 61.944 86.394 61.9516 85.4725L61.9645 70.6957Z" fill="#221AFB"/>
</svg>
