<svg width="158" height="158" viewBox="0 0 158 158" fill="none" xmlns="http://www.w3.org/2000/svg">
<g filter="url(#filter0_d_1302_8285)">
<path d="M135 68.2917C135 72.6667 134.417 77.0417 133.542 81.125C132.958 83.75 132.083 86.0833 131.208 88.4167C125.667 103 114 114.667 99.4167 120.208C98.25 120.5 97.375 121.083 96.2083 121.375C90.6667 123.125 85.125 124 79 124C48.0833 124 23 98.9167 23 68C23 37.0833 48.0833 12 79 12C109.917 12.2917 135 37.375 135 68.2917Z" fill="url(#paint0_linear_1302_8285)"/>
<path d="M131.137 86.1517C130.554 88.4851 129.679 90.8184 128.804 93.1518C123.262 107.152 112.696 114.596 98.6958 120.138L50.4199 95.4207L106.42 41.3517L130.845 81.7767L131.137 86.1517Z" fill="url(#paint1_linear_1302_8285)"/>
<path d="M105.809 41.1906C103.245 38.6266 99.0878 38.6266 96.5238 41.1906L78.2268 59.4876L59.9299 41.1906C57.3659 38.6266 53.2088 38.6266 50.6448 41.1906C48.0808 43.7546 48.0808 47.9117 50.6448 50.4757L68.9418 68.7726L50.6448 87.0696C48.0808 89.6336 48.0808 93.7907 50.6448 96.3547C53.2088 98.9187 57.3658 98.9187 59.9298 96.3547L78.2268 78.0577L96.5239 96.3547C99.0878 98.9187 103.245 98.9187 105.809 96.3547C108.373 93.7907 108.373 89.6336 105.809 87.0697L87.5119 68.7726L105.809 50.4756C108.373 47.9116 108.373 43.7546 105.809 41.1906Z" fill="url(#paint2_linear_1302_8285)"/>
</g>
<defs>
<filter id="filter0_d_1302_8285" x="0.837036" y="0.918518" width="156.326" height="156.326" filterUnits="userSpaceOnUse" color-interpolation-filters="sRGB">
<feFlood flood-opacity="0" result="BackgroundImageFix"/>
<feColorMatrix in="SourceAlpha" type="matrix" values="0 0 0 0 0 0 0 0 0 0 0 0 0 0 0 0 0 0 127 0" result="hardAlpha"/>
<feOffset dy="11.0815"/>
<feGaussianBlur stdDeviation="11.0815"/>
<feColorMatrix type="matrix" values="0 0 0 0 0.397708 0 0 0 0 0.47749 0 0 0 0 0.575 0 0 0 0.27 0"/>
<feBlend mode="normal" in2="BackgroundImageFix" result="effect1_dropShadow_1302_8285"/>
<feBlend mode="normal" in="SourceGraphic" in2="effect1_dropShadow_1302_8285" result="shape"/>
</filter>
<linearGradient id="paint0_linear_1302_8285" x1="48.9128" y1="22.3448" x2="110.553" y2="116.219" gradientUnits="userSpaceOnUse">
<stop stop-color="#FBE0E0"/>
<stop offset="1" stop-color="#EF4444"/>
</linearGradient>
<linearGradient id="paint1_linear_1302_8285" x1="-21.5412" y1="61.8207" x2="125.924" y2="106.153" gradientUnits="userSpaceOnUse">
<stop stop-color="#EF4444"/>
<stop offset="1" stop-color="#EF4444" stop-opacity="0"/>
</linearGradient>
<linearGradient id="paint2_linear_1302_8285" x1="49.2615" y1="112.414" x2="31.9929" y2="87.2892" gradientUnits="userSpaceOnUse">
<stop offset="0.0113208" stop-color="#FFC2C2"/>
<stop offset="1" stop-color="white"/>
</linearGradient>
</defs>
</svg>
