<svg width="34" height="36" viewBox="0 0 34 36" fill="none" xmlns="http://www.w3.org/2000/svg">
<path fill-rule="evenodd" clip-rule="evenodd" d="M22.9555 6.0474C24.0456 9.81511 29.069 24.1885 29.069 24.1885C20.1521 27.7746 6.77571 6.0474 6.77571 6.0474C8.79113 3.18041 9.57046 0.250087 14.1085 0.250087C18.6465 0.250087 21.8655 2.27968 22.9555 6.0474Z" fill="#E6E9EF"/>
<path fill-rule="evenodd" clip-rule="evenodd" d="M7.25419 5.5368C4.35473 6.36897 10.7637 20.3975 11.5235 22.6566C11.5235 22.6566 12.365 24.006 13.2644 23.2888C14.8309 22.0394 17.0958 18.8256 17.0958 18.8256L10.3934 6.35174L7.25419 5.5368Z" fill="#E0CBCB"/>
<path fill-rule="evenodd" clip-rule="evenodd" d="M22.3641 23.7676C19.0833 26.6014 14.7013 25.2044 14.7013 25.2044C14.4658 25.2044 10.397 24.7213 11.8277 23.7676C13.2584 22.8139 13.8725 16.9432 13.8725 16.9432C15.4303 13.1827 20.6204 12.2734 20.6204 12.2734C20.1163 15.8805 20.6639 22.7257 22.3641 23.7676Z" fill="#E78B53"/>
<path fill-rule="evenodd" clip-rule="evenodd" d="M18.626 17.6752C19.4358 17.2102 19.9387 16.113 20.2081 15.2518C20.2509 14.4319 20.3347 13.5873 20.4482 12.7524C20.4482 12.7524 15.2912 13.6815 13.7433 17.5242C13.7433 17.5242 13.8016 18.1621 13.7694 18.9785C15.7556 18.703 17.9367 18.071 18.626 17.6752Z" fill="#DF713A"/>
<path fill-rule="evenodd" clip-rule="evenodd" d="M10.0432 6.54809C8.06992 9.16443 9.04966 17.3166 10.8283 18.239C12.3298 19.0175 17.8213 17.8683 19.0134 17.1853C20.1939 16.5089 20.7147 14.4753 20.8079 13.8355C22.2096 14.2155 23.5995 12.2336 23.2741 10.9614C22.9251 9.59665 21.6164 9.80666 21.0119 10.601C20.4153 11.3853 20.2285 11.3121 19.9005 10.5405C19.4992 9.59579 19.412 9.64082 18.759 8.71881C17.8359 7.41545 17.5019 6.81344 15.3504 6.30165C13.3932 5.83592 10.7087 6.06466 10.0432 6.54809Z" fill="#E78B53"/>
<path fill-rule="evenodd" clip-rule="evenodd" d="M8.96895 10.657C9.52577 13.9909 11.5414 16.4606 13.9427 16.4606C16.6967 16.4606 18.9434 13.2122 19.064 9.13708C19.1099 9.19822 19.152 9.25369 19.1911 9.30524C19.4847 9.69213 19.6107 9.85819 19.9005 10.5404C20.2285 11.3121 20.4153 11.3853 21.0119 10.6009C21.6164 9.80661 22.9251 9.5966 23.2741 10.9613C23.5995 12.2336 22.2096 14.2154 20.8079 13.8354C20.7147 14.4753 20.1939 16.5088 19.0134 17.1853C17.8213 17.8682 12.3298 19.0174 10.8283 18.2389C9.65709 17.6316 8.83227 13.8892 8.96895 10.657Z" fill="#9C745B"/>
<path fill-rule="evenodd" clip-rule="evenodd" d="M8.17144 4.35356C7.86312 4.27613 7.66236 3.85342 7.73221 3.43533C7.79611 3.05311 8.06283 2.81392 8.34378 2.88517C12.7147 3.99206 19.6176 2.99964 21.5503 2.68426C21.8394 2.63701 22.1073 2.91664 22.1568 3.31574C22.2084 3.73127 22.0035 4.11561 21.7023 4.16553C20.562 4.35473 17.8266 4.76137 14.8367 4.86578C12.5661 4.94507 10.1493 4.85008 8.17144 4.35356Z" fill="#241F20"/>
<path fill-rule="evenodd" clip-rule="evenodd" d="M18.3088 8.03934C20.1061 15.8773 21.4699 23.9151 21.4699 23.9151C26.7107 23.0221 24.9198 23.7677 29.2824 26.9397C25.7912 11.2366 23.9989 11.4457 23.9989 11.4457L18.3088 8.03934Z" fill="#E0CBCB"/>
<path fill-rule="evenodd" clip-rule="evenodd" d="M18.0535 7.52709C21.9479 11.0545 21.3743 24.0833 21.3743 24.0833C22.6834 23.7313 25.4903 25.1278 25.4903 25.1278L29.2823 27.0539C29.2823 27.0539 30.2258 26.1559 30.5056 25.8462C26.9775 10.0767 22.4805 6.80093 22.4805 6.80093L18.0535 7.52709Z" fill="#E6E9EF"/>
<path d="M31.5833 26.2144C32.4648 28.0067 33.1592 30.9696 33.6666 35.1033H0.333282C0.840911 30.9692 1.53536 28.0062 2.41662 26.2144C3.29498 24.4285 11.4444 20.9909 11.4444 20.9909L16.1379 22.9057L22.5555 20.99C22.5555 20.99 30.7067 24.432 31.5833 26.2144Z" fill="url(#paint0_linear_1278_995)"/>
<path d="M16.0379 22.8622L15.3238 24.7261L9.74356 21.8488C10.5903 20.7199 12.1403 20.389 13.3743 21.0738L16.0379 22.5522L21.3213 20.6069L21.9481 22.7206L16.3774 24.5882L16.0379 22.8622Z" fill="url(#paint1_linear_1278_995)"/>
<defs>
<linearGradient id="paint0_linear_1278_995" x1="33.7478" y1="33.8064" x2="32.9046" y2="20.9599" gradientUnits="userSpaceOnUse">
<stop stop-color="#EEEEEE"/>
<stop offset="1" stop-color="white"/>
<stop offset="1" stop-color="white"/>
</linearGradient>
<linearGradient id="paint1_linear_1278_995" x1="21.9778" y1="24.2807" x2="21.706" y2="19.8662" gradientUnits="userSpaceOnUse">
<stop stop-color="#EEEEEE"/>
<stop offset="1" stop-color="white"/>
<stop offset="1" stop-color="white"/>
</linearGradient>
</defs>
</svg>
