<svg width="165" height="164" viewBox="0 0 165 164" fill="none" xmlns="http://www.w3.org/2000/svg">
<g filter="url(#filter0_d_191_5959)">
<path d="M135 68.2917C135 72.6667 134.417 77.0417 133.542 81.125C132.958 83.75 132.083 86.0833 131.208 88.4167C125.667 103 114 114.667 99.4167 120.208C98.25 120.5 97.375 121.083 96.2083 121.375C90.6667 123.125 85.125 124 79 124C48.0833 124 23 98.9167 23 68C23 37.0833 48.0833 12 79 12C109.917 12.2917 135 37.375 135 68.2917Z" fill="url(#paint0_linear_191_5959)"/>
<path d="M105.648 116.276L95.6069 130.566L75.1379 103.531L79.3862 91.7881L105.648 116.276Z" fill="url(#paint1_linear_191_5959)"/>
<rect x="71.662" y="91.5588" width="13.131" height="13.131" rx="6.56551" fill="url(#paint2_linear_191_5959)"/>
<path d="M142.813 81.6401C142.229 83.9734 141.354 86.3067 140.479 88.6401C134.938 102.64 123.854 113.723 109.854 119.265L78.3543 86.538V29.7656L82.4759 31.3105L142.521 77.2651L142.813 81.6401Z" fill="url(#paint3_linear_191_5959)"/>
<rect x="71.662" y="29.7656" width="13.131" height="57.1586" rx="6.56552" fill="url(#paint4_linear_191_5959)"/>
</g>
<defs>
<filter id="filter0_d_191_5959" x="0.837036" y="0.918518" width="164.139" height="162.892" filterUnits="userSpaceOnUse" color-interpolation-filters="sRGB">
<feFlood flood-opacity="0" result="BackgroundImageFix"/>
<feColorMatrix in="SourceAlpha" type="matrix" values="0 0 0 0 0 0 0 0 0 0 0 0 0 0 0 0 0 0 127 0" result="hardAlpha"/>
<feOffset dy="11.0815"/>
<feGaussianBlur stdDeviation="11.0815"/>
<feColorMatrix type="matrix" values="0 0 0 0 0.397708 0 0 0 0 0.47749 0 0 0 0 0.575 0 0 0 0.27 0"/>
<feBlend mode="normal" in2="BackgroundImageFix" result="effect1_dropShadow_191_5959"/>
<feBlend mode="normal" in="SourceGraphic" in2="effect1_dropShadow_191_5959" result="shape"/>
</filter>
<linearGradient id="paint0_linear_191_5959" x1="48.9128" y1="22.3448" x2="110.553" y2="116.219" gradientUnits="userSpaceOnUse">
<stop stop-color="#FBF1E0"/>
<stop offset="1" stop-color="#F67C0D"/>
</linearGradient>
<linearGradient id="paint1_linear_191_5959" x1="85.1557" y1="78.0025" x2="108.672" y2="101.519" gradientUnits="userSpaceOnUse">
<stop stop-color="#FFA757"/>
<stop offset="1" stop-color="#F67C0D" stop-opacity="0"/>
</linearGradient>
<linearGradient id="paint2_linear_191_5959" x1="81.6998" y1="100.594" x2="74.6113" y2="95.1772" gradientUnits="userSpaceOnUse">
<stop offset="0.0113208" stop-color="#FFEEC2"/>
<stop offset="1" stop-color="white"/>
</linearGradient>
<linearGradient id="paint3_linear_191_5959" x1="-30.2965" y1="44.8277" x2="117.168" y2="89.16" gradientUnits="userSpaceOnUse">
<stop stop-color="#FFA757"/>
<stop offset="1" stop-color="#F67C0D" stop-opacity="0"/>
</linearGradient>
<linearGradient id="paint4_linear_191_5959" x1="81.6998" y1="69.0952" x2="70.8076" y2="67.1831" gradientUnits="userSpaceOnUse">
<stop offset="0.0113208" stop-color="#FFEEC2"/>
<stop offset="1" stop-color="white"/>
</linearGradient>
</defs>
</svg>
