<svg width="546" height="384" viewBox="0 0 546 384" fill="none" xmlns="http://www.w3.org/2000/svg">
<g clip-path="url(#clip0_893_301311)">
<path d="M91.5949 384C142.181 384 183.19 377.22 183.19 368.856C183.19 360.493 142.181 353.713 91.5949 353.713C41.0084 353.713 0 360.493 0 368.856C0 377.22 41.0084 384 91.5949 384Z" fill="url(#paint0_linear_893_301311)"/>
<path d="M207.103 89.8042C243.717 96.907 281.94 88.2295 311.333 65.3633C336.954 45.4286 374.926 27.6214 427.175 31.1393C538.761 38.6609 641.031 333.677 275.439 374.753C-57.5438 412.176 8.04394 51.1577 207.103 89.8042Z" fill="url(#paint1_linear_893_301311)"/>
<path d="M239.403 56.8882C271.071 52.9619 295.385 38.8378 293.711 25.341C292.036 11.8443 265.007 4.086 233.34 8.01233C201.672 11.9387 177.357 26.0628 179.032 39.5595C180.706 53.0562 207.736 60.8146 239.403 56.8882Z" fill="url(#paint2_linear_893_301311)"/>
<mask id="mask0_893_301311" style="mask-type:luminance" maskUnits="userSpaceOnUse" x="41" y="30" width="490" height="348">
<path d="M207.103 89.8042C243.717 96.907 281.94 88.2295 311.333 65.3633C336.954 45.4286 374.926 27.6214 427.175 31.1393C538.761 38.6609 641.031 333.677 275.439 374.753C-57.5438 412.176 8.04394 51.1577 207.103 89.8042Z" fill="white"/>
</mask>
<g mask="url(#mask0_893_301311)">
<g opacity="0.18">
<path d="M254.511 381.906H262.438L262.437 60.2876H254.511L254.511 381.906Z" fill="url(#paint3_linear_893_301311)"/>
<path d="M94.782 132.756L254.512 132.756V120.292L94.782 120.292V132.756Z" fill="url(#paint4_linear_893_301311)"/>
<path d="M94.782 284.142H254.512V271.679H94.782V284.142Z" fill="url(#paint5_linear_893_301311)"/>
<path d="M30.5511 381.906H165.832L165.832 56.0493H30.5511L30.5511 381.906Z" fill="url(#paint6_linear_893_301311)"/>
</g>
</g>
<path d="M278.372 70.238H198.574V141.383H278.372V70.238Z" fill="url(#paint7_linear_893_301311)"/>
<path d="M271.001 76.8047H205.949V134.816H271.001V76.8047Z" fill="white"/>
<path d="M233.866 130.93C233.866 130.93 233.816 130.93 233.799 130.897C233.732 130.83 233.112 130.042 234.335 125.134C234.855 123.023 234.821 121.851 234.184 121.03C233.145 119.723 230.431 119.288 223.778 119.355C221.583 119.371 218.801 118.768 218.081 115.703C217.125 111.615 220.393 105.233 222.689 104.11C225.471 102.753 224.666 100.743 223.426 97.6776C223.242 97.2421 223.058 96.7898 222.89 96.304C222.404 95.0476 222.639 94.0927 223.51 93.674C224.934 92.9871 228.034 93.9252 229.861 97.0076C231.151 99.1853 229.777 103.021 228.571 106.422C227.649 109.002 226.778 111.448 227.465 112.335C227.683 112.637 228.068 112.754 228.638 112.721C229.191 112.687 229.61 112.486 229.894 112.118C230.716 111.062 230.33 108.801 230.029 106.975C229.76 105.417 229.559 104.177 230.079 103.893C230.464 103.675 231.168 104.027 232.341 105.032C235.173 107.477 237.988 106.104 239.061 105.4C241.021 104.11 242.06 102.15 241.759 101.196C241.625 100.76 241.206 100.525 240.552 100.559C238.139 100.626 235.642 98.7665 235.324 96.6725C235.039 94.7628 236.597 93.1714 239.614 92.3338C243.418 91.2784 245.864 95.6339 248.21 99.8386C249.417 102 250.657 104.211 252.081 105.685C252.232 105.015 252.383 104.345 252.517 103.658C252.969 101.397 253.472 98.0797 253.388 94.8968C252.802 94.8131 252.215 94.7796 251.645 94.7796C246.149 94.7796 243.987 91.915 243.786 89.4692C243.635 87.4758 244.725 85.8508 246.384 85.5828C248.947 85.4153 250.858 86.3366 252.064 88.3301C253.053 89.9718 253.505 92.1998 253.589 94.7126C255.382 94.9638 257.041 95.5837 258.415 96.5218C260.141 97.6944 261.281 99.2523 261.633 100.927C262.169 103.541 260.61 105.903 257.46 107.26C255.365 108.164 253.673 107.494 252.182 106.07C250.992 111.012 249.299 115.435 248.093 117.395C244.54 123.157 248.059 128.568 248.093 128.618C248.126 128.669 248.11 128.719 248.059 128.752C248.009 128.786 247.959 128.769 247.925 128.719C247.892 128.669 244.306 123.157 247.925 117.294C249.132 115.334 250.824 110.962 252.014 105.903C250.539 104.395 249.266 102.15 248.026 99.9224C245.696 95.7679 243.3 91.4795 239.647 92.5013C236.731 93.3222 235.223 94.8131 235.491 96.6223C235.793 98.6325 238.189 100.425 240.519 100.358C241.457 100.324 241.792 100.76 241.909 101.129C242.261 102.268 240.971 104.328 239.128 105.551C238.022 106.288 235.123 107.712 232.173 105.182C231.118 104.261 230.431 103.893 230.129 104.06C229.727 104.295 229.945 105.584 230.179 106.958C230.498 108.818 230.883 111.129 230.012 112.235C229.693 112.637 229.224 112.872 228.621 112.905C228.001 112.955 227.548 112.788 227.28 112.453C226.543 111.481 227.381 109.102 228.353 106.355C229.543 103.005 230.9 99.2021 229.66 97.1081C228.504 95.1314 225.538 92.8866 223.56 93.8415C222.773 94.2268 222.588 95.0644 223.024 96.237C223.208 96.7228 223.393 97.1751 223.56 97.6106C224.784 100.659 225.672 102.854 222.722 104.295C220.695 105.283 217.243 111.565 218.215 115.669C218.768 118.031 220.611 119.22 223.728 119.187C229.626 119.12 233.062 119.388 234.285 120.929C234.955 121.784 235.022 123.023 234.469 125.184C233.263 129.975 233.866 130.763 233.883 130.763C233.916 130.796 233.916 130.863 233.883 130.897C233.866 130.913 233.849 130.93 233.816 130.93H233.866ZM252.265 105.853C253.723 107.293 255.382 107.963 257.41 107.092C260.51 105.769 261.984 103.541 261.465 100.978C260.761 97.5771 257.209 95.4999 253.623 94.9471C253.706 98.3477 253.12 102.234 252.265 105.853ZM247.004 85.7503C246.819 85.7503 246.635 85.7503 246.434 85.7671C244.875 86.0184 243.853 87.5595 244.004 89.4525C244.188 91.8312 246.317 94.5953 251.679 94.5953C252.265 94.5953 252.852 94.6288 253.422 94.6958C253.338 92.3506 252.936 90.0891 251.93 88.4306C250.858 86.6549 249.199 85.7503 247.004 85.7503Z" fill="#FFA800"/>
<path d="M311.03 370.95L305.617 367.382C303.405 365.925 302.082 363.462 302.065 360.815L300.875 120.175C300.875 117.93 301.813 115.77 303.489 114.262L311.047 107.444V370.95H311.03Z" fill="#0038FF"/>
<path d="M412.075 129.272L409.746 352.439C409.696 356.544 406.663 359.995 402.591 360.564L317.079 372.475C312.085 373.178 307.645 369.292 307.645 364.266V114.111C307.645 108.968 312.27 105.065 317.347 105.936L405.188 120.996C409.21 121.683 412.126 125.184 412.075 129.255V129.272Z" fill="url(#paint8_linear_893_301311)"/>
<path d="M314.449 124.933V356.745C314.449 361.804 318.94 365.673 323.934 364.953L398.738 354.098C402.776 353.512 405.81 350.061 405.843 345.973L406.212 309.421L406.446 285.583L406.647 264.71L407.234 205.643L407.904 138.753C407.938 134.699 405.055 131.215 401.067 130.511L324.202 116.775C321.052 116.205 318.052 117.495 316.242 119.79C315.12 121.197 314.449 122.973 314.449 124.933Z" fill="#FFF7F0"/>
<path d="M402.908 151.015V219.43H323.328V139.071L402.908 151.015Z" fill="url(#paint9_linear_893_301311)"/>
<path d="M393.829 213.014H333.637V213.466H393.829V213.014Z" fill="white"/>
<path d="M377.339 230.151V261.058L327.051 262.566V226.432L377.339 230.151Z" fill="#E2EBED"/>
<path d="M365.107 256.116C367.995 256.116 370.335 252.329 370.335 247.657C370.335 242.985 367.995 239.197 365.107 239.197C362.22 239.197 359.879 242.985 359.879 247.657C359.879 252.329 362.22 256.116 365.107 256.116Z" fill="#C6D8DC"/>
<path d="M353.427 237.153V242.313L333.637 242.916V235.713L353.427 237.153Z" fill="#C6D8DC"/>
<path d="M343.54 272.181V347.816L321.27 352.356V270.121L343.54 272.181Z" fill="#FDFDFD"/>
<path d="M338.176 296.304H330.133V308.868H338.176V296.304Z" fill="#F35C55"/>
<path d="M336.417 328.451H327.066V343.075H336.417V328.451Z" fill="#FFA800"/>
<path d="M327.044 278.121L327 278.571L339.575 279.804L339.619 279.354L327.044 278.121Z" fill="white"/>
<path d="M338.176 284.729H327.066V285.181H338.176V284.729Z" fill="white"/>
<path d="M334.156 290.508H327.051V290.96H334.156V290.508Z" fill="white"/>
<path d="M338.178 316.473H327.051V316.926H338.178V316.473Z" fill="white"/>
<path d="M338.176 323.057H330.602V323.509H338.176V323.057Z" fill="white"/>
<g opacity="0.38">
<path d="M399.408 273.22L352.203 271.629V352.356L399.408 343.075V273.22Z" fill="#94B0FF"/>
</g>
<g opacity="0.4">
<path d="M314.446 124.933V198.54L406.645 264.71L407.231 205.643L316.223 119.79C315.1 121.197 314.43 122.973 314.43 124.933H314.446Z" fill="white"/>
<path d="M314.445 228.292V256.2L406.208 309.421L406.442 285.583L314.445 228.292Z" fill="white"/>
</g>
<path d="M238.474 370.95L243.886 367.382C246.098 365.925 247.422 363.462 247.439 360.815L248.629 120.175C248.629 117.93 247.69 115.77 246.015 114.262L238.457 107.444V370.95H238.474Z" fill="#0038FF"/>
<path d="M137.426 129.272L139.756 352.439C139.806 356.544 142.839 359.995 146.911 360.564L232.423 372.475C237.417 373.178 241.857 369.292 241.857 364.266V114.111C241.857 108.968 237.232 105.065 232.155 105.936L144.314 120.996C140.292 121.683 137.376 125.184 137.426 129.255V129.272Z" fill="url(#paint10_linear_893_301311)"/>
<path d="M235.053 124.933V356.745C235.053 361.804 230.562 365.673 225.568 364.953L150.764 354.098C146.726 353.512 143.693 350.061 143.659 345.973L143.29 309.421L143.056 285.583L142.855 264.71L142.268 205.643L141.598 138.753C141.564 134.699 144.447 131.215 148.435 130.511L225.3 116.775C228.451 116.205 231.45 117.495 233.26 119.79C234.383 121.197 235.053 122.973 235.053 124.933Z" fill="#FFF7F0"/>
<path d="M146.594 151.015V219.43H226.157V139.071L146.594 151.015Z" fill="url(#paint11_linear_893_301311)"/>
<path d="M215.852 213.014H155.66V213.466H215.852V213.014Z" fill="white"/>
<path d="M172.164 230.151V261.058L222.452 262.566V226.432L172.164 230.151Z" fill="#E2EBED"/>
<path d="M184.396 256.116C187.284 256.116 189.624 252.329 189.624 247.657C189.624 242.985 187.284 239.197 184.396 239.197C181.509 239.197 179.168 242.985 179.168 247.657C179.168 252.329 181.509 256.116 184.396 256.116Z" fill="#C6D8DC"/>
<path d="M196.059 237.153V242.313L215.849 242.916V235.713L196.059 237.153Z" fill="#C6D8DC"/>
<path d="M205.965 272.181V347.816L228.218 352.356V270.121L205.965 272.181Z" fill="#FDFDFD"/>
<path d="M219.368 296.304H211.324V308.868H219.368V296.304Z" fill="#F35C55"/>
<path d="M222.421 328.451H213.07V343.075H222.421V328.451Z" fill="#FFA800"/>
<path d="M222.414 278.178L209.84 279.411L209.884 279.861L222.459 278.628L222.414 278.178Z" fill="white"/>
<path d="M222.434 284.729H211.324V285.181H222.434V284.729Z" fill="white"/>
<path d="M222.453 290.508H215.348V290.96H222.453V290.508Z" fill="white"/>
<path d="M222.451 316.473H211.324V316.926H222.451V316.473Z" fill="white"/>
<path d="M218.898 323.057H211.324V323.509H218.898V323.057Z" fill="white"/>
<g opacity="0.38">
<path d="M150.094 273.22L197.299 271.629V352.356L150.094 343.075V273.22Z" fill="#94B0FF"/>
</g>
<g opacity="0.4">
<path d="M235.054 124.933V198.54L142.856 264.71L142.27 205.643L233.278 119.79C234.401 121.197 235.071 122.973 235.071 124.933H235.054Z" fill="white"/>
<path d="M235.056 228.292V256.2L143.293 309.421L143.059 285.583L235.056 228.292Z" fill="white"/>
</g>
<g opacity="0.6">
<path d="M149.659 187.87H151.084C151.704 187.87 152.223 187.35 152.223 186.73V163.412C152.223 162.792 151.704 162.273 151.084 162.273H114.62C114 162.273 113.48 162.792 113.48 163.412V186.73C113.48 187.35 114 187.87 114.62 187.87H145.436" fill="url(#paint12_linear_893_301311)"/>
</g>
<g opacity="0.6">
<path d="M149.66 187.87V193.297L145.438 187.87" fill="url(#paint13_linear_893_301311)"/>
</g>
<path d="M147.331 167.298H118.626C117.978 167.298 117.453 167.823 117.453 168.471V168.739C117.453 169.387 117.978 169.912 118.626 169.912H147.331C147.979 169.912 148.504 169.387 148.504 168.739V168.471C148.504 167.823 147.979 167.298 147.331 167.298Z" fill="white"/>
<path d="M147.53 172.458H118.825C118.178 172.458 117.652 172.983 117.652 173.63V173.898C117.652 174.546 118.178 175.071 118.825 175.071H147.53C148.178 175.071 148.703 174.546 148.703 173.898V173.63C148.703 172.983 148.178 172.458 147.53 172.458Z" fill="white"/>
<path d="M147.734 177.617H119.028C118.381 177.617 117.855 178.142 117.855 178.79V179.058C117.855 179.706 118.381 180.231 119.028 180.231H147.734C148.381 180.231 148.907 179.706 148.907 179.058V178.79C148.907 178.142 148.381 177.617 147.734 177.617Z" fill="white"/>
<g opacity="0.6">
<path d="M400.38 187.87H398.956C398.336 187.87 397.816 187.35 397.816 186.73V163.412C397.816 162.792 398.336 162.273 398.956 162.273H435.42C436.04 162.273 436.559 162.792 436.559 163.412V186.73C436.559 187.35 436.04 187.87 435.42 187.87H404.603" fill="url(#paint14_linear_893_301311)"/>
</g>
<g opacity="0.6">
<path d="M400.379 187.87V193.297L404.602 187.87" fill="url(#paint15_linear_893_301311)"/>
</g>
<path d="M402.708 169.912H431.413C432.061 169.912 432.586 169.387 432.586 168.739V168.471C432.586 167.823 432.061 167.298 431.413 167.298H402.708C402.06 167.298 401.535 167.823 401.535 168.471V168.739C401.535 169.387 402.06 169.912 402.708 169.912Z" fill="white"/>
<path d="M402.509 175.071H431.214C431.862 175.071 432.387 174.546 432.387 173.898V173.63C432.387 172.983 431.862 172.458 431.214 172.458H402.509C401.861 172.458 401.336 172.983 401.336 173.63V173.898C401.336 174.546 401.861 175.071 402.509 175.071Z" fill="white"/>
<path d="M402.306 180.231H431.011C431.658 180.231 432.184 179.706 432.184 179.058V178.79C432.184 178.142 431.658 177.617 431.011 177.617H402.306C401.658 177.617 401.132 178.142 401.132 178.79V179.058C401.132 179.706 401.658 180.231 402.306 180.231Z" fill="white"/>
<g opacity="0.6">
<path d="M213.304 269.619H210.673C209.517 269.619 208.578 268.68 208.578 267.525V224.69C208.578 223.534 209.517 222.596 210.673 222.596H277.668C278.824 222.596 279.763 223.534 279.763 224.69V267.525C279.763 268.68 278.824 269.619 277.668 269.619H221.045" fill="url(#paint16_linear_893_301311)"/>
</g>
<g opacity="0.6">
<path d="M213.305 269.619V279.586L221.047 269.619" fill="url(#paint17_linear_893_301311)"/>
</g>
<path d="M217.592 236.617H270.343C271.528 236.617 272.488 235.657 272.488 234.473V233.971C272.488 232.786 271.528 231.826 270.343 231.826H217.592C216.407 231.826 215.447 232.786 215.447 233.971V234.473C215.447 235.657 216.407 236.617 217.592 236.617Z" fill="white"/>
<path d="M217.209 246.099H269.961C271.145 246.099 272.105 245.139 272.105 243.955V243.452C272.105 242.268 271.145 241.308 269.961 241.308H217.209C216.024 241.308 215.064 242.268 215.064 243.452V243.955C215.064 245.139 216.024 246.099 217.209 246.099Z" fill="white"/>
<path d="M216.838 255.581H269.589C270.774 255.581 271.734 254.621 271.734 253.436V252.934C271.734 251.75 270.774 250.79 269.589 250.79H216.838C215.653 250.79 214.693 251.75 214.693 252.934V253.436C214.693 254.621 215.653 255.581 216.838 255.581Z" fill="white"/>
<g opacity="0.6">
<path d="M354.213 269.619H356.844C358 269.619 358.939 268.68 358.939 267.525V224.69C358.939 223.534 358 222.596 356.844 222.596H289.849C288.692 222.596 287.754 223.534 287.754 224.69V267.525C287.754 268.68 288.692 269.619 289.849 269.619H346.471" fill="url(#paint18_linear_893_301311)"/>
</g>
<g opacity="0.6">
<path d="M354.215 269.619V279.586L346.473 269.619" fill="url(#paint19_linear_893_301311)"/>
</g>
<path d="M349.924 231.826H297.172C295.988 231.826 295.027 232.786 295.027 233.971V234.473C295.027 235.657 295.988 236.617 297.172 236.617H349.924C351.109 236.617 352.069 235.657 352.069 234.473V233.971C352.069 232.786 351.109 231.826 349.924 231.826Z" fill="white"/>
<path d="M350.291 241.308H297.539C296.355 241.308 295.395 242.268 295.395 243.452V243.955C295.395 245.139 296.355 246.099 297.539 246.099H350.291C351.476 246.099 352.436 245.139 352.436 243.955V243.452C352.436 242.268 351.476 241.308 350.291 241.308Z" fill="white"/>
<path d="M350.678 250.79H297.926C296.742 250.79 295.781 251.75 295.781 252.934V253.436C295.781 254.621 296.742 255.581 297.926 255.581H350.678C351.862 255.581 352.823 254.621 352.823 253.436V252.934C352.823 251.75 351.862 250.79 350.678 250.79Z" fill="white"/>
<path d="M74.8182 352.071C74.8182 352.071 77.0804 356.845 77.7004 360.43C85.459 360.43 91.9273 367.583 87.185 368.789C83.3476 369.761 73.4608 368.471 69.8078 367.935C68.9196 367.801 68.0985 367.399 67.445 366.779L60.6248 360.212C58.8988 358.554 58.8653 355.823 60.5243 354.115L66.272 348.185L74.8182 352.054V352.071Z" fill="#9A132F"/>
<mask id="mask1_893_301311" style="mask-type:luminance" maskUnits="userSpaceOnUse" x="59" y="348" width="30" height="22">
<path d="M74.8182 352.071C74.8182 352.071 77.0804 356.845 77.7004 360.43C85.459 360.43 91.9273 367.583 87.185 368.789C83.3476 369.761 73.4608 368.471 69.8078 367.935C68.9196 367.801 68.0985 367.399 67.445 366.779L60.6248 360.212C58.8988 358.554 58.8653 355.823 60.5243 354.115L66.272 348.185L74.8182 352.054V352.071Z" fill="white"/>
</mask>
<g mask="url(#mask1_893_301311)">
<path d="M58.5808 353.696C60.2566 355.773 61.6642 358.052 63.3734 360.095C65.0826 362.139 67.1605 363.998 69.6909 364.836C71.0314 365.272 72.439 365.422 73.8299 365.556C78.8235 366.009 83.8172 366.26 88.8276 366.293C89.2465 366.293 89.6822 366.293 90.0676 366.494C90.8385 366.88 91.1066 367.935 90.8049 368.739C90.5033 369.543 89.7828 370.146 89.0287 370.565C86.7497 371.838 84.0183 371.922 81.4042 371.905C76.4775 371.889 71.3666 371.604 67.0265 369.258C61.2955 366.159 57.9441 359.995 55.7656 353.864" fill="#F8C066"/>
</g>
<path d="M69.4584 339.507L65.7383 349.592L75.6418 354.131L80.8533 345.27L69.4584 339.507Z" fill="#F9AD9B"/>
<mask id="mask2_893_301311" style="mask-type:luminance" maskUnits="userSpaceOnUse" x="65" y="339" width="16" height="16">
<path d="M69.4584 339.507L65.7383 349.592L75.6418 354.131L80.8533 345.27L69.4584 339.507Z" fill="white"/>
</mask>
<g mask="url(#mask2_893_301311)">
<path d="M80.4855 339.675L68.0517 355.421L60.1758 346.811L65.7392 337.849L80.4855 339.675Z" fill="#ED806B"/>
</g>
<path d="M86.7678 304.479L66.5586 341.166L82.6455 349.407L110.06 311.28C110.06 311.28 102.436 293.758 86.7678 304.479Z" fill="#63272B"/>
<mask id="mask3_893_301311" style="mask-type:luminance" maskUnits="userSpaceOnUse" x="66" y="301" width="45" height="49">
<path d="M86.7678 304.479L66.5586 341.166L82.6455 349.407L110.06 311.28C110.06 311.28 102.436 293.758 86.7678 304.479Z" fill="white"/>
</mask>
<g mask="url(#mask3_893_301311)">
<path d="M100.664 299.353L73.1992 345.687L73.401 345.806L100.866 299.473L100.664 299.353Z" fill="#F8C066"/>
<path d="M65.7375 332.404L90.0019 344.365L83.9526 354.131L60.7773 340.948L65.7375 332.404Z" fill="#F8C066"/>
</g>
<path d="M138.512 352.071C138.512 352.071 140.155 358.035 148.617 358.252C157.063 358.47 162.626 358.872 162.425 362.373C162.224 365.874 153.56 368.756 143.875 367.734C134.189 366.695 129.866 371.436 129.028 366.494C128.19 361.553 130.067 353.093 130.067 353.093L138.512 352.054V352.071Z" fill="#9A132F"/>
<mask id="mask4_893_301311" style="mask-type:luminance" maskUnits="userSpaceOnUse" x="128" y="352" width="35" height="17">
<path d="M138.512 352.071C138.512 352.071 140.155 358.035 148.617 358.252C157.063 358.47 162.626 358.872 162.425 362.373C162.224 365.874 153.56 368.756 143.875 367.734C134.189 366.695 129.866 371.436 129.028 366.494C128.19 361.553 130.067 353.093 130.067 353.093L138.512 352.054V352.071Z" fill="white"/>
</mask>
<g mask="url(#mask4_893_301311)">
<path d="M127.955 363.747C128.14 365.322 129.799 366.36 131.374 366.444C132.949 366.511 134.457 365.858 135.898 365.204C137.339 364.551 138.847 363.898 140.423 363.981C142.685 364.099 144.578 365.673 146.774 366.243C149.622 366.98 152.605 365.908 155.186 364.501C157.766 363.094 160.163 361.318 162.961 360.43C163.765 360.179 164.838 360.095 165.257 360.832C165.558 361.385 165.29 362.072 164.989 362.625C161.637 368.756 154.214 372.391 147.31 371.252C145.165 370.9 143.037 370.129 140.858 370.297C139.434 370.414 138.093 370.917 136.703 371.235C134.323 371.788 131.675 371.754 129.614 370.448C127.553 369.141 126.347 366.327 127.419 364.132" fill="#F8C066"/>
</g>
<path d="M125.727 344.868L129.849 357.231C129.849 357.231 136.451 359.911 141.596 356.611C139.116 347.33 137.892 340.948 137.892 340.948L125.727 344.868Z" fill="#F9AD9B"/>
<mask id="mask5_893_301311" style="mask-type:luminance" maskUnits="userSpaceOnUse" x="125" y="340" width="17" height="19">
<path d="M125.727 344.868L129.849 357.231C129.849 357.231 136.451 359.911 141.596 356.611C139.116 347.33 137.892 340.948 137.892 340.948L125.727 344.868Z" fill="white"/>
</mask>
<g mask="url(#mask5_893_301311)">
<path d="M128.809 337.698L135.445 361.469L124.837 362.239L120.598 343.762L128.809 337.698Z" fill="#ED806B"/>
</g>
<path d="M110.511 220.804L109.505 200.132C109.472 199.412 109.975 198.758 110.695 198.624L121.303 196.53C122.207 196.346 123.062 197.05 123.062 197.971V219.782C123.062 220.536 122.492 221.172 121.738 221.239L112.12 222.194C111.282 222.278 110.544 221.641 110.511 220.804Z" fill="#F35C55"/>
<path d="M112.155 216.616L111.451 201.958C111.417 201.237 111.92 200.584 112.641 200.45L119.762 199.043C120.667 198.859 121.522 199.562 121.522 200.484V215.929C121.522 216.683 120.952 217.319 120.198 217.386L113.78 218.023C112.942 218.106 112.205 217.47 112.171 216.632L112.155 216.616Z" fill="#FFF7F0"/>
<path d="M75.6572 211.858L75.607 224.975L67.6305 224.774L63.0391 222.227L64.6478 205.476L75.6572 211.858Z" fill="#F9AD9B"/>
<mask id="mask6_893_301311" style="mask-type:luminance" maskUnits="userSpaceOnUse" x="63" y="205" width="13" height="20">
<path d="M75.6572 211.858L75.607 224.975L67.6305 224.774L63.0391 222.227L64.6478 205.476L75.6572 211.858Z" fill="white"/>
</mask>
<g mask="url(#mask6_893_301311)">
<path d="M61.9648 205.677C61.9648 205.677 65.5844 217.235 73.1587 218.04C80.7329 218.844 79.5767 211.188 79.5767 211.188L63.6406 204.487L61.9816 205.693L61.9648 205.677Z" fill="#ED806B"/>
</g>
<path d="M73.8621 183.179C73.8621 183.179 79.8109 182.509 82.0899 189.495C84.3688 196.497 85.2235 198.809 87.9884 199.244C90.7533 199.68 86.011 202.611 85.7764 204.588C85.5418 206.581 86.011 214.22 81.6542 214.572C77.2973 214.924 70.8458 213.215 69.036 211.557C67.2095 209.898 66.0029 208.491 66.0029 208.491C66.0029 208.491 61.6293 204.789 60.9925 200.299C60.3558 195.81 70.8793 182.107 73.8621 183.146V183.179Z" fill="#F9AD9B"/>
<mask id="mask7_893_301311" style="mask-type:luminance" maskUnits="userSpaceOnUse" x="60" y="183" width="29" height="32">
<path d="M73.8621 183.179C73.8621 183.179 79.8109 182.509 82.0899 189.495C84.3688 196.497 85.2235 198.809 87.9884 199.244C90.7533 199.68 86.011 202.611 85.7764 204.588C85.5418 206.581 86.011 214.22 81.6542 214.572C77.2973 214.924 70.8458 213.215 69.036 211.557C67.2095 209.898 66.0029 208.491 66.0029 208.491C66.0029 208.491 61.6293 204.789 60.9925 200.299C60.3558 195.81 70.8793 182.107 73.8621 183.146V183.179Z" fill="white"/>
</mask>
<g mask="url(#mask7_893_301311)">
<path d="M81.3507 184.184C81.3507 184.184 84.5346 189.176 82.6745 190.014C80.7977 190.851 79.4739 189.36 79.4739 189.36C79.4739 189.36 80.7474 194.637 77.5803 194.922C74.4132 195.207 72.5867 194.018 72.5867 194.018C72.5867 194.018 72.8883 202.846 65.9173 204.504C58.9463 206.163 65.3811 209.061 65.3811 209.061L65.0292 212.713C65.0292 212.713 60.5718 213.115 57.2538 208.726C53.9527 204.337 49.1936 194.805 58.3095 189.779C58.6112 181.789 76.8095 176.177 81.3339 184.184H81.3507Z" fill="#ED806B"/>
</g>
<path d="M80.3976 182.643C80.3976 182.643 83.5814 187.635 81.7214 188.473C79.8446 189.31 78.5208 187.819 78.5208 187.819C78.5208 187.819 79.7943 193.096 76.6272 193.381C73.4601 193.666 71.6336 192.476 71.6336 192.476C71.6336 192.476 71.9352 201.304 64.9642 202.963C57.9932 204.621 64.428 207.519 64.428 207.519L64.0761 211.171C64.0761 211.171 59.6186 211.573 56.3007 207.184C52.9995 202.795 48.2405 193.264 57.3564 188.238C57.658 180.247 75.8564 174.636 80.3808 182.643H80.3976Z" fill="#7B393B"/>
<mask id="mask8_893_301311" style="mask-type:luminance" maskUnits="userSpaceOnUse" x="52" y="178" width="31" height="34">
<path d="M80.3976 182.643C80.3976 182.643 83.5814 187.635 81.7214 188.473C79.8446 189.31 78.5208 187.819 78.5208 187.819C78.5208 187.819 79.7943 193.096 76.6272 193.381C73.4601 193.666 71.6336 192.476 71.6336 192.476C71.6336 192.476 71.9352 201.304 64.9642 202.963C57.9932 204.621 64.428 207.519 64.428 207.519L64.0761 211.171C64.0761 211.171 59.6186 211.573 56.3007 207.184C52.9995 202.795 48.2405 193.264 57.3564 188.238C57.658 180.247 75.8564 174.636 80.3808 182.643H80.3976Z" fill="white"/>
</mask>
<g mask="url(#mask8_893_301311)">
<path d="M56.418 210.35C57.9596 210.719 59.7024 210.216 60.8084 209.061C61.4619 208.374 61.8976 207.352 61.5122 206.497C61.2273 205.878 60.5738 205.492 60.2219 204.906C59.6354 203.968 59.937 202.678 60.6408 201.824C61.3446 200.969 62.4003 200.484 63.4225 200.065C64.4447 199.663 65.5171 199.294 66.4053 198.624C67.4777 197.82 68.1983 196.58 68.3994 195.257C68.6507 193.448 67.9972 191.371 69.1199 189.93C69.7064 189.159 70.7621 188.774 71.7005 188.975C72.4211 189.126 73.0411 189.561 73.7282 189.829C74.4152 190.097 75.2866 190.164 75.8061 189.628C76.6272 188.791 75.8898 187.367 76.1244 186.211C76.3423 185.156 77.5656 184.402 78.6045 184.703C79.0737 184.837 79.4926 185.156 79.9618 185.306C81.5203 185.859 83.196 184.653 84.0338 183.229C84.1847 182.961 84.3522 182.676 84.6203 182.559C85.1398 182.341 85.6761 182.844 85.9442 183.33C86.7318 184.72 86.8491 186.446 86.3463 187.953C85.8436 189.461 84.7377 190.751 83.3468 191.555C82.157 192.242 80.6992 192.644 79.9283 193.783C78.7721 195.508 79.811 197.887 79.2748 199.897C78.7553 201.84 76.8282 203.097 74.8844 203.65C72.9573 204.202 70.8962 204.236 68.9524 204.772C68.2821 204.956 67.5615 205.241 67.2096 205.844C66.7572 206.631 67.1258 207.637 67.595 208.407C68.0642 209.178 68.6842 209.948 68.7345 210.853C68.8183 212.009 67.9469 213.064 66.8745 213.516C65.8188 213.969 64.6122 213.935 63.4728 213.801C61.4954 213.55 59.5516 212.997 57.7418 212.143C57.0883 211.841 56.3342 211.288 56.485 210.568" fill="#512024"/>
<path d="M53.1163 201.103C52.0103 198.239 52.7812 194.754 54.9931 192.627C56.4678 191.203 58.5121 190.365 59.7187 188.69C59.8862 188.456 60.0538 188.188 60.0706 187.886C60.1041 187.3 59.5846 186.864 59.2495 186.395C58.6127 185.507 58.5457 184.335 58.7803 183.279C59.0149 182.224 59.5008 181.236 59.903 180.231C60.0035 179.996 60.0873 179.695 59.903 179.51C59.8024 179.393 59.6181 179.359 59.4673 179.343C58.0932 179.242 56.8197 180.13 55.9148 181.169C54.3396 182.995 53.5185 185.34 52.7309 187.618C51.4574 191.337 50.1503 195.29 51.0887 199.11" fill="#512024"/>
</g>
<path d="M77.8761 199.225C78.4832 199.099 78.799 198.145 78.5813 197.094C78.3636 196.043 77.6949 195.293 77.0877 195.419C76.4805 195.545 76.1648 196.499 76.3825 197.55C76.6002 198.6 77.2689 199.351 77.8761 199.225Z" fill="black"/>
<path d="M81.4215 208.24C81.0863 208.24 80.6842 208.24 80.2652 208.173C78.6063 207.988 77.2824 207.385 76.4613 206.464C76.3776 206.363 76.3943 206.229 76.4781 206.146C76.5786 206.062 76.7127 206.079 76.7965 206.162C78.623 208.223 82.4269 207.737 82.4772 207.737C82.5945 207.72 82.7118 207.804 82.7285 207.938C82.7453 208.072 82.6615 208.173 82.5274 208.189C82.4939 208.189 82.0582 208.256 81.4215 208.256V208.24Z" fill="#571E1E"/>
<path d="M61.6981 218.09C62.117 218.241 62.5527 218.375 62.9884 218.408C65.7198 218.676 73.9644 219.614 76.6288 221.206C79.8294 223.132 74.752 222.395 78.0532 224.958C81.3543 227.521 85.4766 243.184 85.4766 243.184L81.2203 285.767L64.0441 308.717C64.0441 308.717 38.0705 287.828 38.4894 275.75C38.9083 263.655 45.0917 232.061 59.7878 221.758C60.0727 218.056 61.1284 217.872 61.7149 218.09H61.6981Z" fill="#FFA800"/>
<mask id="mask9_893_301311" style="mask-type:luminance" maskUnits="userSpaceOnUse" x="38" y="218" width="48" height="91">
<path d="M61.6981 218.09C62.117 218.241 62.5527 218.375 62.9884 218.408C65.7198 218.676 73.9644 219.614 76.6288 221.206C79.8294 223.132 74.752 222.395 78.0532 224.958C81.3543 227.521 85.4766 243.184 85.4766 243.184L81.2203 285.767L64.0441 308.717C64.0441 308.717 38.0705 287.828 38.4894 275.75C38.9083 263.655 45.0917 232.061 59.7878 221.758C60.0727 218.056 61.1284 217.872 61.7149 218.09H61.6981Z" fill="white"/>
</mask>
<g mask="url(#mask9_893_301311)">
<path d="M55.5664 222.747C63.6769 222.362 71.8209 222.831 79.8308 224.154C79.9314 223.149 80.0152 222.06 79.5292 221.172C78.9762 220.184 77.8535 219.665 76.7978 219.263C73.0777 217.839 69.2068 216.8 65.2688 216.197C64.1293 216.029 62.9563 215.879 61.8168 216.046C58.9178 216.482 56.5216 219.112 56.3372 222.027" fill="#123442"/>
<path d="M81.1194 232.497C78.321 230.604 74.249 230.721 70.9646 231.508C67.6801 232.296 64.7309 234.189 62.3011 236.534C60.1897 238.577 58.3296 241.208 58.3799 244.156C58.3967 245.798 59.0167 247.355 59.7037 248.846C64.446 259.015 73.0257 266.855 82.0411 273.539C82.8454 274.142 83.9179 274.745 84.7725 274.225C85.4595 273.807 85.5936 272.885 85.6606 272.081C86.3644 263.052 87.085 254.006 87.7888 244.977C88.0402 241.844 88.2245 238.443 86.5153 235.797C85.3422 233.971 83.2979 232.731 81.1362 232.513" fill="#123442"/>
<path d="M42.3281 296.907C47.8748 298.499 53.723 295.601 58.281 292.049C62.8389 288.498 66.9277 284.126 72.3068 282.015C75.1052 280.909 78.1718 280.49 81.1713 280.792C82.0259 280.876 82.8973 281.027 83.6011 281.529C85.4277 282.819 85.1595 285.617 84.2546 287.66C82.6962 291.145 79.9313 293.942 77.4177 296.823C74.4852 300.191 71.804 303.809 69.4413 307.595C67.5477 310.627 65.5033 314.061 62.0514 314.999C59.4037 315.703 56.555 314.698 54.4101 313.006C52.2651 311.314 50.7067 309.002 49.1986 306.724C47.6904 304.462 46.1823 302.201 44.6574 299.956" fill="#123442"/>
</g>
<path d="M74.8191 287.777C74.8191 287.777 111.718 281.797 118.924 284.896C126.146 287.995 141.597 342.388 141.597 342.388L122.627 352.071L104.697 305.501C104.697 305.501 63.9437 317.931 64.0275 308.734C64.0945 299.537 74.8191 287.777 74.8191 287.777Z" fill="#7B393B"/>
<mask id="mask10_893_301311" style="mask-type:luminance" maskUnits="userSpaceOnUse" x="64" y="284" width="78" height="69">
<path d="M74.8191 287.777C74.8191 287.777 111.718 281.797 118.924 284.896C126.146 287.995 141.597 342.388 141.597 342.388L122.627 352.071L104.697 305.501C104.697 305.501 63.9437 317.931 64.0275 308.734C64.0945 299.537 74.8191 287.777 74.8191 287.777Z" fill="white"/>
</mask>
<g mask="url(#mask10_893_301311)">
<path d="M63.138 300.827C64.1937 301.698 65.5343 301.782 66.8414 301.748C68.6009 301.715 70.3604 301.564 72.1031 301.346C75.4713 300.928 78.806 300.224 82.124 299.504C85.5759 298.75 89.0279 297.946 92.5134 297.359C95.6805 296.823 98.9147 296.405 102.132 296.572C104.964 296.723 107.913 297.343 110.259 299.018C112.907 300.911 114.063 303.926 114.951 306.942C116.996 313.793 119.191 320.594 121.704 327.295C123.095 330.997 124.57 334.666 126.112 338.301C126.882 340.127 127.67 341.97 128.508 343.762C129.228 345.286 130.066 346.777 131.357 347.9C131.524 348.05 131.776 347.799 131.608 347.648C130.385 346.593 129.597 345.203 128.91 343.762C128.156 342.187 127.469 340.562 126.782 338.954C125.358 335.621 123.983 332.27 122.693 328.886C120.113 322.169 117.817 315.351 115.772 308.449C114.918 305.534 114.13 302.385 112.019 300.09C110.243 298.147 107.746 297.075 105.199 296.589C102.3 296.019 99.3336 296.153 96.4179 296.472C93.0329 296.84 89.6982 297.51 86.3803 298.231C82.5596 299.051 78.7725 299.973 74.9184 300.609C72.9075 300.944 70.8966 301.212 68.8522 301.33C67.1263 301.447 64.8473 301.782 63.4229 300.593C63.2553 300.442 62.9872 300.693 63.1716 300.844L63.138 300.827Z" fill="#F8C066"/>
<path d="M66.8235 295.148C67.7284 295.651 68.7003 296.019 69.7225 296.17C70.8117 296.338 71.9177 296.22 73.0069 296.204C74.1129 296.187 75.3194 296.304 76.2076 297.024C77.1292 297.778 77.28 299.018 77.3973 300.123C77.4141 300.358 77.7827 300.358 77.7492 300.123C77.6487 299.135 77.5314 298.08 76.9114 297.259C76.3416 296.488 75.42 296.086 74.4816 295.935C73.2583 295.734 72.0183 295.935 70.795 295.919C69.4377 295.885 68.1474 295.5 66.9743 294.847C66.7733 294.729 66.5889 295.048 66.79 295.148H66.8235Z" fill="#F8C066"/>
<path d="M115.305 345.119L141.597 333.61L145.618 345.119L119.846 356.627L115.305 345.119Z" fill="#F8C066"/>
</g>
<path d="M95.4298 256.25L107.998 264.693L135.211 248.009L140.758 233.702L149.321 224.12C149.857 223.534 150.812 223.668 151.148 224.388V224.422C151.315 224.774 151.298 225.176 151.081 225.494L145.735 233.702C145.735 233.702 148.5 234.004 149.254 237.924C150.008 241.844 149.254 242.665 149.254 242.665C149.254 242.665 152.79 246.786 147.494 248.226C144.864 252.716 137.658 255.229 137.658 255.229C137.658 255.229 117.868 277.492 110.042 276.872C102.216 276.252 84.2695 266.771 84.2695 266.771L95.3963 256.267L95.4298 256.25Z" fill="#F9AD9B"/>
<mask id="mask11_893_301311" style="mask-type:luminance" maskUnits="userSpaceOnUse" x="84" y="223" width="68" height="54">
<path d="M95.4298 256.25L107.998 264.693L135.211 248.009L140.758 233.702L149.321 224.12C149.857 223.534 150.812 223.668 151.148 224.388V224.422C151.315 224.774 151.298 225.176 151.081 225.494L145.735 233.702C145.735 233.702 148.5 234.004 149.254 237.924C150.008 241.844 149.254 242.665 149.254 242.665C149.254 242.665 152.79 246.786 147.494 248.226C144.864 252.716 137.658 255.229 137.658 255.229C137.658 255.229 117.868 277.492 110.042 276.872C102.216 276.252 84.2695 266.771 84.2695 266.771L95.3963 256.267L95.4298 256.25Z" fill="white"/>
</mask>
<g mask="url(#mask11_893_301311)">
<path d="M89.8984 256.083C94.5067 260.02 99.5338 263.504 104.846 266.436C106.89 267.575 109.002 268.63 111.281 269.166C112.186 269.384 113.141 269.518 114.029 269.267C114.967 268.999 115.721 268.345 116.459 267.709C118.503 265.916 120.547 264.141 122.575 262.348C126.647 258.78 130.719 255.212 134.64 251.459C135.377 250.756 136.098 250.036 136.651 249.198C137.405 248.059 137.807 246.719 138.193 245.412C139.299 241.693 140.421 237.924 140.622 234.038C140.656 233.485 140.539 232.764 139.986 232.664C139.734 232.614 139.466 232.748 139.248 232.882C137.254 234.138 136.165 236.383 135.026 238.443C131.121 245.429 125.357 251.359 118.486 255.48C116.995 256.368 115.42 257.189 113.71 257.39C109.94 257.842 106.538 255.363 102.969 254.089C99.1484 252.733 94.8586 252.8 91.0882 254.257" fill="#ED806B"/>
<path d="M152.184 222.462C150.726 225.243 149.268 228.04 147.341 230.503C146.52 231.558 145.565 232.63 145.414 233.954C147.827 233.351 149.804 231.474 150.961 229.263C152.117 227.052 152.536 224.522 152.603 222.026" fill="#ED806B"/>
<path d="M147.477 249.114C147.912 248.26 147.477 246.953 148.314 246.484C148.8 246.216 149.471 246.518 149.672 247.054C149.873 247.59 149.621 248.193 149.169 248.528C148.717 248.863 148.113 248.913 147.577 248.796" fill="#ED806B"/>
<path d="M149.973 242.329C148.784 242.246 147.56 242.413 146.438 242.849C146.873 241.04 147.46 239.046 149.068 238.108C149.202 238.024 149.37 237.957 149.538 237.974C149.688 237.991 149.822 238.091 149.94 238.209C150.845 239.13 150.61 240.671 150.124 241.877" fill="#ED806B"/>
</g>
<path d="M86.1484 246.049L104.296 227.303C104.296 227.303 108 216.9 107.497 213.701C107.112 211.322 112.541 209.747 115.356 209.094C116.194 208.893 116.982 209.53 116.982 210.384C116.982 210.87 116.714 211.322 116.278 211.556L112.44 213.6C112.44 213.6 116.362 218.341 114.703 221.742C118.523 220.82 120.266 221.541 120.266 221.541L109.139 235.763L98.0796 256.619L86.1484 246.065V246.049Z" fill="#F49987"/>
<mask id="mask12_893_301311" style="mask-type:luminance" maskUnits="userSpaceOnUse" x="86" y="209" width="35" height="48">
<path d="M86.1484 246.049L104.296 227.303C104.296 227.303 108 216.9 107.497 213.701C107.112 211.322 112.541 209.747 115.356 209.094C116.194 208.893 116.982 209.53 116.982 210.384C116.982 210.87 116.714 211.322 116.278 211.556L112.44 213.6C112.44 213.6 116.362 218.341 114.703 221.742C118.523 220.82 120.266 221.541 120.266 221.541L109.139 235.763L98.0796 256.619L86.1484 246.065V246.049Z" fill="white"/>
</mask>
<g mask="url(#mask12_893_301311)">
<path d="M119.129 224.506C118.458 226.214 116.33 227.169 114.604 226.549C112.878 225.93 111.839 223.836 112.409 222.093C112.761 221.004 113.632 220.016 113.448 218.877C113.364 218.391 113.096 217.972 112.794 217.587C112.024 216.615 111.018 215.845 110.398 214.773C109.795 213.701 109.761 212.126 110.767 211.422C111.152 211.154 111.621 211.054 112.074 210.987C113.482 210.736 114.99 210.618 116.163 209.814C116.766 209.395 117.47 208.792 118.107 209.144C118.525 209.379 118.643 209.932 118.66 210.417C118.693 211.707 118.391 213.014 117.771 214.136C117.118 215.342 116.079 216.683 116.665 217.939C116.934 218.508 117.486 218.877 118.006 219.229C118.676 219.664 119.347 220.1 120.017 220.535C120.318 220.72 120.654 221.004 120.587 221.34C120.553 221.524 120.419 221.658 120.302 221.792C119.715 222.395 119.145 223.015 118.559 223.618" fill="#ED806B"/>
<path d="M94.7969 256.234C97.0591 250.287 101.617 245.496 104.65 239.901C106.142 237.137 107.666 233.836 110.716 233.15C110.582 235.277 109.677 237.271 108.772 239.197C106.426 244.189 104.03 249.164 101.399 254.006C100.846 255.028 100.243 256.066 99.2711 256.686C98.2991 257.289 96.8245 257.289 96.1375 256.351" fill="#ED806B"/>
</g>
<path d="M78.5401 236.148L98.7325 257.272L84.1035 271.696L67.3798 257.674C66.4917 256.921 65.7711 255.983 65.2852 254.927C63.3916 250.823 59.8391 240.47 68.8042 234.859C71.921 232.899 76.0098 233.485 78.5569 236.148H78.5401Z" fill="white"/>
<mask id="mask13_893_301311" style="mask-type:luminance" maskUnits="userSpaceOnUse" x="62" y="233" width="37" height="39">
<path d="M78.5401 236.148L98.7325 257.272L84.1035 271.696L67.3798 257.674C66.4917 256.921 65.7711 255.983 65.2852 254.927C63.3916 250.823 59.8391 240.47 68.8042 234.859C71.921 232.899 76.0098 233.485 78.5569 236.148H78.5401Z" fill="white"/>
</mask>
<g mask="url(#mask13_893_301311)">
<path d="M65.6215 235.512C65.6215 235.512 61.1306 246.367 76.631 256.602C92.1314 266.838 91.9806 269.568 91.9806 269.568L80.8538 278.798L58.2148 261.544L59.3543 240.319L65.6383 235.512H65.6215Z" fill="#DCECFF"/>
<path d="M97.7373 250.756L73.418 273.072L73.7239 273.405L98.0432 251.089L97.7373 250.756Z" fill="#22536B"/>
<path d="M99.8388 252.037L75.5195 274.353L75.8255 274.686L100.145 252.37L99.8388 252.037Z" fill="#22536B"/>
</g>
<path d="M66.6458 206.323C67.4152 204.67 66.25 202.499 64.0433 201.472C61.8367 200.445 59.4241 200.952 58.6548 202.605C57.8854 204.257 59.0506 206.429 61.2572 207.456C63.4639 208.482 65.8765 207.975 66.6458 206.323Z" fill="#F9AD9B"/>
<path d="M65.5354 205.82C65.9064 205.023 65.3501 203.979 64.2929 203.487C63.2357 202.995 62.0779 203.242 61.7069 204.039C61.3359 204.836 61.8922 205.88 62.9494 206.372C64.0066 206.864 65.1643 206.617 65.5354 205.82Z" fill="#F99379"/>
<path d="M75.1858 204.537C77.4069 204.537 79.2075 203.81 79.2075 202.913C79.2075 202.015 77.4069 201.288 75.1858 201.288C72.9646 201.288 71.1641 202.015 71.1641 202.913C71.1641 203.81 72.9646 204.537 75.1858 204.537Z" fill="#F99379"/>
<path d="M73.1422 203.164C73.6974 203.164 74.1476 202.909 74.1476 202.594C74.1476 202.28 73.6974 202.025 73.1422 202.025C72.5869 202.025 72.1367 202.28 72.1367 202.594C72.1367 202.909 72.5869 203.164 73.1422 203.164Z" fill="#FFD0CA"/>
<path d="M18.3164 330.026L23.4106 369.828H26.4436L27.8177 332.773L18.3164 330.026Z" fill="#0038FF"/>
<path d="M90.4727 325.704L95.969 369.828H99.2702L101.75 323.291L90.4727 325.704Z" fill="#0038FF"/>
<path d="M30.5632 245.965C30.5632 245.965 32.4903 229.062 16.5542 227.136C0.61808 225.209 7.48853 240.705 7.48853 240.705L30.58 245.965H30.5632Z" fill="#0038FF"/>
<path d="M16.5387 227.136C16.5387 227.136 6.92004 228.091 9.40011 232.982C11.8802 237.857 33.0445 232.111 38.5409 245.965C44.0373 259.835 35.7927 284.293 57.51 285.114C79.2274 285.935 100.392 278.313 102.855 299.855C105.318 321.398 113.295 330.729 74.5521 329.908C35.8095 329.087 22.8729 345.018 17.3765 332.924C11.8802 320.829 16.5219 303.457 13.2543 287.978C10.0369 272.701 8.579 257.473 2.26154 244.926C-4.05593 232.362 3.63563 223.3 16.5554 227.152L16.5387 227.136Z" fill="url(#paint20_linear_893_301311)"/>
<mask id="mask14_893_301311" style="mask-type:luminance" maskUnits="userSpaceOnUse" x="0" y="226" width="106" height="112">
<path d="M16.5387 227.136C16.5387 227.136 6.92004 228.091 9.40011 232.982C11.8802 237.857 33.0445 232.111 38.5409 245.965C44.0373 259.835 35.7927 284.293 57.51 285.114C79.2274 285.935 100.392 278.313 102.855 299.855C105.318 321.398 113.295 330.729 74.5521 329.908C35.8095 329.087 22.8729 345.018 17.3765 332.924C11.8802 320.829 16.5219 303.457 13.2543 287.978C10.0369 272.701 8.579 257.473 2.26154 244.926C-4.05593 232.362 3.63563 223.3 16.5554 227.152L16.5387 227.136Z" fill="white"/>
</mask>
<g mask="url(#mask14_893_301311)">
<path d="M20.2261 218.509C15.6178 218.827 10.842 219.262 6.83705 221.557C2.83208 223.852 -0.16746 228.576 0.988788 233.049C2.22882 237.823 7.4068 240.37 12.1826 241.526C16.9752 242.682 22.1867 243.201 26.0241 246.3C29.9117 249.449 31.5037 254.676 31.8723 259.651C32.241 264.643 31.6042 269.652 31.9896 274.644C32.6767 283.238 37.1006 292.083 44.9932 295.567C51.7966 298.582 59.6055 297.158 67.0289 296.488C74.4356 295.818 82.898 296.405 87.7576 302.033C91.8631 306.791 92.1145 313.76 91.1928 319.974C90.6901 323.459 89.9025 327.077 91.0085 330.411C93.1199 336.777 101.683 339.139 107.866 336.509C114.05 333.878 118.055 327.798 120.669 321.616C124.54 312.419 126.132 302.117 124.255 292.317C122.395 282.517 116.898 273.27 108.654 267.642C96.2703 259.216 80.1163 259.835 65.4873 256.669C61.851 255.882 57.98 254.642 55.8351 251.61C53.5729 248.394 53.8578 244.122 53.3718 240.219C52.3831 232.429 47.7414 225.193 41.0553 221.072C34.3691 216.951 25.823 216.013 18.4163 218.609" fill="#94B0FF"/>
</g>
<path d="M454.404 384C504.99 384 545.998 377.22 545.998 368.856C545.998 360.493 504.99 353.713 454.404 353.713C403.817 353.713 362.809 360.493 362.809 368.856C362.809 377.22 403.817 384 454.404 384Z" fill="url(#paint21_linear_893_301311)"/>
<path d="M471.196 352.071C471.196 352.071 468.934 356.845 468.314 360.43C460.556 360.43 454.087 367.583 458.83 368.789C462.667 369.761 472.554 368.471 476.207 367.935C477.095 367.801 477.916 367.399 478.57 366.779L485.39 360.212C487.116 358.554 487.149 355.823 485.49 354.115L479.743 348.185L471.196 352.054V352.071Z" fill="#9A132F"/>
<mask id="mask15_893_301311" style="mask-type:luminance" maskUnits="userSpaceOnUse" x="457" y="348" width="30" height="22">
<path d="M471.196 352.071C471.196 352.071 468.934 356.845 468.314 360.43C460.556 360.43 454.087 367.583 458.83 368.789C462.667 369.761 472.554 368.471 476.207 367.935C477.095 367.801 477.916 367.399 478.57 366.779L485.39 360.212C487.116 358.554 487.149 355.823 485.49 354.115L479.743 348.185L471.196 352.054V352.071Z" fill="white"/>
</mask>
<g mask="url(#mask15_893_301311)">
<path d="M487.435 353.696C485.759 355.773 484.352 358.052 482.642 360.095C480.933 362.139 478.855 363.998 476.325 364.836C474.984 365.272 473.577 365.422 472.186 365.556C467.192 366.009 462.199 366.26 457.188 366.293C456.769 366.293 456.334 366.293 455.948 366.494C455.177 366.88 454.909 367.935 455.211 368.739C455.513 369.543 456.233 370.146 456.987 370.565C459.266 371.838 461.998 371.922 464.612 371.905C469.538 371.889 474.649 371.604 478.989 369.258C484.72 366.159 488.072 359.995 490.25 353.864" fill="#F8C066"/>
</g>
<path d="M476.542 339.507L480.262 349.592L470.359 354.131L465.164 345.27L476.542 339.507Z" fill="#F9AD9B"/>
<mask id="mask16_893_301311" style="mask-type:luminance" maskUnits="userSpaceOnUse" x="465" y="339" width="16" height="16">
<path d="M476.542 339.507L480.262 349.592L470.359 354.131L465.164 345.27L476.542 339.507Z" fill="white"/>
</mask>
<g mask="url(#mask16_893_301311)">
<path d="M465.516 339.675L477.949 355.421L485.825 346.811L480.262 337.849L465.516 339.675Z" fill="#ED806B"/>
</g>
<path d="M459.23 304.479L479.439 341.166L463.352 349.407L435.938 311.28C435.938 311.28 443.562 293.758 459.23 304.479Z" fill="#0038FF"/>
<mask id="mask17_893_301311" style="mask-type:luminance" maskUnits="userSpaceOnUse" x="435" y="301" width="45" height="49">
<path d="M459.23 304.479L479.439 341.166L463.352 349.407L435.938 311.28C435.938 311.28 443.562 293.758 459.23 304.479Z" fill="white"/>
</mask>
<g mask="url(#mask17_893_301311)">
<path d="M445.342 299.305L445.141 299.425L472.605 345.758L472.807 345.638L445.342 299.305Z" fill="#F8C066"/>
<path d="M480.261 332.404L455.996 344.365L462.045 354.131L485.221 340.948L480.261 332.404Z" fill="#F8C066"/>
</g>
<path d="M407.484 352.071C407.484 352.071 405.842 358.035 397.38 358.252C388.934 358.47 383.371 358.872 383.572 362.373C383.773 365.874 392.436 368.756 402.122 367.734C411.808 366.695 416.131 371.436 416.969 366.494C417.807 361.553 415.93 353.093 415.93 353.093L407.484 352.054V352.071Z" fill="#9A132F"/>
<mask id="mask18_893_301311" style="mask-type:luminance" maskUnits="userSpaceOnUse" x="383" y="352" width="35" height="17">
<path d="M407.484 352.071C407.484 352.071 405.842 358.035 397.38 358.252C388.934 358.47 383.371 358.872 383.572 362.373C383.773 365.874 392.436 368.756 402.122 367.734C411.808 366.695 416.131 371.436 416.969 366.494C417.807 361.553 415.93 353.093 415.93 353.093L407.484 352.054V352.071Z" fill="white"/>
</mask>
<g mask="url(#mask18_893_301311)">
<path d="M418.043 363.747C417.859 365.322 416.2 366.36 414.625 366.444C413.049 366.511 411.541 365.858 410.1 365.204C408.659 364.551 407.151 363.898 405.576 363.981C403.314 364.099 401.42 365.673 399.225 366.243C396.376 366.98 393.393 365.908 390.813 364.501C388.232 363.094 385.836 361.318 383.037 360.43C382.233 360.179 381.161 360.095 380.742 360.832C380.44 361.385 380.708 362.072 381.01 362.625C384.361 368.756 391.785 372.391 398.689 371.252C400.833 370.9 402.962 370.129 405.14 370.297C406.564 370.414 407.905 370.917 409.296 371.235C411.675 371.788 414.323 371.754 416.384 370.448C418.445 369.141 419.652 366.327 418.579 364.132" fill="#F8C066"/>
</g>
<path d="M420.271 344.868L416.149 357.231C416.149 357.231 409.547 359.911 404.402 356.611C406.882 347.33 408.106 340.948 408.106 340.948L420.271 344.868Z" fill="#F9AD9B"/>
<mask id="mask19_893_301311" style="mask-type:luminance" maskUnits="userSpaceOnUse" x="404" y="340" width="17" height="19">
<path d="M420.271 344.868L416.149 357.231C416.149 357.231 409.547 359.911 404.402 356.611C406.882 347.33 408.106 340.948 408.106 340.948L420.271 344.868Z" fill="white"/>
</mask>
<g mask="url(#mask19_893_301311)">
<path d="M417.187 337.698L410.551 361.469L421.158 362.239L425.398 343.762L417.187 337.698Z" fill="#ED806B"/>
</g>
<path d="M435.5 220.804L436.506 200.132C436.539 199.412 436.037 198.758 435.316 198.624L424.709 196.53C423.804 196.346 422.949 197.05 422.949 197.971V219.782C422.949 220.536 423.519 221.172 424.273 221.239L433.892 222.194C434.73 222.278 435.467 221.641 435.5 220.804Z" fill="#F35C55"/>
<path d="M433.859 216.616L434.563 201.958C434.597 201.237 434.094 200.584 433.373 200.45L426.252 199.043C425.347 198.859 424.492 199.562 424.492 200.484V215.929C424.492 216.683 425.062 217.319 425.816 217.386L432.234 218.023C433.072 218.106 433.809 217.47 433.843 216.632L433.859 216.616Z" fill="#FFF7F0"/>
<path d="M470.34 211.858L470.39 224.975L478.367 224.774L482.958 222.227L481.366 205.476L470.34 211.858Z" fill="#F9AD9B"/>
<mask id="mask20_893_301311" style="mask-type:luminance" maskUnits="userSpaceOnUse" x="470" y="205" width="13" height="20">
<path d="M470.34 211.858L470.39 224.975L478.367 224.774L482.958 222.227L481.366 205.476L470.34 211.858Z" fill="white"/>
</mask>
<g mask="url(#mask20_893_301311)">
<path d="M484.031 205.677C484.031 205.677 480.411 217.235 472.837 218.04C465.263 218.844 466.419 211.188 466.419 211.188L482.355 204.487L484.014 205.693L484.031 205.677Z" fill="#ED806B"/>
</g>
<path d="M472.134 183.179C472.134 183.179 466.185 182.509 463.906 189.495C461.627 196.497 460.773 198.809 458.008 199.244C455.243 199.68 459.985 202.611 460.22 204.588C460.454 206.581 459.985 214.22 464.342 214.572C468.699 214.924 475.15 213.215 476.96 211.557C478.786 209.898 479.993 208.491 479.993 208.491C479.993 208.491 484.367 204.789 485.003 200.299C485.64 195.81 475.117 182.107 472.134 183.146V183.179Z" fill="#F9AD9B"/>
<mask id="mask21_893_301311" style="mask-type:luminance" maskUnits="userSpaceOnUse" x="457" y="183" width="29" height="32">
<path d="M472.134 183.179C472.134 183.179 466.185 182.509 463.906 189.495C461.627 196.497 460.773 198.809 458.008 199.244C455.243 199.68 459.985 202.611 460.22 204.588C460.454 206.581 459.985 214.22 464.342 214.572C468.699 214.924 475.15 213.215 476.96 211.557C478.786 209.898 479.993 208.491 479.993 208.491C479.993 208.491 484.367 204.789 485.003 200.299C485.64 195.81 475.117 182.107 472.134 183.146V183.179Z" fill="white"/>
</mask>
<g mask="url(#mask21_893_301311)">
<path d="M464.641 184.184C464.641 184.184 461.458 189.176 463.318 190.014C465.194 190.851 466.518 189.36 466.518 189.36C466.518 189.36 465.245 194.637 468.412 194.922C471.579 195.207 473.405 194.018 473.405 194.018C473.405 194.018 473.104 202.846 480.075 204.504C487.046 206.163 480.611 209.061 480.611 209.061L480.963 212.713C480.963 212.713 485.42 213.115 488.738 208.726C492.039 204.337 496.799 194.805 487.683 189.779C487.381 181.789 469.183 176.177 464.658 184.184H464.641Z" fill="#ED806B"/>
</g>
<path d="M465.598 182.643C465.598 182.643 462.415 187.635 464.275 188.473C466.151 189.31 467.475 187.819 467.475 187.819C467.475 187.819 466.202 193.096 469.369 193.381C472.536 193.666 474.362 192.476 474.362 192.476C474.362 192.476 474.061 201.304 481.032 202.963C488.003 204.621 481.568 207.519 481.568 207.519L481.92 211.171C481.92 211.171 486.377 211.573 489.695 207.184C492.996 202.795 497.756 193.264 488.64 188.238C488.338 180.247 470.14 174.636 465.615 182.643H465.598Z" fill="#7B393B"/>
<mask id="mask22_893_301311" style="mask-type:luminance" maskUnits="userSpaceOnUse" x="463" y="178" width="31" height="34">
<path d="M465.598 182.643C465.598 182.643 462.415 187.635 464.275 188.473C466.151 189.31 467.475 187.819 467.475 187.819C467.475 187.819 466.202 193.096 469.369 193.381C472.536 193.666 474.362 192.476 474.362 192.476C474.362 192.476 474.061 201.304 481.032 202.963C488.003 204.621 481.568 207.519 481.568 207.519L481.92 211.171C481.92 211.171 486.377 211.573 489.695 207.184C492.996 202.795 497.756 193.264 488.64 188.238C488.338 180.247 470.14 174.636 465.615 182.643H465.598Z" fill="white"/>
</mask>
<g mask="url(#mask22_893_301311)">
<path d="M489.578 210.35C488.037 210.719 486.294 210.216 485.188 209.061C484.535 208.374 484.099 207.352 484.484 206.497C484.769 205.878 485.423 205.492 485.775 204.906C486.361 203.968 486.059 202.678 485.356 201.824C484.652 200.969 483.596 200.484 482.574 200.065C481.552 199.663 480.479 199.294 479.591 198.624C478.519 197.82 477.798 196.58 477.597 195.257C477.346 193.448 477.999 191.371 476.876 189.93C476.29 189.159 475.234 188.774 474.296 188.975C473.575 189.126 472.955 189.561 472.268 189.829C471.581 190.097 470.71 190.164 470.19 189.628C469.369 188.791 470.107 187.367 469.872 186.211C469.654 185.156 468.431 184.402 467.392 184.703C466.923 184.837 466.504 185.156 466.035 185.306C464.476 185.859 462.8 184.653 461.963 183.229C461.812 182.961 461.644 182.676 461.376 182.559C460.857 182.341 460.32 182.844 460.052 183.33C459.265 184.72 459.147 186.446 459.65 187.953C460.153 189.461 461.259 190.751 462.65 191.555C463.839 192.242 465.297 192.644 466.068 193.783C467.224 195.508 466.185 197.887 466.722 199.897C467.241 201.84 469.168 203.097 471.112 203.65C473.039 204.202 475.1 204.236 477.044 204.772C477.714 204.956 478.435 205.241 478.787 205.844C479.239 206.631 478.871 207.637 478.401 208.407C477.932 209.178 477.312 209.948 477.262 210.853C477.178 212.009 478.05 213.064 479.122 213.516C480.178 213.969 481.384 213.935 482.524 213.801C484.501 213.55 486.445 212.997 488.255 212.143C488.908 211.841 489.662 211.288 489.511 210.568" fill="#512024"/>
<path d="M492.882 201.103C493.988 198.239 493.217 194.754 491.005 192.627C489.53 191.203 487.486 190.365 486.279 188.69C486.112 188.456 485.944 188.188 485.927 187.886C485.894 187.3 486.413 186.864 486.748 186.395C487.385 185.507 487.452 184.335 487.218 183.279C486.983 182.224 486.497 181.236 486.095 180.231C485.994 179.996 485.911 179.695 486.095 179.51C486.195 179.393 486.38 179.359 486.531 179.343C487.905 179.242 489.178 180.13 490.083 181.169C491.658 182.995 492.479 185.34 493.267 187.618C494.54 191.337 495.848 195.29 494.909 199.11" fill="#512024"/>
</g>
<path d="M469.609 197.541C469.826 196.49 469.511 195.537 468.903 195.411C468.296 195.285 467.628 196.035 467.41 197.086C467.192 198.137 467.508 199.091 468.115 199.217C468.722 199.342 469.391 198.592 469.609 197.541Z" fill="black"/>
<path d="M464.575 208.24C464.91 208.24 465.312 208.24 465.731 208.173C467.39 207.988 468.714 207.385 469.535 206.464C469.619 206.363 469.602 206.229 469.518 206.146C469.418 206.062 469.284 206.079 469.2 206.162C467.373 208.223 463.569 207.737 463.519 207.737C463.402 207.72 463.285 207.804 463.268 207.938C463.251 208.072 463.335 208.173 463.469 208.189C463.502 208.189 463.938 208.256 464.575 208.256V208.24Z" fill="#571E1E"/>
<path d="M484.298 218.09C483.879 218.241 483.443 218.375 483.008 218.408C480.276 218.676 472.032 219.614 469.367 221.206C466.167 223.132 471.244 222.395 467.943 224.958C464.642 227.521 460.52 243.184 460.52 243.184L464.776 285.767L481.952 308.717C481.952 308.717 507.926 287.828 507.507 275.75C507.088 263.655 500.904 232.061 486.208 221.758C485.923 218.056 484.868 217.872 484.281 218.09H484.298Z" fill="#0038FF"/>
<mask id="mask23_893_301311" style="mask-type:luminance" maskUnits="userSpaceOnUse" x="460" y="218" width="48" height="91">
<path d="M484.298 218.09C483.879 218.241 483.443 218.375 483.008 218.408C480.276 218.676 472.032 219.614 469.367 221.206C466.167 223.132 471.244 222.395 467.943 224.958C464.642 227.521 460.52 243.184 460.52 243.184L464.776 285.767L481.952 308.717C481.952 308.717 507.926 287.828 507.507 275.75C507.088 263.655 500.904 232.061 486.208 221.758C485.923 218.056 484.868 217.872 484.281 218.09H484.298Z" fill="white"/>
</mask>
<g mask="url(#mask23_893_301311)">
<path d="M490.432 222.747C482.321 222.362 474.177 222.831 466.167 224.154C466.067 223.149 465.983 222.06 466.469 221.172C467.022 220.184 468.144 219.665 469.2 219.263C472.92 217.839 476.791 216.8 480.729 216.197C481.869 216.029 483.042 215.879 484.181 216.046C487.08 216.482 489.476 219.112 489.661 222.027" fill="#123442"/>
<path d="M464.893 232.497C467.692 230.604 471.764 230.721 475.048 231.508C478.332 232.296 481.282 234.189 483.712 236.534C485.823 238.577 487.683 241.208 487.633 244.156C487.616 245.798 486.996 247.355 486.309 248.846C481.567 259.015 472.987 266.855 463.972 273.539C463.167 274.142 462.095 274.745 461.24 274.225C460.553 273.807 460.419 272.885 460.352 272.081C459.648 263.052 458.928 254.006 458.224 244.977C457.973 241.844 457.788 238.443 459.497 235.797C460.67 233.971 462.715 232.731 464.877 232.513" fill="#123442"/>
<path d="M503.688 296.907C498.141 298.499 492.293 295.601 487.735 292.049C483.177 288.498 479.088 284.126 473.709 282.015C470.911 280.909 467.844 280.49 464.845 280.792C463.99 280.876 463.119 281.027 462.415 281.529C460.588 282.819 460.856 285.617 461.761 287.66C463.32 291.145 466.085 293.942 468.598 296.823C471.531 300.191 474.212 303.809 476.575 307.595C478.468 310.627 480.513 314.061 483.965 314.999C486.612 315.703 489.461 314.698 491.606 313.006C493.751 311.314 495.309 309.002 496.817 306.724C498.326 304.462 499.834 302.201 501.359 299.956" fill="#123442"/>
</g>
<path d="M471.195 287.777C471.195 287.777 434.296 281.797 427.09 284.896C419.868 287.995 404.418 342.388 404.418 342.388L423.387 352.071L441.317 305.501C441.317 305.501 482.071 317.931 481.987 308.734C481.92 299.537 471.195 287.777 471.195 287.777Z" fill="#0038FF"/>
<mask id="mask24_893_301311" style="mask-type:luminance" maskUnits="userSpaceOnUse" x="404" y="284" width="78" height="69">
<path d="M471.195 287.777C471.195 287.777 434.296 281.797 427.09 284.896C419.868 287.995 404.418 342.388 404.418 342.388L423.387 352.071L441.317 305.501C441.317 305.501 482.071 317.931 481.987 308.734C481.92 299.537 471.195 287.777 471.195 287.777Z" fill="white"/>
</mask>
<g mask="url(#mask24_893_301311)">
<path d="M482.857 300.827C481.802 301.698 480.461 301.782 479.154 301.748C477.394 301.715 475.635 301.564 473.892 301.346C470.524 300.928 467.189 300.224 463.871 299.504C460.419 298.75 456.967 297.946 453.482 297.359C450.315 296.823 447.081 296.405 443.863 296.572C441.031 296.723 438.082 297.343 435.736 299.018C433.088 300.911 431.932 303.926 431.044 306.942C429 313.793 426.804 320.594 424.291 327.295C422.9 330.997 421.425 334.666 419.884 338.301C419.113 340.127 418.325 341.97 417.487 343.762C416.767 345.286 415.929 346.777 414.639 347.9C414.471 348.05 414.22 347.799 414.387 347.648C415.611 346.593 416.398 345.203 417.085 343.762C417.839 342.187 418.526 340.562 419.213 338.954C420.638 335.621 422.012 332.27 423.302 328.886C425.883 322.169 428.178 315.351 430.223 308.449C431.077 305.534 431.865 302.385 433.976 300.09C435.753 298.147 438.25 297.075 440.797 296.589C443.696 296.019 446.662 296.153 449.577 296.472C452.962 296.84 456.297 297.51 459.615 298.231C463.436 299.051 467.223 299.973 471.077 300.609C473.088 300.944 475.099 301.212 477.143 301.33C478.869 301.447 481.148 301.782 482.572 300.593C482.74 300.442 483.008 300.693 482.824 300.844L482.857 300.827Z" fill="#F8C066"/>
<path d="M479.17 295.148C478.265 295.651 477.293 296.019 476.271 296.17C475.182 296.338 474.076 296.22 472.987 296.204C471.881 296.187 470.674 296.304 469.786 297.024C468.864 297.778 468.714 299.018 468.596 300.123C468.58 300.358 468.211 300.358 468.244 300.123C468.345 299.135 468.462 298.08 469.082 297.259C469.652 296.488 470.574 296.086 471.512 295.935C472.735 295.734 473.975 295.935 475.199 295.919C476.556 295.885 477.846 295.5 479.019 294.847C479.22 294.729 479.405 295.048 479.204 295.148H479.17Z" fill="#F8C066"/>
<path d="M430.693 345.119L404.401 333.61L400.379 345.119L426.151 356.627L430.693 345.119Z" fill="#F8C066"/>
</g>
<path d="M450.569 256.25L438.001 264.693L410.787 248.009L405.24 233.702L396.678 224.12C396.141 223.534 395.186 223.668 394.851 224.388V224.422C394.683 224.774 394.7 225.176 394.918 225.494L400.264 233.702C400.264 233.702 397.499 234.004 396.745 237.924C395.99 241.844 396.745 242.665 396.745 242.665C396.745 242.665 393.209 246.786 398.504 248.226C401.135 252.716 408.341 255.229 408.341 255.229C408.341 255.229 428.131 277.492 435.956 276.872C443.782 276.252 461.729 266.771 461.729 266.771L450.602 256.267L450.569 256.25Z" fill="#F9AD9B"/>
<mask id="mask25_893_301311" style="mask-type:luminance" maskUnits="userSpaceOnUse" x="394" y="223" width="68" height="54">
<path d="M450.569 256.25L438.001 264.693L410.787 248.009L405.24 233.702L396.678 224.12C396.141 223.534 395.186 223.668 394.851 224.388V224.422C394.683 224.774 394.7 225.176 394.918 225.494L400.264 233.702C400.264 233.702 397.499 234.004 396.745 237.924C395.99 241.844 396.745 242.665 396.745 242.665C396.745 242.665 393.209 246.786 398.504 248.226C401.135 252.716 408.341 255.229 408.341 255.229C408.341 255.229 428.131 277.492 435.956 276.872C443.782 276.252 461.729 266.771 461.729 266.771L450.602 256.267L450.569 256.25Z" fill="white"/>
</mask>
<g mask="url(#mask25_893_301311)">
<path d="M456.1 256.083C451.492 260.02 446.465 263.504 441.153 266.436C439.109 267.575 436.997 268.63 434.718 269.166C433.813 269.384 432.858 269.518 431.97 269.267C431.032 268.999 430.278 268.345 429.54 267.709C427.496 265.916 425.451 264.141 423.424 262.348C419.352 258.78 415.28 255.212 411.359 251.459C410.621 250.756 409.901 250.036 409.348 249.198C408.594 248.059 408.192 246.719 407.806 245.412C406.7 241.693 405.577 237.924 405.376 234.038C405.343 233.485 405.46 232.764 406.013 232.664C406.264 232.614 406.533 232.748 406.75 232.882C408.745 234.138 409.834 236.383 410.973 238.443C414.878 245.429 420.642 251.359 427.513 255.48C429.004 256.368 430.579 257.189 432.288 257.39C436.059 257.842 439.461 255.363 443.03 254.089C446.85 252.733 451.14 252.8 454.911 254.257" fill="#ED806B"/>
<path d="M393.813 222.462C395.271 225.243 396.729 228.04 398.656 230.503C399.477 231.558 400.433 232.63 400.583 233.954C398.17 233.351 396.193 231.474 395.037 229.263C393.881 227.052 393.462 224.522 393.395 222.026" fill="#ED806B"/>
<path d="M398.523 249.114C398.087 248.26 398.523 246.953 397.685 246.484C397.199 246.216 396.529 246.518 396.328 247.054C396.127 247.59 396.378 248.193 396.831 248.528C397.283 248.863 397.886 248.913 398.423 248.796" fill="#ED806B"/>
<path d="M396.026 242.329C397.215 242.246 398.439 242.413 399.561 242.849C399.126 241.04 398.539 239.046 396.931 238.108C396.797 238.024 396.629 237.957 396.461 237.974C396.311 237.991 396.177 238.091 396.059 238.209C395.154 239.13 395.389 240.671 395.875 241.877" fill="#ED806B"/>
</g>
<path d="M459.852 246.049L441.704 227.303C441.704 227.303 438.001 216.9 438.503 213.701C438.889 211.322 433.459 209.747 430.644 209.094C429.806 208.893 429.019 209.53 429.019 210.384C429.019 210.87 429.287 211.322 429.723 211.556L433.56 213.6C433.56 213.6 429.639 218.341 431.298 221.742C427.477 220.82 425.734 221.541 425.734 221.541L436.861 235.763L447.921 256.619L459.852 246.065V246.049Z" fill="#F49987"/>
<mask id="mask26_893_301311" style="mask-type:luminance" maskUnits="userSpaceOnUse" x="425" y="209" width="35" height="48">
<path d="M459.852 246.049L441.704 227.303C441.704 227.303 438.001 216.9 438.503 213.701C438.889 211.322 433.459 209.747 430.644 209.094C429.806 208.893 429.019 209.53 429.019 210.384C429.019 210.87 429.287 211.322 429.723 211.556L433.56 213.6C433.56 213.6 429.639 218.341 431.298 221.742C427.477 220.82 425.734 221.541 425.734 221.541L436.861 235.763L447.921 256.619L459.852 246.065V246.049Z" fill="white"/>
</mask>
<g mask="url(#mask26_893_301311)">
<path d="M426.873 224.506C427.543 226.214 429.671 227.169 431.397 226.549C433.123 225.93 434.162 223.836 433.592 222.093C433.241 221.004 432.369 220.016 432.553 218.877C432.637 218.391 432.905 217.972 433.207 217.587C433.978 216.615 434.983 215.845 435.603 214.773C436.207 213.701 436.24 212.126 435.235 211.422C434.849 211.154 434.38 211.054 433.928 210.987C432.52 210.736 431.012 210.618 429.839 209.814C429.236 209.395 428.532 208.792 427.895 209.144C427.476 209.379 427.359 209.932 427.342 210.417C427.308 211.707 427.61 213.014 428.23 214.136C428.884 215.342 429.923 216.683 429.336 217.939C429.068 218.508 428.515 218.877 427.996 219.229C427.325 219.664 426.655 220.1 425.985 220.535C425.683 220.72 425.348 221.004 425.415 221.34C425.448 221.524 425.582 221.658 425.7 221.792C426.286 222.395 426.856 223.015 427.443 223.618" fill="#ED806B"/>
<path d="M451.205 256.234C448.942 250.287 444.384 245.496 441.351 239.901C439.86 237.137 438.335 233.836 435.285 233.15C435.419 235.277 436.324 237.271 437.229 239.197C439.575 244.189 441.971 249.164 444.602 254.006C445.155 255.028 445.758 256.066 446.73 256.686C447.702 257.289 449.177 257.289 449.864 256.351" fill="#ED806B"/>
</g>
<path d="M467.458 236.148L447.266 257.272L461.895 271.696L478.618 257.674C479.506 256.921 480.227 255.983 480.713 254.927C482.607 250.823 486.159 240.47 477.194 234.859C474.077 232.899 469.988 233.485 467.441 236.148H467.458Z" fill="white"/>
<mask id="mask27_893_301311" style="mask-type:luminance" maskUnits="userSpaceOnUse" x="447" y="233" width="37" height="39">
<path d="M467.458 236.148L447.266 257.272L461.895 271.696L478.618 257.674C479.506 256.921 480.227 255.983 480.713 254.927C482.607 250.823 486.159 240.47 477.194 234.859C474.077 232.899 469.988 233.485 467.441 236.148H467.458Z" fill="white"/>
</mask>
<g mask="url(#mask27_893_301311)">
<path d="M480.379 235.512C480.379 235.512 484.87 246.367 469.369 256.602C453.869 266.838 454.02 269.568 454.02 269.568L465.146 278.798L487.785 261.544L486.646 240.319L480.362 235.512H480.379Z" fill="#DCECFF"/>
<path d="M448.29 250.812L447.984 251.146L472.304 273.462L472.61 273.129L448.29 250.812Z" fill="#22536B"/>
<path d="M446.185 252.093L445.879 252.427L470.198 274.743L470.504 274.41L446.185 252.093Z" fill="#22536B"/>
</g>
<path d="M484.743 207.484C486.949 206.457 488.114 204.285 487.345 202.633C486.576 200.981 484.163 200.473 481.956 201.5C479.75 202.527 478.585 204.699 479.354 206.351C480.123 208.004 482.536 208.511 484.743 207.484Z" fill="#F9AD9B"/>
<path d="M483.047 206.37C484.104 205.878 484.66 204.833 484.289 204.036C483.918 203.239 482.76 202.992 481.703 203.484C480.646 203.976 480.09 205.021 480.461 205.818C480.832 206.614 481.99 206.862 483.047 206.37Z" fill="#F99379"/>
<path d="M470.826 204.537C473.048 204.537 474.848 203.81 474.848 202.913C474.848 202.015 473.048 201.288 470.826 201.288C468.605 201.288 466.805 202.015 466.805 202.913C466.805 203.81 468.605 204.537 470.826 204.537Z" fill="#F99379"/>
<path d="M472.853 203.164C473.408 203.164 473.859 202.909 473.859 202.594C473.859 202.28 473.408 202.025 472.853 202.025C472.298 202.025 471.848 202.28 471.848 202.594C471.848 202.909 472.298 203.164 472.853 203.164Z" fill="#FFD0CA"/>
<path d="M527.681 330.026L522.587 369.828H519.554L518.18 332.773L527.681 330.026Z" fill="#0038FF"/>
<path d="M455.528 325.704L450.031 369.828H446.73L444.25 323.291L455.528 325.704Z" fill="#0038FF"/>
<path d="M515.432 245.965C515.432 245.965 513.505 229.062 529.442 227.136C545.378 225.209 538.507 240.705 538.507 240.705L515.416 245.965H515.432Z" fill="#0038FF"/>
<path d="M529.459 227.136C529.459 227.136 539.078 228.091 536.598 232.982C534.117 237.857 512.953 232.111 507.457 245.965C501.96 259.835 510.205 284.293 488.488 285.114C466.77 285.935 445.606 278.313 443.143 299.855C440.663 321.382 432.703 330.729 471.445 329.908C510.205 329.087 523.125 345.018 528.621 332.924C534.117 320.829 529.476 303.457 532.743 287.978C535.961 272.701 537.419 257.473 543.736 244.926C550.054 232.362 542.362 223.3 529.442 227.152L529.459 227.136Z" fill="url(#paint22_linear_893_301311)"/>
<mask id="mask28_893_301311" style="mask-type:luminance" maskUnits="userSpaceOnUse" x="440" y="226" width="106" height="112">
<path d="M529.459 227.136C529.459 227.136 539.078 228.091 536.598 232.982C534.117 237.857 512.953 232.111 507.457 245.965C501.96 259.835 510.205 284.293 488.488 285.114C466.77 285.935 445.606 278.313 443.143 299.855C440.663 321.382 432.703 330.729 471.445 329.908C510.205 329.087 523.125 345.018 528.621 332.924C534.117 320.829 529.476 303.457 532.743 287.978C535.961 272.701 537.419 257.473 543.736 244.926C550.054 232.362 542.362 223.3 529.442 227.152L529.459 227.136Z" fill="white"/>
</mask>
<g mask="url(#mask28_893_301311)">
<path d="M525.773 218.509C530.381 218.827 535.157 219.262 539.162 221.557C543.167 223.852 546.166 228.576 545.01 233.049C543.77 237.823 538.592 240.37 533.816 241.526C529.04 242.682 523.812 243.201 519.975 246.3C516.087 249.449 514.495 254.676 514.126 259.651C513.758 264.626 514.395 269.652 514.009 274.644C513.322 283.238 508.898 292.083 501.006 295.567C494.202 298.582 486.393 297.158 478.97 296.488C471.563 295.818 463.101 296.405 458.241 302.033C454.136 306.791 453.884 313.76 454.806 319.974C455.309 323.459 456.096 327.077 454.99 330.411C452.879 336.777 444.316 339.139 438.133 336.509C431.949 333.878 427.944 327.798 425.33 321.616C421.459 312.419 419.867 302.117 421.744 292.317C423.621 282.517 429.1 273.27 437.345 267.642C449.729 259.216 465.882 259.835 480.512 256.669C484.148 255.882 488.019 254.642 490.164 251.61C492.426 248.394 492.141 244.122 492.627 240.219C493.616 232.429 498.257 225.193 504.944 221.072C511.63 216.951 520.176 216.013 527.583 218.609" fill="#94B0FF"/>
</g>
</g>
<defs>
<linearGradient id="paint0_linear_893_301311" x1="67.917" y1="431.91" x2="157.484" y2="193.228" gradientUnits="userSpaceOnUse">
<stop offset="0.05" stop-color="#96B9F8"/>
<stop offset="0.07" stop-color="#91B5F8" stop-opacity="0.96"/>
<stop offset="0.2" stop-color="#769FFA" stop-opacity="0.71"/>
<stop offset="0.33" stop-color="#5F8CFB" stop-opacity="0.49"/>
<stop offset="0.46" stop-color="#4C7CFC" stop-opacity="0.32"/>
<stop offset="0.57" stop-color="#3E70FD" stop-opacity="0.18"/>
<stop offset="0.69" stop-color="#3368FE" stop-opacity="0.08"/>
<stop offset="0.79" stop-color="#2D62FE" stop-opacity="0.02"/>
<stop offset="0.88" stop-color="#2B61FF" stop-opacity="0"/>
</linearGradient>
<linearGradient id="paint1_linear_893_301311" x1="286.247" y1="500.475" x2="286.247" y2="-73.4592" gradientUnits="userSpaceOnUse">
<stop offset="0.05" stop-color="#96B9F8"/>
<stop offset="0.07" stop-color="#91B5F8" stop-opacity="0.96"/>
<stop offset="0.2" stop-color="#769FFA" stop-opacity="0.71"/>
<stop offset="0.33" stop-color="#5F8CFB" stop-opacity="0.49"/>
<stop offset="0.46" stop-color="#4C7CFC" stop-opacity="0.32"/>
<stop offset="0.57" stop-color="#3E70FD" stop-opacity="0.18"/>
<stop offset="0.69" stop-color="#3368FE" stop-opacity="0.08"/>
<stop offset="0.79" stop-color="#2D62FE" stop-opacity="0.02"/>
<stop offset="0.88" stop-color="#2B61FF" stop-opacity="0"/>
</linearGradient>
<linearGradient id="paint2_linear_893_301311" x1="236.367" y1="210.902" x2="236.367" y2="-83.8632" gradientUnits="userSpaceOnUse">
<stop offset="0.05" stop-color="#96B9F8"/>
<stop offset="0.07" stop-color="#91B5F8" stop-opacity="0.96"/>
<stop offset="0.2" stop-color="#769FFA" stop-opacity="0.71"/>
<stop offset="0.33" stop-color="#5F8CFB" stop-opacity="0.49"/>
<stop offset="0.46" stop-color="#4C7CFC" stop-opacity="0.32"/>
<stop offset="0.57" stop-color="#3E70FD" stop-opacity="0.18"/>
<stop offset="0.69" stop-color="#3368FE" stop-opacity="0.08"/>
<stop offset="0.79" stop-color="#2D62FE" stop-opacity="0.02"/>
<stop offset="0.88" stop-color="#2B61FF" stop-opacity="0"/>
</linearGradient>
<linearGradient id="paint3_linear_893_301311" x1="254.495" y1="221.088" x2="262.438" y2="221.088" gradientUnits="userSpaceOnUse">
<stop stop-color="#0038FF"/>
<stop offset="1" stop-color="#3B80F3"/>
</linearGradient>
<linearGradient id="paint4_linear_893_301311" x1="94.7653" y1="126.524" x2="254.495" y2="126.524" gradientUnits="userSpaceOnUse">
<stop stop-color="#0038FF"/>
<stop offset="1" stop-color="#3B80F3"/>
</linearGradient>
<linearGradient id="paint5_linear_893_301311" x1="94.7653" y1="277.911" x2="254.495" y2="277.911" gradientUnits="userSpaceOnUse">
<stop stop-color="#0038FF"/>
<stop offset="1" stop-color="#3B80F3"/>
</linearGradient>
<linearGradient id="paint6_linear_893_301311" x1="30.5511" y1="218.978" x2="165.832" y2="218.978" gradientUnits="userSpaceOnUse">
<stop stop-color="#0038FF"/>
<stop offset="1" stop-color="#3B80F3"/>
</linearGradient>
<linearGradient id="paint7_linear_893_301311" x1="198.574" y1="105.819" x2="278.372" y2="105.819" gradientUnits="userSpaceOnUse">
<stop stop-color="#0038FF"/>
<stop offset="1" stop-color="#3B80F3"/>
</linearGradient>
<linearGradient id="paint8_linear_893_301311" x1="211.86" y1="237.438" x2="357.313" y2="239.885" gradientUnits="userSpaceOnUse">
<stop stop-color="#0038FF"/>
<stop offset="1" stop-color="#3B80F3"/>
</linearGradient>
<linearGradient id="paint9_linear_893_301311" x1="323.328" y1="179.242" x2="402.908" y2="179.242" gradientUnits="userSpaceOnUse">
<stop stop-color="#0038FF"/>
<stop offset="1" stop-color="#3B80F3"/>
</linearGradient>
<linearGradient id="paint10_linear_893_301311" x1="337.625" y1="237.438" x2="192.189" y2="239.885" gradientUnits="userSpaceOnUse">
<stop stop-color="#0038FF"/>
<stop offset="1" stop-color="#3B80F3"/>
</linearGradient>
<linearGradient id="paint11_linear_893_301311" x1="226.174" y1="179.242" x2="146.594" y2="179.242" gradientUnits="userSpaceOnUse">
<stop stop-color="#0038FF"/>
<stop offset="1" stop-color="#3B80F3"/>
</linearGradient>
<linearGradient id="paint12_linear_893_301311" x1="132.366" y1="202.963" x2="134.208" y2="96.0527" gradientUnits="userSpaceOnUse">
<stop offset="0.05" stop-color="#96B9F8"/>
<stop offset="0.07" stop-color="#91B5F8" stop-opacity="0.96"/>
<stop offset="0.2" stop-color="#769FFA" stop-opacity="0.71"/>
<stop offset="0.33" stop-color="#5F8CFB" stop-opacity="0.49"/>
<stop offset="0.46" stop-color="#4C7CFC" stop-opacity="0.32"/>
<stop offset="0.57" stop-color="#3E70FD" stop-opacity="0.18"/>
<stop offset="0.69" stop-color="#3368FE" stop-opacity="0.08"/>
<stop offset="0.79" stop-color="#2D62FE" stop-opacity="0.02"/>
<stop offset="0.88" stop-color="#2B61FF" stop-opacity="0"/>
</linearGradient>
<linearGradient id="paint13_linear_893_301311" x1="147.331" y1="203.214" x2="149.156" y2="96.3041" gradientUnits="userSpaceOnUse">
<stop offset="0.05" stop-color="#96B9F8"/>
<stop offset="0.07" stop-color="#91B5F8" stop-opacity="0.96"/>
<stop offset="0.2" stop-color="#769FFA" stop-opacity="0.71"/>
<stop offset="0.33" stop-color="#5F8CFB" stop-opacity="0.49"/>
<stop offset="0.46" stop-color="#4C7CFC" stop-opacity="0.32"/>
<stop offset="0.57" stop-color="#3E70FD" stop-opacity="0.18"/>
<stop offset="0.69" stop-color="#3368FE" stop-opacity="0.08"/>
<stop offset="0.79" stop-color="#2D62FE" stop-opacity="0.02"/>
<stop offset="0.88" stop-color="#2B61FF" stop-opacity="0"/>
</linearGradient>
<linearGradient id="paint14_linear_893_301311" x1="407.82" y1="207.988" x2="459.737" y2="25.3177" gradientUnits="userSpaceOnUse">
<stop offset="0.05" stop-color="#96B9F8"/>
<stop offset="0.07" stop-color="#91B5F8" stop-opacity="0.96"/>
<stop offset="0.2" stop-color="#769FFA" stop-opacity="0.71"/>
<stop offset="0.33" stop-color="#5F8CFB" stop-opacity="0.49"/>
<stop offset="0.46" stop-color="#4C7CFC" stop-opacity="0.32"/>
<stop offset="0.57" stop-color="#3E70FD" stop-opacity="0.18"/>
<stop offset="0.69" stop-color="#3368FE" stop-opacity="0.08"/>
<stop offset="0.79" stop-color="#2D62FE" stop-opacity="0.02"/>
<stop offset="0.88" stop-color="#2B61FF" stop-opacity="0"/>
</linearGradient>
<linearGradient id="paint15_linear_893_301311" x1="397.597" y1="205.091" x2="449.514" y2="22.4198" gradientUnits="userSpaceOnUse">
<stop offset="0.05" stop-color="#96B9F8"/>
<stop offset="0.07" stop-color="#91B5F8" stop-opacity="0.96"/>
<stop offset="0.2" stop-color="#769FFA" stop-opacity="0.71"/>
<stop offset="0.33" stop-color="#5F8CFB" stop-opacity="0.49"/>
<stop offset="0.46" stop-color="#4C7CFC" stop-opacity="0.32"/>
<stop offset="0.57" stop-color="#3E70FD" stop-opacity="0.18"/>
<stop offset="0.69" stop-color="#3368FE" stop-opacity="0.08"/>
<stop offset="0.79" stop-color="#2D62FE" stop-opacity="0.02"/>
<stop offset="0.88" stop-color="#2B61FF" stop-opacity="0"/>
</linearGradient>
<linearGradient id="paint16_linear_893_301311" x1="245.41" y1="296.019" x2="242.363" y2="173.228" gradientUnits="userSpaceOnUse">
<stop offset="0.05" stop-color="#96B9F8"/>
<stop offset="0.07" stop-color="#91B5F8" stop-opacity="0.96"/>
<stop offset="0.2" stop-color="#769FFA" stop-opacity="0.71"/>
<stop offset="0.33" stop-color="#5F8CFB" stop-opacity="0.49"/>
<stop offset="0.46" stop-color="#4C7CFC" stop-opacity="0.32"/>
<stop offset="0.57" stop-color="#3E70FD" stop-opacity="0.18"/>
<stop offset="0.69" stop-color="#3368FE" stop-opacity="0.08"/>
<stop offset="0.79" stop-color="#2D62FE" stop-opacity="0.02"/>
<stop offset="0.88" stop-color="#2B61FF" stop-opacity="0"/>
</linearGradient>
<linearGradient id="paint17_linear_893_301311" x1="217.729" y1="296.706" x2="214.664" y2="173.915" gradientUnits="userSpaceOnUse">
<stop offset="0.05" stop-color="#96B9F8"/>
<stop offset="0.07" stop-color="#91B5F8" stop-opacity="0.96"/>
<stop offset="0.2" stop-color="#769FFA" stop-opacity="0.71"/>
<stop offset="0.33" stop-color="#5F8CFB" stop-opacity="0.49"/>
<stop offset="0.46" stop-color="#4C7CFC" stop-opacity="0.32"/>
<stop offset="0.57" stop-color="#3E70FD" stop-opacity="0.18"/>
<stop offset="0.69" stop-color="#3368FE" stop-opacity="0.08"/>
<stop offset="0.79" stop-color="#2D62FE" stop-opacity="0.02"/>
<stop offset="0.88" stop-color="#2B61FF" stop-opacity="0"/>
</linearGradient>
<linearGradient id="paint18_linear_893_301311" x1="322.425" y1="320.712" x2="324.87" y2="120.946" gradientUnits="userSpaceOnUse">
<stop offset="0.05" stop-color="#96B9F8"/>
<stop offset="0.07" stop-color="#91B5F8" stop-opacity="0.96"/>
<stop offset="0.2" stop-color="#769FFA" stop-opacity="0.71"/>
<stop offset="0.33" stop-color="#5F8CFB" stop-opacity="0.49"/>
<stop offset="0.46" stop-color="#4C7CFC" stop-opacity="0.32"/>
<stop offset="0.57" stop-color="#3E70FD" stop-opacity="0.18"/>
<stop offset="0.69" stop-color="#3368FE" stop-opacity="0.08"/>
<stop offset="0.79" stop-color="#2D62FE" stop-opacity="0.02"/>
<stop offset="0.88" stop-color="#2B61FF" stop-opacity="0"/>
</linearGradient>
<linearGradient id="paint19_linear_893_301311" x1="349.774" y1="321.047" x2="352.219" y2="121.264" gradientUnits="userSpaceOnUse">
<stop offset="0.05" stop-color="#96B9F8"/>
<stop offset="0.07" stop-color="#91B5F8" stop-opacity="0.96"/>
<stop offset="0.2" stop-color="#769FFA" stop-opacity="0.71"/>
<stop offset="0.33" stop-color="#5F8CFB" stop-opacity="0.49"/>
<stop offset="0.46" stop-color="#4C7CFC" stop-opacity="0.32"/>
<stop offset="0.57" stop-color="#3E70FD" stop-opacity="0.18"/>
<stop offset="0.69" stop-color="#3368FE" stop-opacity="0.08"/>
<stop offset="0.79" stop-color="#2D62FE" stop-opacity="0.02"/>
<stop offset="0.88" stop-color="#2B61FF" stop-opacity="0"/>
</linearGradient>
<linearGradient id="paint20_linear_893_301311" x1="-0.000684896" y1="281.847" x2="105.218" y2="281.847" gradientUnits="userSpaceOnUse">
<stop stop-color="#0038FF"/>
<stop offset="1" stop-color="#3B80F3"/>
</linearGradient>
<linearGradient id="paint21_linear_893_301311" x1="460.386" y1="440.085" x2="440.022" y2="197.367" gradientUnits="userSpaceOnUse">
<stop offset="0.05" stop-color="#96B9F8"/>
<stop offset="0.07" stop-color="#91B5F8" stop-opacity="0.96"/>
<stop offset="0.2" stop-color="#769FFA" stop-opacity="0.71"/>
<stop offset="0.33" stop-color="#5F8CFB" stop-opacity="0.49"/>
<stop offset="0.46" stop-color="#4C7CFC" stop-opacity="0.32"/>
<stop offset="0.57" stop-color="#3E70FD" stop-opacity="0.18"/>
<stop offset="0.69" stop-color="#3368FE" stop-opacity="0.08"/>
<stop offset="0.79" stop-color="#2D62FE" stop-opacity="0.02"/>
<stop offset="0.88" stop-color="#2B61FF" stop-opacity="0"/>
</linearGradient>
<linearGradient id="paint22_linear_893_301311" x1="440.78" y1="281.847" x2="545.998" y2="281.847" gradientUnits="userSpaceOnUse">
<stop stop-color="#0038FF"/>
<stop offset="1" stop-color="#3B80F3"/>
</linearGradient>
<clipPath id="clip0_893_301311">
<rect width="546" height="383.097" fill="white" transform="translate(0 0.903076)"/>
</clipPath>
</defs>
</svg>
