<svg width="467" height="371" viewBox="0 0 467 371" fill="none" xmlns="http://www.w3.org/2000/svg">
<path d="M99.178 163.826C102.382 124.254 76.2451 92.8929 86.9604 61.6697C98.4728 28.1529 132.504 12.8317 139.571 9.65132C142.867 8.16814 184.992 -10.0582 224.604 7.77058C246.877 17.8012 248.088 30.11 276.279 41.0428C294.077 47.9388 300.392 45.6758 320.903 50.4158C328.093 52.0825 372.916 62.4342 395.128 86.0275C428.424 121.394 410.948 186.578 406.871 201.777C384.091 286.731 301.634 352.74 214.256 366.731C205.089 368.199 93.9506 384.697 58.279 326.899C41.2633 299.33 48.2229 271.058 53.5882 256.609C69.5615 213.505 95.3762 210.66 99.1626 163.826H99.178Z" fill="url(#paint0_linear_893_313679)"/>
<path d="M126.894 175.997C130.264 175.997 132.995 173.272 132.995 169.911C132.995 166.55 130.264 163.825 126.894 163.825C123.525 163.825 120.793 166.55 120.793 169.911C120.793 173.272 123.525 175.997 126.894 175.997Z" fill="url(#paint1_linear_893_313679)"/>
<path d="M357.573 92.6023C359.393 92.6023 360.869 91.1304 360.869 89.3148C360.869 87.4992 359.393 86.0273 357.573 86.0273C355.753 86.0273 354.277 87.4992 354.277 89.3148C354.277 91.1304 355.753 92.6023 357.573 92.6023Z" fill="url(#paint2_linear_893_313679)"/>
<path d="M209.826 210.676C212.027 210.676 213.811 208.896 213.811 206.7C213.811 204.505 212.027 202.725 209.826 202.725C207.624 202.725 205.84 204.505 205.84 206.7C205.84 208.896 207.624 210.676 209.826 210.676Z" fill="url(#paint3_linear_893_313679)"/>
<path d="M440.013 130.553C444.551 130.553 448.23 126.884 448.23 122.358C448.23 117.831 444.551 114.162 440.013 114.162C435.476 114.162 431.797 117.831 431.797 122.358C431.797 126.884 435.476 130.553 440.013 130.553Z" fill="url(#paint4_linear_893_313679)"/>
<path d="M46.5669 75.2629C48.9035 75.2629 50.7978 73.3734 50.7978 71.0427C50.7978 68.7119 48.9035 66.8225 46.5669 66.8225C44.2302 66.8225 42.3359 68.7119 42.3359 71.0427C42.3359 73.3734 44.2302 75.2629 46.5669 75.2629Z" fill="url(#paint5_linear_893_313679)"/>
<path d="M52.6669 166.67C52.6669 176.899 44.6496 184.911 34.3789 184.911C44.6343 184.911 52.6669 192.908 52.6669 203.153C52.6669 192.924 60.6842 184.911 70.955 184.911C60.6996 184.911 52.6669 176.914 52.6669 166.67Z" fill="url(#paint6_linear_893_313679)"/>
<path d="M384.104 31.9602C384.104 39.8195 377.942 45.9663 370.062 45.9663C377.942 45.9663 384.104 52.1131 384.104 59.9724C384.104 52.1131 390.267 45.9663 398.146 45.9663C390.267 45.9663 384.104 39.8195 384.104 31.9602Z" fill="url(#paint7_linear_893_313679)"/>
<path d="M29.4446 94.9418C36.0669 90.0029 43.9463 92.8164 44.3295 92.9693C50.2773 95.217 52.7607 100.309 53.2512 101.379C51.9176 92.9999 55.1521 84.6359 61.6824 79.6054C69.2552 73.7797 79.0507 74.0855 85.9796 77.6329C92.2494 80.8286 100.589 91.2109 96.8175 102.449C96.8175 102.449 102.643 94.8041 111.381 99.1619C118.892 102.908 117.497 112.281 117.482 112.755H23.9873C21.9485 106.012 24.1713 98.8714 29.4446 94.9418Z" fill="url(#paint8_linear_893_313679)"/>
<path d="M258.511 46.7767C253.299 42.8929 247.091 45.11 246.8 45.217C242.109 46.9755 240.162 50.9969 239.763 51.8378C240.806 45.2323 238.261 38.6574 233.126 34.6972C227.086 30.0488 219.253 30.4005 213.979 33.1375C205.763 37.4036 201.562 48.6421 205.379 59.636L205.763 60.7981H262.788C264.398 55.4923 262.635 49.8654 258.496 46.7767H258.511Z" fill="url(#paint9_linear_893_313679)"/>
<path d="M335.635 317.954C335.007 314.866 331.481 308.214 325.748 302.771C322.36 299.544 318.62 300.355 317.485 301.93C315.983 304.009 320.873 309.682 321.164 310.018C323.111 312.236 327.373 316.211 335.635 317.939V317.954Z" fill="url(#paint10_linear_893_313679)"/>
<path d="M346.733 311.089C344.679 310.783 342.18 312.862 341.245 313.78C339.65 315.34 338.547 317.159 337.765 319.009C337.704 318.566 337.642 318.122 337.566 317.679L337.244 315.661C337.136 314.988 336.983 314.33 336.861 313.658L336.569 312.236C338.577 311.517 342.716 309.575 344.326 305.294C345.476 302.236 345.46 297.603 343.299 296.547C341.291 295.569 338.838 297.924 336.983 303.658C336.324 305.707 335.956 307.419 335.741 308.78C334.99 305.814 334.117 302.893 333.105 300.018C336.109 296.716 339.666 288.856 339.513 284.361C339.421 281.547 337.719 280.064 335.144 280.89C333.166 281.532 331.848 284.499 331.419 285.737C330.376 288.719 330.437 291.731 330.943 294.407C330.928 294.361 330.897 294.3 330.882 294.254C330.928 294.407 330.959 294.56 331.005 294.713C330.238 293.352 329.288 291.624 328.981 291.073C326.038 285.783 325.225 284.33 323.355 283.336C321.761 282.496 319.094 281.807 317.821 283.061C316.779 284.086 317.055 285.844 317.178 286.655C317.683 289.866 320.136 291.899 321.362 292.878C324.996 295.798 329.15 296.379 331.449 296.486C331.449 296.517 331.465 296.547 331.48 296.563C332.599 301.028 333.657 305.492 334.515 309.988C334.791 311.303 334.975 312.633 335.205 313.948C335.312 314.606 335.435 315.263 335.512 315.936L335.772 317.924C335.849 318.581 335.971 319.254 336.017 319.911L336.217 321.914C336.293 322.603 336.355 323.306 336.401 324.009C336.201 325.263 336.769 331.7 336.769 333.933C336.769 335.278 336.723 336.609 336.707 337.954L336.539 341.976C336.247 347.343 335.68 352.694 335.159 358.092C336.477 352.847 337.458 347.511 338.041 342.098C338.164 340.752 338.317 339.392 338.393 338.046C338.455 336.685 338.562 335.324 338.593 333.979C338.639 331.425 338.608 328.872 338.47 326.333C342.502 324.055 347.53 319.606 349.109 316.119C350.274 313.566 349.415 311.486 346.733 311.089Z" fill="url(#paint11_linear_893_313679)"/>
<path d="M333.719 328.703C330.776 323.413 329.964 321.96 328.094 320.966C326.499 320.125 323.832 319.437 322.56 320.691C321.517 321.715 321.793 323.474 321.916 324.284C322.422 327.495 324.874 329.529 326.101 330.507C330.056 333.688 334.609 334.101 336.755 334.147C336.555 333.795 334.225 329.621 333.719 328.703Z" fill="url(#paint12_linear_893_313679)"/>
<path d="M276.448 326.303C277.874 323.489 279.208 316.089 278.089 308.275C277.414 303.658 273.98 301.991 272.11 302.511C269.642 303.214 269.964 310.707 269.995 311.15C270.148 314.086 271.037 319.85 276.464 326.303H276.448Z" fill="#2C756C"/>
<path d="M300.299 302.281C301.97 300.018 301.556 297.801 299.011 296.869C297.065 296.15 294.198 297.679 293.079 298.382C290.412 300.08 288.587 302.496 287.33 304.927C287.346 304.866 287.361 304.804 287.376 304.743C287.315 304.881 287.254 305.034 287.192 305.171C287.438 303.627 287.76 301.685 287.852 301.058C288.817 295.08 289.078 293.444 288.22 291.517C287.484 289.866 285.813 287.694 284.035 287.893C282.578 288.061 281.72 289.606 281.306 290.324C279.712 293.153 280.386 296.272 280.739 297.801C281.781 302.343 284.678 305.355 286.441 306.869C286.441 306.899 286.426 306.915 286.411 306.945C284.525 311.15 282.594 315.324 280.463 319.376C279.865 320.569 279.191 321.746 278.547 322.908C278.225 323.489 277.918 324.086 277.566 324.667L276.539 326.395C276.186 326.96 275.879 327.557 275.496 328.107L274.423 329.804C274.055 330.401 268.797 337.832 267.402 339.59C266.59 340.645 265.716 341.67 264.873 342.71L262.251 345.768C258.695 349.804 254.939 353.673 251.184 357.587C255.476 354.269 259.553 350.676 263.355 346.792C264.29 345.814 265.241 344.835 266.145 343.826C267.034 342.801 267.954 341.792 268.828 340.737C270.453 338.765 272.001 336.731 273.473 334.652C278.056 335.355 284.77 334.942 288.158 333.184C290.657 331.884 291.27 329.728 289.415 327.755C287.99 326.242 284.74 326.349 283.421 326.486C281.199 326.731 279.206 327.48 277.443 328.459C277.673 328.077 277.887 327.694 278.102 327.297L279.099 325.508C279.436 324.911 279.727 324.3 280.034 323.688L280.693 322.389C282.716 323.061 287.162 324.086 291.086 321.7C293.876 320.003 296.743 316.349 295.7 314.193C294.719 312.19 291.347 312.526 286.334 315.89C284.54 317.098 283.192 318.214 282.195 319.162C283.437 316.364 284.571 313.535 285.552 310.645C289.967 309.911 297.617 305.921 300.299 302.281Z" fill="#2C756C"/>
<path d="M267.294 339.728C267.355 339.33 268.121 334.606 268.275 333.581C269.24 327.603 269.501 325.966 268.643 324.04C267.907 322.389 266.236 320.217 264.458 320.416C263.001 320.584 262.143 322.129 261.729 322.847C260.135 325.676 260.809 328.795 261.162 330.324C262.296 335.248 265.623 338.382 267.278 339.743L267.294 339.728Z" fill="#2C756C"/>
<path d="M434.219 286.058C433.912 279.866 429.574 277.22 427.029 277.694C423.672 278.321 423.166 288.276 423.151 288.857C422.983 292.771 423.458 300.508 429.819 309.713C432.058 306.165 434.756 296.532 434.234 286.058H434.219Z" fill="url(#paint13_linear_893_313679)"/>
<path d="M446.788 313.245C445.086 311.073 440.763 310.798 439.016 310.829C436.103 310.875 433.421 311.578 430.999 312.633C432.746 310.187 434.417 307.679 435.981 305.11C438.617 306.257 444.32 308.122 449.762 305.477C453.671 303.581 457.932 299.101 456.798 296.104C455.756 293.321 451.249 293.352 444.182 297.19C441.76 298.505 439.874 299.774 438.449 300.875C440.396 297.373 442.204 293.795 443.845 290.141C449.777 289.682 460.37 285.37 464.355 280.905C466.839 278.107 466.563 275.125 463.328 273.566C460.83 272.373 456.844 274.04 455.296 274.835C451.571 276.746 448.857 279.697 446.88 282.74C446.911 282.679 446.926 282.602 446.957 282.541C446.849 282.725 446.757 282.893 446.65 283.076C447.171 281.058 447.83 278.535 448.03 277.725C450.053 269.927 450.605 267.801 449.716 265.141C448.949 262.862 447.003 259.774 444.626 259.82C442.68 259.85 441.346 261.792 440.717 262.694C438.249 266.242 438.755 270.447 439.031 272.526C439.844 278.658 443.308 283 445.424 285.217C442.358 290.569 439.246 295.875 435.889 300.997C432.363 306.395 418.076 324.025 416.022 326.18C416.328 325.018 417.723 319.606 418.045 318.352C420.069 310.569 420.621 308.428 419.731 305.768C418.965 303.489 417.018 300.401 414.642 300.447C412.695 300.477 411.362 302.419 410.733 303.321C408.265 306.869 408.771 311.073 409.047 313.153C409.936 319.743 413.86 324.284 415.899 326.318C413.492 328.826 411.024 331.287 408.495 333.673C403.314 338.596 397.856 343.26 392.43 348C398.546 344.177 404.402 339.942 409.936 335.278C415.301 330.752 420.345 325.798 424.897 320.431C430.876 321.899 439.721 322.19 444.412 320.294C447.892 318.887 448.965 316.104 446.742 313.26L446.788 313.245Z" fill="url(#paint14_linear_893_313679)"/>
<path d="M99.1003 365.63C96.9848 361.257 94.808 356.975 92.8152 352.617C91.8495 350.492 90.9297 348.336 90.0712 346.18C91.9261 345.354 95.2833 343.489 97.3834 339.758C98.0732 338.535 99.4222 336.027 98.763 333.199C98.5944 332.48 98.2418 330.936 97.0308 330.431C95.5592 329.819 93.5817 331.272 92.5393 332.495C91.3129 333.948 91.129 335.416 90.4698 340.783C90.3778 341.517 90.0253 344.299 89.8566 345.614C89.1975 343.932 88.5536 342.235 87.9711 340.523C88.0171 340.523 88.0631 340.523 88.1091 340.523C87.9711 340.202 87.8025 339.85 87.6185 339.498C87.6032 339.437 87.5725 339.376 87.5572 339.299C86.7907 337.006 86.1009 334.697 85.4877 332.358C91.5889 328.214 93.7656 323.565 94.6241 321.104C94.7621 320.721 96.9082 314.391 94.9767 313.168C93.505 312.251 90.1326 312.816 88.4003 316.624C85.9016 322.098 85.0279 327.74 85.1352 331.012C84.6753 329.177 84.2307 327.342 83.8322 325.492C82.9737 321.471 82.2992 317.403 81.6247 313.29C83.5102 312.419 86.7141 310.569 88.7223 306.96C89.4121 305.737 90.7611 303.229 90.1019 300.4C89.9333 299.682 89.5807 298.137 88.3697 297.633C86.898 297.021 84.9205 298.474 83.8781 299.697C82.6518 301.15 82.4678 302.617 81.8087 307.984C81.7473 308.535 81.5174 310.263 81.3488 311.639C81.3335 311.517 81.3028 311.394 81.2875 311.272C81.2875 311.318 81.2875 311.364 81.2875 311.41C80.8123 309.024 79.8618 306.501 78.007 304.391C77.2252 303.504 75.1557 301.486 73.3008 301.608C70.8788 301.777 69.9743 303.581 70.8328 305.936C72.1971 309.666 77.6391 314.911 81.2415 316.715C81.3028 319.269 81.5021 321.838 81.7933 324.391C81.1955 323.443 80.4137 322.342 79.3866 321.104C75.9222 316.96 73.1169 315.828 71.7832 317.312C70.3422 318.902 71.8905 322.74 73.8527 324.896C76.4893 327.77 80.3064 328.122 82.3145 328.076C82.6211 329.942 82.989 331.807 83.4336 333.657C82.2532 332.541 80.8736 331.578 79.2333 330.89C78.1449 330.446 75.3856 329.544 73.776 330.477C71.6912 331.7 71.6606 333.703 73.4848 335.446C75.8762 337.725 81.2721 339.697 85.3344 340.309C86.8674 344.85 88.8142 349.238 91.1136 353.413C93.459 357.679 96.1264 361.746 99.085 365.584L99.1003 365.63Z" fill="url(#paint15_linear_893_313679)"/>
<path d="M50.1221 264.284C48.8344 259.009 39.0849 261.945 34.6087 268.199C34.1488 268.856 32.6771 270.905 31.5274 272.526C31.5274 272.495 31.5428 272.465 31.5581 272.434C31.6194 272.266 31.6961 272.113 31.7574 271.945C31.7267 272.006 31.6961 272.067 31.6501 272.129C32.6771 268.826 33.1677 265.034 32.2786 261.135C31.9107 259.514 30.6843 255.584 28.2623 254.499C25.1197 253.092 22.7743 254.728 22.2531 258.26C21.4253 263.902 24.7671 274.254 28.0783 278.872C26.4687 281.991 24.9204 285.156 23.4795 288.367C23.3722 286.853 23.1422 285.064 22.713 282.985C21.1801 275.477 18.4361 272.174 15.7534 273.122C12.8715 274.147 12.2123 279.988 13.2241 284.009C14.5117 289.132 18.712 292.098 21.3027 293.489C21.0881 294.025 20.8735 294.544 20.6589 295.08C19.0952 299.055 17.7922 303.153 16.7805 307.327C16.5812 303.031 15.5235 297.924 12.105 293.749C11.0473 292.45 8.19601 289.483 5.55934 289.575C2.12554 289.697 0.745893 292.205 1.84961 295.599C3.58184 300.921 10.9246 308.52 15.9374 311.333C15.4162 314.269 15.0636 317.236 14.9103 320.232C14.8643 321.379 14.849 322.526 14.8643 323.673C14.2665 321.853 13.1627 319.223 11.1393 315.951C7.12294 309.422 3.39789 307.266 1.22111 309.07C-1.13963 311.012 0.25535 316.731 2.58543 320.156C6.18785 325.462 12.7489 326.318 14.9716 326.456C15.1096 328.719 15.3549 330.966 15.7381 333.199C16.1827 335.676 16.7805 338.138 17.5163 340.538C15.6614 337.679 12.9328 334.697 9.00847 333.168C7.70546 332.664 4.40963 331.654 2.49345 332.801C-0.00525034 334.284 -0.0359092 336.67 2.14087 338.688C5.54401 341.838 13.9752 344.361 18.8193 344.376C18.9879 344.804 19.1566 345.248 19.3252 345.676C20.9195 349.682 22.9123 353.52 25.1657 357.174C27.4651 360.798 29.9792 364.269 32.7231 367.541C30.4084 363.948 28.1856 360.324 26.2081 356.578L24.7671 353.749C24.3073 352.801 23.8934 351.823 23.4488 350.875L23.1269 350.156L22.8203 349.422L22.2225 347.954C22.0232 347.465 21.8086 346.991 21.6399 346.486L21.1187 345.003C20.9501 344.514 20.7662 344.009 20.5975 343.52L20.245 342.343C22.9276 342.618 26.6373 342.755 31.1442 339.896C32.8304 338.826 36.2182 336.609 37.3066 332.633C37.5826 331.624 38.1804 329.453 37 328.015C35.5744 326.257 32.11 326.746 29.9792 327.587C27.4805 328.581 26.2541 330.294 21.7932 336.547C21.318 337.205 20.3829 339.025 19.6624 340.431L19.2945 338.994L18.9113 337.465C18.804 336.96 18.6967 336.44 18.5894 335.921L18.2828 334.376L18.0528 332.832C17.7922 331.15 17.593 329.468 17.4703 327.771C20.5056 327.862 25.319 327.48 29.8718 324.59C31.5581 323.52 34.9459 321.303 36.0343 317.327C36.3102 316.318 36.9081 314.147 35.7277 312.71C34.3021 310.951 30.8376 311.44 28.7068 312.281C26.2081 313.275 24.9818 314.988 20.5209 321.242C20.0457 321.914 18.5281 324.04 17.363 325.676C17.3017 323.902 17.3017 322.129 17.3783 320.355C17.5316 316.364 18.0835 312.388 18.9113 308.459C24.154 308.734 29.7492 307.679 32.0333 306.028C36.5555 302.771 37.7665 300.095 36.0036 297.603C34.6546 295.707 30.5463 295.11 26.2541 297.541C23.4641 299.132 21.6706 300.645 20.4749 302.083C21.0727 299.957 21.7472 297.847 22.4524 295.737C22.621 295.248 22.7896 294.774 22.9583 294.284C23.0809 294.33 23.1729 294.376 23.2495 294.407C23.2495 294.407 23.3875 293.872 23.4795 292.801C23.5868 292.48 23.7094 292.174 23.832 291.853C29.2433 292.251 35.1912 291.181 37.5672 289.453C42.0894 286.196 43.3004 283.52 41.5376 281.028C40.1886 279.132 36.0803 278.535 31.788 280.966C29.32 282.373 27.6491 283.719 26.4534 285.003C27.5878 282.144 28.7681 279.284 29.9332 276.425C30.1938 275.875 30.4544 275.309 30.6996 274.713C33.3516 274.957 36.9847 275.232 43.6224 272.817C45.5079 272.129 51.0725 268.306 50.0914 264.284H50.1221Z" fill="url(#paint16_linear_893_313679)"/>
<path d="M230.932 253.321H176.973V367.511H230.932V253.321Z" fill="url(#paint17_linear_893_313679)"/>
<path d="M242.186 253.489H230.766V367.342H242.186V253.489Z" fill="#0038FF"/>
<path d="M152.768 291.44H98.8086V367.511H152.768V291.44Z" fill="url(#paint18_linear_893_313679)"/>
<path d="M164.022 291.563H152.602V367.404H164.022V291.563Z" fill="#0038FF"/>
<path d="M73.5612 336.639H19.6016V367.511H73.5612V336.639Z" fill="url(#paint19_linear_893_313679)"/>
<path d="M84.815 336.685H73.3945V367.465H84.815V336.685Z" fill="#0038FF"/>
<g opacity="0.55">
<path d="M248.747 367.343H170.583C167.057 366.502 164.267 363.856 163.316 360.447C162.351 356.976 163.362 352.97 165.738 351.135C169.494 348.229 177.741 349.957 183.72 357.694C182.892 356.379 179.918 351.318 180.945 344.59C181.497 341.043 182.999 336.716 186.127 334.239C194.374 327.725 212.11 333.887 220.02 345.278C222.963 349.514 224.052 353.765 224.512 356.318C224.466 355.523 224.282 350.294 227.976 347.343C233.234 343.138 241.052 347.786 241.466 348.031C247.153 351.517 249.943 359.116 248.732 367.358L248.747 367.343Z" fill="white"/>
<path d="M68.548 367.694H133.223C133.407 366.318 134.081 359.972 129.758 354.238C126.493 349.911 119.457 344.284 114.199 346.991C109.861 349.223 109.416 355.737 109.355 356.654C108.634 354.024 105.385 344.086 97.9345 338.031C88.5989 330.446 77.1785 333.55 76.1514 344.238C75.3696 352.22 78.3895 358.505 79.9531 361.15C77.8683 356.853 75.4616 354.59 69.2378 353.214C66.7238 352.648 62.3242 355.278 62.3242 358.734C62.3242 361.991 63.8265 366.119 68.548 367.709V367.694Z" fill="white"/>
<path d="M43.3004 367.343H16.6578C12.9481 366.93 10.2041 364.025 10.0815 360.783C9.9742 357.587 12.4422 355.049 14.9256 354.223C18.482 353.046 22.9582 355.064 24.9511 359.392C22.8356 355.11 23.0042 350.584 25.3036 348.352C28.6761 345.08 35.1911 346.119 38.7936 350.768C44.6801 358.352 43.4231 366.701 43.2851 367.327L43.3004 367.343Z" fill="white"/>
</g>
<path d="M315.229 225.89H261.27V367.511H315.229V225.89Z" fill="url(#paint20_linear_893_313679)"/>
<path d="M326.483 226.104H315.062V367.297H326.483V226.104Z" fill="#0038FF"/>
<path d="M333.044 367.343H254.879C251.354 366.502 248.564 363.856 247.613 360.447C246.647 356.976 247.659 352.97 250.035 351.135C253.791 348.229 262.038 349.957 268.017 357.694C267.189 356.379 264.215 351.318 265.242 344.59C265.794 341.043 267.296 336.716 270.423 334.239C278.671 327.725 296.407 333.887 304.317 345.278C307.26 349.514 308.349 353.765 308.808 356.318C308.762 355.523 308.578 350.294 312.273 347.343C317.531 343.138 325.349 347.786 325.763 348.031C331.45 351.517 334.24 359.116 333.029 367.358L333.044 367.343Z" fill="#FFA800"/>
<path d="M152.845 367.694H217.52C217.704 366.318 218.378 359.972 214.055 354.238C210.79 349.911 203.754 344.284 198.496 346.991C194.158 349.223 193.713 355.737 193.652 356.654C192.931 354.024 189.682 344.086 182.231 338.031C172.896 330.446 161.475 333.55 160.448 344.238C159.666 352.22 162.686 358.505 164.25 361.15C162.165 356.853 159.758 354.59 153.535 353.214C151.021 352.648 146.621 355.278 146.621 358.734C146.621 361.991 148.123 366.119 152.845 367.709V367.694Z" fill="#FFA800"/>
<path d="M127.598 367.343H100.97C97.2606 366.93 94.5166 364.025 94.394 360.783C94.2867 357.587 96.7547 355.049 99.2381 354.223C102.795 353.046 107.271 355.064 109.264 359.392C107.148 355.11 107.317 350.584 109.616 348.352C112.989 345.08 119.504 346.119 123.106 350.768C128.993 358.352 127.736 366.701 127.598 367.327V367.343Z" fill="#FFA800"/>
<path d="M397.823 205.202H343.863V367.526H397.823V205.202Z" fill="url(#paint21_linear_893_313679)"/>
<path d="M409.077 205.447H397.656V367.281H409.077V205.447Z" fill="#0038FF"/>
<path d="M415.638 367.343H337.473C333.947 366.502 331.157 363.856 330.207 360.447C329.241 356.976 330.253 352.97 332.629 351.135C336.385 348.229 344.632 349.957 350.61 357.694C349.783 356.379 346.809 351.318 347.836 344.59C348.388 341.043 349.89 336.716 353.017 334.239C361.264 327.725 379.001 333.887 386.911 345.278C389.854 349.514 390.942 353.765 391.402 356.318C391.356 355.523 391.172 350.294 394.867 347.343C400.125 343.138 407.943 347.786 408.357 348.031C414.044 351.517 416.834 359.116 415.623 367.358L415.638 367.343Z" fill="#CFDCFF"/>
<path d="M235.439 367.694H300.114C300.298 366.318 300.972 359.972 296.649 354.238C293.384 349.911 286.348 344.284 281.09 346.991C276.751 349.223 276.307 355.737 276.246 356.654C275.525 354.024 272.275 344.086 264.825 338.031C255.49 330.446 244.069 333.55 243.042 344.238C242.26 352.22 245.28 358.505 246.844 361.15C244.759 356.853 242.352 354.59 236.128 353.214C233.614 352.648 229.215 355.278 229.215 358.734C229.215 361.991 230.717 366.119 235.439 367.709V367.694Z" fill="#CFDCFF"/>
<path d="M210.191 367.343H183.564C179.854 366.93 177.11 364.025 176.988 360.783C176.88 357.587 179.348 355.049 181.832 354.223C185.388 353.046 189.864 355.064 191.857 359.392C189.742 355.11 189.91 350.584 192.21 348.352C195.582 345.08 202.097 346.119 205.7 350.768C211.586 358.352 210.329 366.701 210.191 367.327V367.343Z" fill="#CFDCFF"/>
<path d="M133.531 137.878C128.932 102.832 153.168 61.1652 204.829 67.4955C248.64 72.8472 258.144 65.9511 277.015 56.1041C289.478 49.6056 308.962 38.1071 324.766 70.997C345.461 114.04 296.928 181.532 253.592 202.22C212.141 222.021 141.871 201.471 133.531 137.893V137.878Z" fill="url(#paint22_linear_893_313679)"/>
<path d="M215.513 168.673C212.647 168.673 209.887 167.526 207.879 165.492L185.36 142.801C181.191 138.596 181.221 131.807 185.437 127.633C189.652 123.474 196.459 123.505 200.644 127.709L215.529 142.694L257.041 100.859C261.21 96.6544 268.017 96.6085 272.248 100.783C276.463 104.942 276.509 111.731 272.324 115.951L223.178 165.477C221.154 167.511 218.41 168.657 215.544 168.657L215.513 168.673Z" fill="white"/>
<defs>
<linearGradient id="paint0_linear_893_313679" x1="231.333" y1="528.321" x2="231.333" y2="-221.22" gradientUnits="userSpaceOnUse">
<stop offset="0.05" stop-color="#96B9F8"/>
<stop offset="0.07" stop-color="#91B5F8" stop-opacity="0.96"/>
<stop offset="0.2" stop-color="#769FFA" stop-opacity="0.71"/>
<stop offset="0.33" stop-color="#5F8CFB" stop-opacity="0.49"/>
<stop offset="0.46" stop-color="#4C7CFC" stop-opacity="0.32"/>
<stop offset="0.57" stop-color="#3E70FD" stop-opacity="0.18"/>
<stop offset="0.69" stop-color="#3368FE" stop-opacity="0.08"/>
<stop offset="0.79" stop-color="#2D62FE" stop-opacity="0.02"/>
<stop offset="0.88" stop-color="#2B61FF" stop-opacity="0"/>
</linearGradient>
<linearGradient id="paint1_linear_893_313679" x1="126.894" y1="528.321" x2="126.894" y2="-221.22" gradientUnits="userSpaceOnUse">
<stop offset="0.05" stop-color="#96B9F8"/>
<stop offset="0.07" stop-color="#91B5F8" stop-opacity="0.96"/>
<stop offset="0.2" stop-color="#769FFA" stop-opacity="0.71"/>
<stop offset="0.33" stop-color="#5F8CFB" stop-opacity="0.49"/>
<stop offset="0.46" stop-color="#4C7CFC" stop-opacity="0.32"/>
<stop offset="0.57" stop-color="#3E70FD" stop-opacity="0.18"/>
<stop offset="0.69" stop-color="#3368FE" stop-opacity="0.08"/>
<stop offset="0.79" stop-color="#2D62FE" stop-opacity="0.02"/>
<stop offset="0.88" stop-color="#2B61FF" stop-opacity="0"/>
</linearGradient>
<linearGradient id="paint2_linear_893_313679" x1="357.573" y1="528.321" x2="357.573" y2="-221.221" gradientUnits="userSpaceOnUse">
<stop offset="0.05" stop-color="#96B9F8"/>
<stop offset="0.07" stop-color="#91B5F8" stop-opacity="0.96"/>
<stop offset="0.2" stop-color="#769FFA" stop-opacity="0.71"/>
<stop offset="0.33" stop-color="#5F8CFB" stop-opacity="0.49"/>
<stop offset="0.46" stop-color="#4C7CFC" stop-opacity="0.32"/>
<stop offset="0.57" stop-color="#3E70FD" stop-opacity="0.18"/>
<stop offset="0.69" stop-color="#3368FE" stop-opacity="0.08"/>
<stop offset="0.79" stop-color="#2D62FE" stop-opacity="0.02"/>
<stop offset="0.88" stop-color="#2B61FF" stop-opacity="0"/>
</linearGradient>
<linearGradient id="paint3_linear_893_313679" x1="209.826" y1="528.321" x2="209.826" y2="-221.22" gradientUnits="userSpaceOnUse">
<stop offset="0.05" stop-color="#96B9F8"/>
<stop offset="0.07" stop-color="#91B5F8" stop-opacity="0.96"/>
<stop offset="0.2" stop-color="#769FFA" stop-opacity="0.71"/>
<stop offset="0.33" stop-color="#5F8CFB" stop-opacity="0.49"/>
<stop offset="0.46" stop-color="#4C7CFC" stop-opacity="0.32"/>
<stop offset="0.57" stop-color="#3E70FD" stop-opacity="0.18"/>
<stop offset="0.69" stop-color="#3368FE" stop-opacity="0.08"/>
<stop offset="0.79" stop-color="#2D62FE" stop-opacity="0.02"/>
<stop offset="0.88" stop-color="#2B61FF" stop-opacity="0"/>
</linearGradient>
<linearGradient id="paint4_linear_893_313679" x1="440.013" y1="528.321" x2="440.013" y2="-221.22" gradientUnits="userSpaceOnUse">
<stop offset="0.05" stop-color="#96B9F8"/>
<stop offset="0.07" stop-color="#91B5F8" stop-opacity="0.96"/>
<stop offset="0.2" stop-color="#769FFA" stop-opacity="0.71"/>
<stop offset="0.33" stop-color="#5F8CFB" stop-opacity="0.49"/>
<stop offset="0.46" stop-color="#4C7CFC" stop-opacity="0.32"/>
<stop offset="0.57" stop-color="#3E70FD" stop-opacity="0.18"/>
<stop offset="0.69" stop-color="#3368FE" stop-opacity="0.08"/>
<stop offset="0.79" stop-color="#2D62FE" stop-opacity="0.02"/>
<stop offset="0.88" stop-color="#2B61FF" stop-opacity="0"/>
</linearGradient>
<linearGradient id="paint5_linear_893_313679" x1="46.5669" y1="528.321" x2="46.5669" y2="-221.22" gradientUnits="userSpaceOnUse">
<stop offset="0.05" stop-color="#96B9F8"/>
<stop offset="0.07" stop-color="#91B5F8" stop-opacity="0.96"/>
<stop offset="0.2" stop-color="#769FFA" stop-opacity="0.71"/>
<stop offset="0.33" stop-color="#5F8CFB" stop-opacity="0.49"/>
<stop offset="0.46" stop-color="#4C7CFC" stop-opacity="0.32"/>
<stop offset="0.57" stop-color="#3E70FD" stop-opacity="0.18"/>
<stop offset="0.69" stop-color="#3368FE" stop-opacity="0.08"/>
<stop offset="0.79" stop-color="#2D62FE" stop-opacity="0.02"/>
<stop offset="0.88" stop-color="#2B61FF" stop-opacity="0"/>
</linearGradient>
<linearGradient id="paint6_linear_893_313679" x1="52.667" y1="662.251" x2="52.667" y2="-379.615" gradientUnits="userSpaceOnUse">
<stop offset="0.05" stop-color="#96B9F8"/>
<stop offset="0.07" stop-color="#91B5F8" stop-opacity="0.96"/>
<stop offset="0.2" stop-color="#769FFA" stop-opacity="0.71"/>
<stop offset="0.33" stop-color="#5F8CFB" stop-opacity="0.49"/>
<stop offset="0.46" stop-color="#4C7CFC" stop-opacity="0.32"/>
<stop offset="0.57" stop-color="#3E70FD" stop-opacity="0.18"/>
<stop offset="0.69" stop-color="#3368FE" stop-opacity="0.08"/>
<stop offset="0.79" stop-color="#2D62FE" stop-opacity="0.02"/>
<stop offset="0.88" stop-color="#2B61FF" stop-opacity="0"/>
</linearGradient>
<linearGradient id="paint7_linear_893_313679" x1="384.104" y1="716.44" x2="384.104" y2="-325.425" gradientUnits="userSpaceOnUse">
<stop offset="0.05" stop-color="#96B9F8"/>
<stop offset="0.07" stop-color="#91B5F8" stop-opacity="0.96"/>
<stop offset="0.2" stop-color="#769FFA" stop-opacity="0.71"/>
<stop offset="0.33" stop-color="#5F8CFB" stop-opacity="0.49"/>
<stop offset="0.46" stop-color="#4C7CFC" stop-opacity="0.32"/>
<stop offset="0.57" stop-color="#3E70FD" stop-opacity="0.18"/>
<stop offset="0.69" stop-color="#3368FE" stop-opacity="0.08"/>
<stop offset="0.79" stop-color="#2D62FE" stop-opacity="0.02"/>
<stop offset="0.88" stop-color="#2B61FF" stop-opacity="0"/>
</linearGradient>
<linearGradient id="paint8_linear_893_313679" x1="70.4202" y1="528.321" x2="70.4202" y2="-221.22" gradientUnits="userSpaceOnUse">
<stop offset="0.05" stop-color="#96B9F8"/>
<stop offset="0.07" stop-color="#91B5F8" stop-opacity="0.96"/>
<stop offset="0.2" stop-color="#769FFA" stop-opacity="0.71"/>
<stop offset="0.33" stop-color="#5F8CFB" stop-opacity="0.49"/>
<stop offset="0.46" stop-color="#4C7CFC" stop-opacity="0.32"/>
<stop offset="0.57" stop-color="#3E70FD" stop-opacity="0.18"/>
<stop offset="0.69" stop-color="#3368FE" stop-opacity="0.08"/>
<stop offset="0.79" stop-color="#2D62FE" stop-opacity="0.02"/>
<stop offset="0.88" stop-color="#2B61FF" stop-opacity="0"/>
</linearGradient>
<linearGradient id="paint9_linear_893_313679" x1="233.678" y1="404.223" x2="233.678" y2="-345.318" gradientUnits="userSpaceOnUse">
<stop offset="0.05" stop-color="#96B9F8"/>
<stop offset="0.07" stop-color="#91B5F8" stop-opacity="0.96"/>
<stop offset="0.2" stop-color="#769FFA" stop-opacity="0.71"/>
<stop offset="0.33" stop-color="#5F8CFB" stop-opacity="0.49"/>
<stop offset="0.46" stop-color="#4C7CFC" stop-opacity="0.32"/>
<stop offset="0.57" stop-color="#3E70FD" stop-opacity="0.18"/>
<stop offset="0.69" stop-color="#3368FE" stop-opacity="0.08"/>
<stop offset="0.79" stop-color="#2D62FE" stop-opacity="0.02"/>
<stop offset="0.88" stop-color="#2B61FF" stop-opacity="0"/>
</linearGradient>
<linearGradient id="paint10_linear_893_313679" x1="317.194" y1="309.254" x2="335.635" y2="309.254" gradientUnits="userSpaceOnUse">
<stop stop-color="#0038FF"/>
<stop offset="1" stop-color="#3B80F3"/>
</linearGradient>
<linearGradient id="paint11_linear_893_313679" x1="317.04" y1="319.392" x2="349.615" y2="319.392" gradientUnits="userSpaceOnUse">
<stop stop-color="#0038FF"/>
<stop offset="1" stop-color="#3B80F3"/>
</linearGradient>
<linearGradient id="paint12_linear_893_313679" x1="321.793" y1="327.082" x2="336.755" y2="327.082" gradientUnits="userSpaceOnUse">
<stop stop-color="#0038FF"/>
<stop offset="1" stop-color="#3B80F3"/>
</linearGradient>
<linearGradient id="paint13_linear_893_313679" x1="420.445" y1="283.141" x2="437.728" y2="302.76" gradientUnits="userSpaceOnUse">
<stop stop-color="#0038FF"/>
<stop offset="1" stop-color="#3B80F3"/>
</linearGradient>
<linearGradient id="paint14_linear_893_313679" x1="409.487" y1="289.754" x2="440.207" y2="324.626" gradientUnits="userSpaceOnUse">
<stop stop-color="#0038FF"/>
<stop offset="1" stop-color="#3B80F3"/>
</linearGradient>
<linearGradient id="paint15_linear_893_313679" x1="70.5109" y1="331.578" x2="99.1003" y2="331.578" gradientUnits="userSpaceOnUse">
<stop stop-color="#0038FF"/>
<stop offset="1" stop-color="#3B80F3"/>
</linearGradient>
<linearGradient id="paint16_linear_893_313679" x1="0.0254085" y1="310.768" x2="50.2294" y2="310.768" gradientUnits="userSpaceOnUse">
<stop stop-color="#0038FF"/>
<stop offset="1" stop-color="#3B80F3"/>
</linearGradient>
<linearGradient id="paint17_linear_893_313679" x1="176.973" y1="310.416" x2="230.932" y2="310.416" gradientUnits="userSpaceOnUse">
<stop stop-color="#0038FF"/>
<stop offset="1" stop-color="#3B80F3"/>
</linearGradient>
<linearGradient id="paint18_linear_893_313679" x1="98.8086" y1="329.483" x2="152.768" y2="329.483" gradientUnits="userSpaceOnUse">
<stop stop-color="#0038FF"/>
<stop offset="1" stop-color="#3B80F3"/>
</linearGradient>
<linearGradient id="paint19_linear_893_313679" x1="19.6016" y1="352.083" x2="73.5612" y2="352.083" gradientUnits="userSpaceOnUse">
<stop stop-color="#0038FF"/>
<stop offset="1" stop-color="#3B80F3"/>
</linearGradient>
<linearGradient id="paint20_linear_893_313679" x1="261.27" y1="296.7" x2="315.229" y2="296.7" gradientUnits="userSpaceOnUse">
<stop stop-color="#0038FF"/>
<stop offset="1" stop-color="#3B80F3"/>
</linearGradient>
<linearGradient id="paint21_linear_893_313679" x1="343.863" y1="286.364" x2="397.823" y2="286.364" gradientUnits="userSpaceOnUse">
<stop stop-color="#0038FF"/>
<stop offset="1" stop-color="#3B80F3"/>
</linearGradient>
<linearGradient id="paint22_linear_893_313679" x1="132.979" y1="129.101" x2="329.687" y2="129.101" gradientUnits="userSpaceOnUse">
<stop stop-color="#0038FF"/>
<stop offset="1" stop-color="#3B80F3"/>
</linearGradient>
</defs>
</svg>
