<svg width="137" height="106" viewBox="0 0 137 106" fill="none" xmlns="http://www.w3.org/2000/svg">
<path fill-rule="evenodd" clip-rule="evenodd" d="M83.9297 4.95295C83.9297 2.66116 85.7882 0.813477 88.0692 0.813477H105.643C107.935 0.813477 109.783 2.67195 109.783 4.95295V15.6791H83.9297V4.95295ZM88.0692 4.76053C87.9622 4.76053 87.8767 4.84691 87.8767 4.95295V11.732H105.836V4.95295C105.836 4.84599 105.749 4.76053 105.643 4.76053H88.0692Z" fill="url(#paint0_linear_805_15590)"/>
<path d="M62.414 14.041H131.3C133.175 14.041 134.694 15.5606 134.694 17.4355V66.7095C134.694 68.5844 133.175 70.104 131.3 70.104H62.414C60.5391 70.104 59.0195 68.5844 59.0195 66.7095V17.4355C59.0195 15.5606 60.5391 14.041 62.414 14.041Z" fill="url(#paint1_linear_805_15590)"/>
<g style="mix-blend-mode:multiply">
<path d="M67.9142 65.9251C66.0393 65.9251 64.5197 64.4054 64.5197 62.5306V52.2929C64.5197 50.4181 66.0393 48.8985 67.9142 48.8985H134.693V17.4355C134.693 15.5606 133.174 14.041 131.299 14.041H62.4179C60.5431 14.041 59.0234 15.5606 59.0234 17.4355V66.7095C59.0234 68.5844 60.5431 70.104 62.4179 70.104H131.299C133.174 70.104 134.693 68.5844 134.693 66.7095V65.9251H67.9142Z" fill="#F3F3F3"/>
</g>
<path d="M60.9379 10.9033H132.774C134.728 10.9033 136.317 12.492 136.317 14.4458V42.7857C136.317 44.7394 134.733 46.3232 132.779 46.3232H60.9379C58.9841 46.3232 57.4004 44.7394 57.4004 42.7857V14.4458C57.4004 12.492 58.9841 10.9083 60.9379 10.9083V10.9033Z" fill="url(#paint2_linear_805_15590)"/>
<g style="mix-blend-mode:multiply">
<path d="M135.207 39.8155C132.705 42.8991 129.543 42.8497 125.763 42.8399C111.189 42.7955 112.028 42.7511 99.5303 42.7955C92.1098 42.8201 87.5115 42.8201 80.5548 39.8697C73.5537 36.9045 70.9487 30.2438 71.0325 22.9813C71.0769 18.9503 71.7923 14.9687 73.5438 11.3177C73.6129 11.1796 73.6869 11.0464 73.756 10.9082H60.9429C58.9891 10.9082 57.4004 12.492 57.4004 14.4458V42.7856C57.4004 44.7394 58.9841 46.3232 60.9429 46.3232H132.774C134.728 46.3232 136.312 44.7394 136.312 42.7856V38.2416C135.967 38.7843 135.606 39.3171 135.202 39.8155H135.207Z" fill="#F3F3F3"/>
</g>
<path d="M101.747 45.0698H91.9727V53.3093H101.747V45.0698Z" fill="url(#paint3_linear_805_15590)"/>
<path fill-rule="evenodd" clip-rule="evenodd" d="M26.8477 39.5985C26.8477 37.3067 28.7061 35.459 30.9871 35.459H48.5614C50.8532 35.459 52.7009 37.3175 52.7009 39.5985V50.3246H26.8477V39.5985ZM30.9871 39.406C30.8802 39.406 30.7947 39.4924 30.7947 39.5985V46.3775H48.7538V39.5985C48.7538 39.4915 48.6674 39.406 48.5614 39.406H30.9871Z" fill="#1E3A8A"/>
<path d="M5.33197 48.6865H74.2179C76.0928 48.6865 77.6124 50.2061 77.6124 52.081V101.355C77.6124 103.23 76.0928 104.75 74.2179 104.75H5.33197C3.45712 104.75 1.9375 103.23 1.9375 101.355V52.081C1.9375 50.2061 3.45712 48.6865 5.33197 48.6865Z" fill="url(#paint4_linear_805_15590)"/>
<g style="mix-blend-mode:multiply">
<path d="M10.8321 100.571C8.9573 100.571 7.43768 99.051 7.43768 97.1761V86.9384C7.43768 85.0636 8.9573 83.544 10.8321 83.544H77.6114V52.081C77.6114 50.2061 76.0918 48.6865 74.2169 48.6865H5.33587C3.46102 48.6865 1.94141 50.2061 1.94141 52.081V101.355C1.94141 103.23 3.46102 104.75 5.33587 104.75H74.2169C76.0918 104.75 77.6114 103.23 77.6114 101.355V100.571H10.8321Z" fill="#D1D3D4"/>
</g>
<path d="M3.85591 45.5488H75.6923C77.6461 45.5488 79.2348 47.1375 79.2348 49.0913V77.4312C79.2348 79.385 77.651 80.9687 75.6973 80.9687H3.85591C1.90212 80.9687 0.318359 79.385 0.318359 77.4312V49.0913C0.318359 47.1375 1.90212 45.5538 3.85591 45.5538V45.5488Z" fill="url(#paint5_linear_805_15590)"/>
<g style="mix-blend-mode:multiply">
<path d="M78.1247 74.461C75.6232 77.5446 72.4607 77.4953 68.6814 77.4854C54.1069 77.441 54.9456 77.3966 42.4482 77.441C35.0278 77.4657 30.4295 77.4657 23.4728 74.5152C16.4717 71.55 13.8666 64.8893 13.9505 57.6268C13.9949 53.5958 14.7103 49.6142 16.4618 45.9632C16.5309 45.8251 16.6049 45.6919 16.674 45.5537H3.86084C1.90705 45.5537 0.318359 47.1375 0.318359 49.0913V77.4311C0.318359 79.3849 1.90212 80.9687 3.86084 80.9687H75.6923C77.6461 80.9687 79.2299 79.3849 79.2299 77.4311V72.8871C78.8845 73.4298 78.5243 73.9626 78.1198 74.461H78.1247Z" fill="#D1D3D4"/>
</g>
<path d="M44.6645 79.7153H34.8906V87.9548H44.6645V79.7153Z" fill="#1E3A8A"/>
<path d="M128.019 85.6816L122.769 80.4038C121.856 79.4859 120.486 79.4859 119.573 80.4038L114.323 85.6816C113.41 86.5995 113.41 87.9764 114.323 88.8943C115.236 89.8122 116.377 89.5827 117.747 89.5827C113.638 100.368 99.4848 102.433 92.4082 93.4837C91.2668 92.1069 89.4406 91.8774 88.071 93.0248C83.5055 96.9259 94.2344 105.187 103.822 105.187C113.181 105.187 121.628 98.7616 123.91 89.5827C126.878 89.5827 127.334 89.5827 128.019 88.8943C128.932 88.2059 128.932 86.829 128.019 85.6816Z" fill="url(#paint6_linear_805_15590)"/>
<path d="M6.67208 27.7515L11.9224 33.0294C12.8355 33.9473 14.2052 33.9473 15.1183 33.0294L20.3687 27.7515C21.2818 26.8336 21.2818 25.4567 20.3687 24.5388C19.4556 23.6209 18.3142 23.8504 16.9445 23.8504C21.0535 13.0651 35.2066 10.9999 42.2832 19.9494C43.4246 21.3262 45.2508 21.5557 46.6204 20.4083C51.1859 16.5073 40.457 8.24619 30.8694 8.24619C21.51 8.2462 13.0638 14.6715 10.7811 23.8504C7.81347 23.8504 7.35691 23.8504 6.67208 24.5388C5.75898 25.2273 5.75898 26.6041 6.67208 27.7515Z" fill="url(#paint7_linear_805_15590)"/>
<defs>
<linearGradient id="paint0_linear_805_15590" x1="109.52" y1="14.7027" x2="99.1232" y2="-18.7425" gradientUnits="userSpaceOnUse">
<stop stop-color="#0038FF"/>
<stop offset="1" stop-color="#EFF6FF"/>
</linearGradient>
<linearGradient id="paint1_linear_805_15590" x1="66.7865" y1="65.22" x2="111.742" y2="-7.22159" gradientUnits="userSpaceOnUse">
<stop stop-color="#B4CDF9"/>
<stop offset="1" stop-color="#E6EFFD"/>
<stop offset="1" stop-color="#D3E6FF"/>
</linearGradient>
<linearGradient id="paint2_linear_805_15590" x1="65.5" y1="43.2375" x2="86.3819" y2="-12.3048" gradientUnits="userSpaceOnUse">
<stop stop-color="#B4CDF9"/>
<stop offset="1" stop-color="#E6EFFD"/>
<stop offset="1" stop-color="#D3E6FF"/>
</linearGradient>
<linearGradient id="paint3_linear_805_15590" x1="101.647" y1="52.7681" x2="93.9758" y2="35.9354" gradientUnits="userSpaceOnUse">
<stop stop-color="#0038FF"/>
<stop offset="1" stop-color="#EFF6FF"/>
</linearGradient>
<linearGradient id="paint4_linear_805_15590" x1="76.8416" y1="101.067" x2="29.1016" y2="-18.1334" gradientUnits="userSpaceOnUse">
<stop stop-color="#0038FF"/>
<stop offset="1" stop-color="#EFF6FF"/>
</linearGradient>
<linearGradient id="paint5_linear_805_15590" x1="78.4309" y1="78.6424" x2="58.4059" y2="-3.88802" gradientUnits="userSpaceOnUse">
<stop stop-color="#0038FF"/>
<stop offset="1" stop-color="#EFF6FF"/>
</linearGradient>
<linearGradient id="paint6_linear_805_15590" x1="128.279" y1="103.514" x2="109.574" y2="46.8438" gradientUnits="userSpaceOnUse">
<stop stop-color="#0038FF"/>
<stop offset="1" stop-color="#EFF6FF"/>
</linearGradient>
<linearGradient id="paint7_linear_805_15590" x1="6.41221" y1="9.91913" x2="25.1177" y2="66.5893" gradientUnits="userSpaceOnUse">
<stop stop-color="#0038FF"/>
<stop offset="1" stop-color="#EFF6FF"/>
</linearGradient>
</defs>
</svg>
