<svg width="112" height="112" viewBox="0 0 112 112" fill="none" xmlns="http://www.w3.org/2000/svg">
<path d="M94.9605 13.8864V65.9849H13.7705V13.8864C13.7705 7.27494 19.1744 1.85352 25.7645 1.85352H83.2301C89.6884 1.98575 94.9605 7.27494 94.9605 13.8864Z" fill="url(#paint0_linear_8099_26431)"/>
<path d="M94.96 13.886V65.9845H81.9116V1.98535H83.0978C89.6879 1.98535 94.96 7.27454 94.96 13.886Z" fill="url(#paint1_linear_8099_26431)"/>
<path d="M13.7705 13.886V65.9845H26.8189V1.98535H25.6327C19.0426 1.98535 13.7705 7.27454 13.7705 13.886Z" fill="url(#paint2_linear_8099_26431)"/>
<path d="M94.9605 64.0017V65.9851H13.7705V64.0017C13.7705 57.3902 19.1744 52.101 25.7645 52.101H83.2301C89.6884 51.9688 94.9605 57.3902 94.9605 64.0017Z" fill="#C1D0FE"/>
<path d="M92.0621 63.0752H16.6714C17.0668 58.9761 20.0982 55.8026 24.0523 55.0092C24.4477 54.877 24.8431 54.877 25.2385 54.877C25.3703 54.877 25.5021 54.877 25.7657 54.877H83.2313C84.154 54.877 85.0766 55.0092 85.8674 55.2736C86.2628 55.4059 86.6582 55.5381 87.0536 55.6703C89.8214 57.1249 91.7985 59.9017 92.0621 63.0752Z" fill="#D8E2EB"/>
<path d="M85.7331 55.274V110.414C85.7331 111.339 85.0741 112.001 84.1515 112.001H25.6314C24.7088 112.001 24.0498 111.339 24.0498 110.414V55.0096C24.4452 54.8774 24.8406 54.8773 25.236 54.8773C25.3678 54.8773 25.4996 54.8773 25.7632 54.8773H58.4501C58.8455 54.8773 59.2409 54.7451 59.6363 54.7451C60.0317 54.7451 60.2953 54.7451 60.5589 54.8773H83.2289C84.0197 54.8773 84.9423 55.0096 85.7331 55.274Z" fill="#99E5CD"/>
<path d="M81.9104 54.8773V106.579C81.9104 107.505 81.2513 108.166 80.3287 108.166H29.4532C28.5306 108.166 27.8716 107.505 27.8716 106.579V54.8773H58.4496C58.845 54.8773 59.2404 54.7451 59.6358 54.7451C60.0312 54.7451 60.2948 54.7451 60.5584 54.8773H81.9104Z" fill="url(#paint3_linear_8099_26431)"/>
<path d="M72.0253 54.877C72.9479 56.1993 73.7387 57.6538 74.1341 59.2405C74.3977 60.4306 74.6613 61.4884 74.6613 62.8107C74.6613 62.943 74.6613 63.0752 74.6613 63.0752C74.3977 71.6701 65.6988 78.6783 55.0229 78.6783C44.3469 78.6783 35.648 71.6701 35.3844 63.0752C35.3844 62.943 35.3844 62.8107 35.3844 62.8107C35.3844 61.6207 35.5162 60.4306 35.9116 59.2405C36.307 57.6538 37.0978 56.1993 38.0204 54.877H31.9575V94.9426C34.4618 94.9426 36.8342 95.8682 38.5476 97.7194C40.261 99.4384 41.3155 101.818 41.3155 104.331H68.9939C68.9939 101.818 69.9165 99.4384 71.7617 97.7194C73.4751 96.0004 75.8475 94.9426 78.3518 94.9426V54.877H72.0253Z" fill="#99E5CD"/>
<path opacity="0.6" d="M92.0621 63.0752H16.6714C17.0668 58.9761 20.0982 55.8026 24.0523 55.0092C24.4477 54.877 24.8431 54.877 25.2385 54.877C25.3703 54.877 25.5021 54.877 25.7657 54.877H83.2313C84.154 54.877 85.0766 55.0092 85.8674 55.2736C86.2628 55.4059 86.6582 55.5381 87.0536 55.6703C89.8214 57.1249 91.7985 59.9017 92.0621 63.0752Z" fill="url(#paint4_linear_8099_26431)"/>
<path d="M52.3897 12.4682L42.7681 24.6333C41.9773 25.6912 42.1091 27.2779 43.1635 28.0713C43.559 28.468 44.0862 28.6002 44.7452 28.6002H49.3582V40.6331C49.3582 41.9554 50.4127 43.1455 51.8625 43.1455H57.0027C58.3208 43.1455 59.507 42.0877 59.507 40.6331V28.6002H64.12C65.4381 28.6002 66.6243 27.5424 66.6243 26.2201C66.6243 25.6912 66.4925 25.1623 66.0971 24.6333L56.4755 12.4682C55.5529 11.4104 53.9713 11.1459 52.7851 12.0715C52.6533 12.2038 52.5215 12.336 52.3897 12.4682Z" fill="#8BA9D8"/>
<path d="M53.9578 12.2054C53.108 12.3542 52.5133 13.0734 51.9755 13.748L42.7681 25.2945C41.9773 26.3523 42.1091 27.9391 43.1635 28.7325C43.559 29.1291 44.0862 29.2614 44.7452 29.2614H49.3582V41.2943C49.3582 42.6166 50.4127 43.8066 51.8625 43.8066H57.0027C58.3208 43.8066 59.507 42.7488 59.507 41.2943V29.2614H64.12C65.4381 29.2614 66.6243 28.2035 66.6243 26.8812C66.6243 26.3523 66.4925 25.8234 66.0971 25.2945L56.4755 13.1294C55.8359 12.396 54.8795 12.0439 53.9578 12.2054Z" fill="#C1D0FE"/>
<defs>
<linearGradient id="paint0_linear_8099_26431" x1="13.6207" y1="1.85351" x2="116.976" y2="45.0135" gradientUnits="userSpaceOnUse">
<stop stop-color="#E0EAFC"/>
<stop offset="1" stop-color="#CFDEF3"/>
</linearGradient>
<linearGradient id="paint1_linear_8099_26431" x1="94.9598" y1="33.9849" x2="81.9143" y2="32.5559" gradientUnits="userSpaceOnUse">
<stop stop-color="#C3D5F3"/>
<stop offset="1" stop-color="#D6E3F7"/>
</linearGradient>
<linearGradient id="paint2_linear_8099_26431" x1="26.8187" y1="30.9911" x2="13.7705" y2="31.1899" gradientUnits="userSpaceOnUse">
<stop stop-color="#DDE8FB"/>
<stop offset="1" stop-color="#C3D5F3"/>
</linearGradient>
<linearGradient id="paint3_linear_8099_26431" x1="64.9763" y1="104.341" x2="78.1705" y2="-20.875" gradientUnits="userSpaceOnUse">
<stop stop-color="#20C992"/>
<stop offset="1" stop-color="#EAF9F1"/>
</linearGradient>
<linearGradient id="paint4_linear_8099_26431" x1="54.3911" y1="54.8271" x2="54.3911" y2="62.95" gradientUnits="userSpaceOnUse">
<stop stop-color="#343C5C"/>
<stop offset="1" stop-color="#32416E" stop-opacity="0"/>
</linearGradient>
</defs>
</svg>
