<svg width="112" height="112" viewBox="0 0 112 112" fill="none" xmlns="http://www.w3.org/2000/svg">
<path d="M106.381 8.24181V33.2901C106.381 36.7758 103.779 39.5319 100.487 39.5319H10.2425C6.95112 39.5319 4.34863 36.7758 4.34863 33.2901V8.24181C4.34863 4.75612 6.95112 2 10.2425 2H100.487C103.779 2 106.381 4.75612 106.381 8.24181Z" fill="url(#paint0_linear_8099_26410)"/>
<path d="M94.8237 19.024V39.5329H15.5244V19.024C15.5244 15.5384 18.1269 12.7822 21.4183 12.7822H88.9298C92.2212 12.7822 94.8237 15.6194 94.8237 19.024Z" fill="#E1ECFA"/>
<path opacity="0.5" d="M94.8237 19.024V39.5329H15.5244V19.024C15.5244 15.5384 18.1269 12.7822 21.4183 12.7822H88.9298C92.2212 12.7822 94.8237 15.6194 94.8237 19.024Z" fill="url(#paint1_linear_8099_26410)"/>
<path d="M97.3567 93.6024C97.4378 95.7911 96.0596 97.8177 94.0329 98.4662L74.252 105.275C56.0926 111.436 61.281 111.436 43.3647 105.356C35.7442 102.762 39.8787 105.113 17.0173 87.4417C15.1527 86.2257 14.1798 84.8477 13.6123 82.8211C13.6123 82.8211 13.5313 82.5779 13.5313 82.4158C13.4502 82.4158 13.3691 80.9567 13.3691 80.8756C13.3691 74.877 20.0168 71.1481 25.1242 74.3095L47.175 87.928C47.175 87.4417 47.175 87.3606 47.175 86.7121C47.0939 86.7121 47.175 85.5772 47.175 85.5772V85.9825C47.175 86.1447 47.175 86.2257 47.256 86.3879C47.3371 86.1447 47.3371 85.9015 47.4182 85.6583C47.256 85.0098 47.175 84.3613 47.175 83.7128C47.175 81.6052 48.0667 79.6597 49.4449 78.2816C50.8231 76.9035 52.7687 76.0119 54.8765 76.0119L94.6814 78.2816C95.8975 78.3627 96.8703 79.3354 96.8703 80.5514L96.9514 84.1181V84.4424L97.3567 93.6024Z" fill="url(#paint2_linear_8099_26410)"/>
<path d="M97.3567 93.6024C97.4378 95.7911 96.0596 97.8177 94.0329 98.4662L74.252 105.275C56.0926 111.436 61.281 111.436 43.3647 105.356C35.7442 102.762 39.8787 105.113 17.0173 87.4417C15.1527 86.2257 14.1798 84.8477 13.6123 82.8211C13.6123 82.8211 13.5313 82.5779 13.5313 82.4158C13.4502 82.4158 13.3691 80.9567 13.3691 80.8756C13.3691 74.877 20.0168 71.1481 25.1242 74.3095L47.175 87.928C47.175 87.4417 47.175 87.3606 47.175 86.7121C47.0939 86.7121 47.175 85.5772 47.175 85.5772V85.9825C47.175 86.1447 47.175 86.2257 47.256 86.3879C47.3371 86.1447 47.3371 85.9015 47.4182 85.6583C47.256 85.0098 47.175 84.3613 47.175 83.7128C47.175 81.6052 48.0667 79.6597 49.4449 78.2816C50.8231 76.9035 52.7687 76.0119 54.8765 76.0119L94.6814 78.2816C95.8975 78.3627 96.8703 79.3354 96.8703 80.5514L96.9514 84.1181V84.4424L97.3567 93.6024Z" fill="url(#paint3_linear_8099_26410)"/>
<path d="M54.875 91.4157H74.8991L54.3886 92.875C50.0919 92.875 46.687 89.389 46.687 85.1734C46.687 84.1195 46.9302 83.0656 47.2545 82.1738C47.2545 82.7413 47.1734 83.2277 47.1734 83.7141C47.1734 88.0108 50.6594 91.4157 54.875 91.4157Z" fill="white"/>
<path d="M89.7373 53.055L89.8184 42.3548L86.0892 42.679H83.1708C70.4429 36.0319 45.3115 36.9236 30.9622 43.5707L20.9907 46.0026L20.9097 56.2165C20.9097 56.3786 20.9097 56.5407 20.9097 56.6218V56.865C21.2339 62.134 28.7734 66.7546 41.3391 68.3759C65.9841 71.6184 89.5752 62.2962 89.7373 53.055Z" fill="url(#paint4_linear_8099_26410)"/>
<path d="M41.4298 57.9265C24.0811 55.6568 16.2984 47.7124 24 40.2547C35.1065 29.4734 69.4798 26.6361 84.2344 35.3098C102.475 45.8479 72.8847 62.0607 41.4298 57.9265Z" fill="url(#paint5_linear_8099_26410)"/>
<path d="M80.6677 47.6318C79.7759 48.4424 78.8032 49.2529 77.5061 49.9825C77.2629 50.1446 77.0197 50.3068 76.6954 50.469C75.7226 51.0364 74.5875 51.5227 73.3715 52.0091C72.8851 52.1712 72.3986 52.4145 71.9122 52.5767C68.9937 53.6305 65.751 54.4411 62.2651 55.0085C61.6165 55.0896 60.968 55.1705 60.3195 55.2516C59.2656 55.4137 58.1305 55.4947 56.9956 55.5757C52.6989 55.9 48.2401 55.819 44.0245 55.2516C30.0806 53.3871 23.7572 47.0642 29.9995 40.9845C36.2418 34.9048 52.6179 31.5003 66.5618 33.3647C71.507 34.0132 75.6414 35.2291 78.641 37.0125C83.7483 39.9307 84.559 43.984 80.6677 47.6318Z" stroke="url(#paint6_linear_8099_26410)" stroke-width="1.5" stroke-miterlimit="10"/>
<circle cx="97.9852" cy="7.8539" r="2.25136" fill="url(#paint7_linear_8099_26410)"/>
<circle cx="89.8798" cy="7.8539" r="2.25136" fill="white"/>
<defs>
<linearGradient id="paint0_linear_8099_26410" x1="4.16031" y1="2" x2="88.7117" y2="77.8183" gradientUnits="userSpaceOnUse">
<stop stop-color="#E0EAFC"/>
<stop offset="1" stop-color="#CFDEF3"/>
</linearGradient>
<linearGradient id="paint1_linear_8099_26410" x1="55.174" y1="-41.4829" x2="40.1923" y2="75.4378" gradientUnits="userSpaceOnUse">
<stop stop-color="#2563EB"/>
<stop offset="0.705823" stop-color="#BFDBFE"/>
</linearGradient>
<linearGradient id="paint2_linear_8099_26410" x1="13.9428" y1="91.6014" x2="97.1645" y2="91.6014" gradientUnits="userSpaceOnUse">
<stop stop-color="#BDCFFF"/>
<stop offset="1" stop-color="#91A5FF" stop-opacity="0.5"/>
</linearGradient>
<linearGradient id="paint3_linear_8099_26410" x1="13.2141" y1="73.1582" x2="93.2759" y2="133.517" gradientUnits="userSpaceOnUse">
<stop stop-color="#E0EAFC"/>
<stop offset="1" stop-color="#CFDEF3"/>
</linearGradient>
<linearGradient id="paint4_linear_8099_26410" x1="30.2554" y1="37.7882" x2="102.358" y2="103.771" gradientUnits="userSpaceOnUse">
<stop stop-color="#FDE047"/>
<stop offset="1" stop-color="#FEF9C3"/>
</linearGradient>
<linearGradient id="paint5_linear_8099_26410" x1="20.8169" y1="29.8962" x2="88.1912" y2="62.493" gradientUnits="userSpaceOnUse">
<stop stop-color="#FACC15"/>
<stop offset="1" stop-color="#FDE047"/>
</linearGradient>
<linearGradient id="paint6_linear_8099_26410" x1="18.7568" y1="29.9024" x2="67.0225" y2="58.2836" gradientUnits="userSpaceOnUse">
<stop stop-color="#EAB308"/>
<stop offset="1" stop-color="#FACC15"/>
</linearGradient>
<linearGradient id="paint7_linear_8099_26410" x1="100.191" y1="9.80952" x2="95.5433" y2="1.2127" gradientUnits="userSpaceOnUse">
<stop stop-color="#0038FF"/>
<stop offset="1" stop-color="#EFF6FF"/>
</linearGradient>
</defs>
</svg>
