<svg width="112" height="112" viewBox="0 0 112 112" fill="none" xmlns="http://www.w3.org/2000/svg">
<path d="M94.606 54.9261H57.1276C55.4981 54.9261 53.8687 53.2927 53.8687 51.6593V14.0918C53.8687 10.8251 51.4244 9.19169 48.9802 8.375H48.1655C22.9084 11.6417 5.79875 35.3256 9.05773 60.6429C12.3167 85.9601 35.9443 103.111 61.2014 99.8438C81.57 97.3937 97.8649 81.06 100.309 60.6429C100.309 58.1928 97.8649 54.9261 94.606 54.9261C95.4207 54.9261 94.606 54.9261 94.606 54.9261Z" fill="url(#paint0_linear_8099_26499)"/>
<path d="M63.645 4.29155V41.0424C63.645 43.4924 65.2745 45.1258 67.7187 45.1258H104.382C106.827 45.1258 108.456 43.4924 108.456 41.0424C106.827 20.6253 88.9021 1.0248 67.7187 0.208119C65.2745 -0.608566 63.645 1.0248 63.645 4.29155C63.645 4.29155 63.645 3.47486 63.645 4.29155Z" fill="url(#paint1_linear_8099_26499)"/>
<path d="M39.8694 95.0557C39.553 93.1439 39.0177 91.5473 38.5024 90.3199C38.4926 90.2963 38.482 90.2735 38.4708 90.2505C37.3585 87.9695 35.807 85.2671 33.6473 82.4499C31.2695 79.3478 28.8174 76.9709 26.7161 75.2085C26.4192 74.9594 26.2481 74.592 26.2481 74.2045V73.3474C26.2481 73.1063 26.3145 72.8699 26.4402 72.6642C27.6933 70.6111 28.9461 68.5582 30.1991 66.505C30.787 65.5421 29.9648 64.3353 28.8534 64.5301C27.9043 64.6965 26.9549 64.8627 26.0058 65.0291C25.5808 65.1035 25.1464 64.9642 24.8442 64.6567L22.5115 62.2833C21.9977 61.7604 21.1549 61.7604 20.6407 62.2833L18.3084 64.6567C18.0059 64.9645 17.5715 65.1038 17.1468 65.0291C16.1977 64.8627 15.2483 64.6965 14.2992 64.5301C13.1878 64.3353 12.3655 65.5418 12.9534 66.505C14.2065 68.5582 15.4593 70.6111 16.7124 72.6642C16.8378 72.8699 16.9045 73.1063 16.9045 73.3474V74.2045C16.9045 74.592 16.7333 74.9594 16.4364 75.2085C14.3352 76.9709 11.883 79.3478 9.50523 82.4499C7.34553 85.2674 5.79408 87.9695 4.68176 90.2505C4.67055 90.2735 4.66022 90.2963 4.65018 90.3199C4.1349 91.547 3.59955 93.1436 3.28318 95.0557C2.85083 97.6669 2.9857 99.9054 3.21176 101.499C3.2153 101.525 3.21973 101.55 3.22504 101.576C3.50511 102.953 4.31139 105.92 6.83644 108.611C7.70086 109.533 8.59743 110.241 9.42791 110.784C10.6414 111.578 12.0607 112 13.5109 112H29.6417C31.0919 112 32.5111 111.578 33.7247 110.784C34.5551 110.241 35.4517 109.533 36.3161 108.611C38.8412 105.92 39.6475 102.953 39.9275 101.576C39.9328 101.55 39.937 101.525 39.9408 101.499C40.1669 99.9054 40.3017 97.6669 39.8694 95.0557Z" fill="url(#paint2_linear_8099_26499)"/>
<path opacity="0.12" d="M14.7101 64.6022C16.0313 67.7343 17.3526 70.8665 18.6735 73.9983C15.9047 78.6279 14.6345 81.0183 14.8621 81.1709C15.1052 81.3335 17.0575 78.9425 20.7184 73.9983C20.1937 70.6003 19.669 67.2022 19.144 63.8042C18.9598 63.9972 18.7948 64.1648 18.6564 64.3032C18.1754 64.7843 18.0095 64.9171 17.7681 64.9888C17.599 65.039 17.4355 65.0467 17.4157 65.0473C17.2906 65.0523 17.1959 65.0396 16.9111 64.99C16.7187 64.9566 16.6227 64.9398 16.4737 64.9112C16.3852 64.8941 16.1762 64.8566 15.758 64.7816C15.5087 64.7371 15.1545 64.6748 14.7095 64.6019L14.7101 64.6022Z" fill="black"/>
<path opacity="0.12" d="M24.845 64.6568C25.1475 64.9646 25.5819 65.1039 26.0066 65.0292C26.9557 64.8628 27.9051 64.6966 28.8543 64.5302C29.9657 64.3354 30.7879 65.5418 30.2 66.5051C28.9469 68.5583 27.6941 70.6112 26.441 72.6643C26.3156 72.87 26.2489 73.1064 26.2489 73.3475V74.2045C26.2489 74.592 26.4201 74.9595 26.717 75.2086C28.8182 76.971 31.2704 79.3479 33.6482 82.4499C35.8079 85.2675 37.3594 87.9696 38.4717 90.2506C38.4829 90.2736 38.4932 90.2963 38.5032 90.32C39.0185 91.5471 39.5539 93.1437 39.8703 95.0558C40.3026 97.667 40.1677 99.9055 39.9417 101.499C39.9381 101.525 39.9337 101.55 39.9284 101.576C39.6483 102.953 38.842 105.92 36.317 108.611C35.4526 109.533 34.556 110.242 33.7255 110.785C32.512 111.578 31.0927 112 29.6425 112H21.5771C27.5058 111.314 30.3127 108.568 31.2498 107.526C37.2106 100.892 34.3178 88.8198 30.6182 84.2791C28.1749 81.2804 24.3135 76.5413 23.4494 75.8915C23.383 75.8416 23.0876 75.6303 22.891 75.2428C22.644 74.7558 22.6971 74.2733 22.7308 73.9451C22.94 71.9112 22.801 72.5082 22.9202 71.593C23.3131 68.5789 24.1686 66.2085 24.845 64.6568Z" fill="black"/>
<path d="M26.2371 74.887H16.9142C16.4237 74.887 16.0259 74.4892 16.0259 73.9987C16.0259 73.5082 16.4237 73.1104 16.9142 73.1104H26.2371C26.7276 73.1104 27.1254 73.5082 27.1254 73.9987C27.1254 74.4892 26.7276 74.887 26.2371 74.887Z" fill="url(#paint3_linear_8099_26499)"/>
<defs>
<linearGradient id="paint0_linear_8099_26499" x1="99.3756" y1="94.2086" x2="4.43143" y2="-81.0003" gradientUnits="userSpaceOnUse">
<stop stop-color="#0038FF"/>
<stop offset="1" stop-color="#EFF6FF"/>
</linearGradient>
<linearGradient id="paint1_linear_8099_26499" x1="63.5623" y1="-4.48666e-07" x2="124.064" y2="19.8171" gradientUnits="userSpaceOnUse">
<stop stop-color="#E0EAFC"/>
<stop offset="1" stop-color="#CFDEF3"/>
</linearGradient>
<linearGradient id="paint2_linear_8099_26499" x1="28.5101" y1="108.412" x2="45.2373" y2="-7.94029" gradientUnits="userSpaceOnUse">
<stop stop-color="#20C992"/>
<stop offset="1" stop-color="#EAF9F1"/>
</linearGradient>
<linearGradient id="paint3_linear_8099_26499" x1="15.9917" y1="73.0914" x2="21.2405" y2="79.6383" gradientUnits="userSpaceOnUse">
<stop stop-color="#FACC15"/>
<stop offset="1" stop-color="#FDE047"/>
</linearGradient>
</defs>
</svg>
