<svg width="112" height="113" viewBox="0 0 112 113" fill="none" xmlns="http://www.w3.org/2000/svg">
<path d="M84.1036 104.737C84.1036 108.91 80.7307 112.407 76.4582 112.407H35.6454C31.4854 112.407 28 109.023 28 104.737V8.41481C28 4.24159 31.373 0.745117 35.6454 0.745117H76.7955C80.9555 0.745117 84.4409 4.1288 84.4409 8.41481V104.85H84.1036V104.737Z" fill="white"/>
<path d="M76.7955 0.745117C80.9555 0.745117 84.4409 4.1288 84.4409 8.4148V105.075C84.4409 109.249 81.068 112.745 76.7955 112.745H35.6454C31.4854 112.745 28 109.361 28 105.075V8.4148C28 4.24159 31.373 0.745117 35.6454 0.745117H76.7955Z" fill="url(#paint0_linear_8099_26613)"/>
<path d="M80.5051 8.07655V104.737C80.5051 106.429 79.4932 107.782 77.9192 108.234C77.5819 108.346 77.2446 108.346 76.7949 108.346H35.6447C35.4198 108.346 35.195 108.346 35.0825 108.346C33.2836 108.008 32.0469 106.542 32.0469 104.737V8.41492C32.0469 6.4975 33.2836 5.03123 35.0825 4.80565C35.3074 4.80565 35.4198 4.80565 35.6447 4.80565H41.716C42.5031 4.80565 43.0652 5.3696 43.0652 6.15913C43.0652 7.73818 44.4144 9.09165 45.9885 9.09165H66.9008C68.4749 9.09165 69.8241 7.73818 69.8241 6.15913C69.7116 5.25681 70.2738 4.69286 71.0608 4.69286H76.7949V4.46729C77.1321 4.46729 77.5819 4.46728 77.9192 4.58007C79.4932 5.03123 80.5051 6.38471 80.5051 8.07655Z" fill="white"/>
<path d="M59.8191 5.70796H54.31C53.7478 5.70796 53.5229 5.14401 53.5229 4.91843C53.5229 4.35449 54.0851 4.12891 54.31 4.12891H59.8191C60.3813 4.12891 60.6062 4.69285 60.6062 4.91843C60.6062 5.48238 60.2689 5.70796 59.8191 5.70796Z" fill="#2D5887"/>
<path d="M51.1618 5.70796H50.9369C50.3748 5.70796 50.1499 5.14401 50.1499 4.91843C50.1499 4.35449 50.7121 4.12891 50.9369 4.12891H51.1618C51.7239 4.12891 51.9488 4.69285 51.9488 4.91843C51.9488 5.48238 51.7239 5.70796 51.1618 5.70796Z" fill="#2D5887"/>
<path d="M74.4347 82.9686H38.5689C36.6575 82.9686 35.0835 81.3896 35.0835 79.4721V34.4691C35.0835 32.5517 36.6575 30.9727 38.5689 30.9727H74.4347C76.3461 30.9727 77.9201 32.5517 77.9201 34.4691V79.4721C77.9201 81.3896 76.3461 82.9686 74.4347 82.9686Z" fill="white"/>
<path d="M74.4347 82.9686H38.5689C36.6575 82.9686 35.0835 81.3896 35.0835 79.4721V34.4691C35.0835 32.5517 36.6575 30.9727 38.5689 30.9727H74.4347C76.3461 30.9727 77.9201 32.5517 77.9201 34.4691V79.4721C77.9201 81.3896 76.3461 82.9686 74.4347 82.9686Z" fill="#F5F7FD" stroke="#E4E8F5" stroke-width="0.9843" stroke-linecap="round" stroke-linejoin="round" stroke-dasharray="1.98 1.98"/>
<path d="M77.9187 4.58007V22.288C77.9187 24.2055 76.3446 25.7845 74.4333 25.7845H38.5674C36.6561 25.7845 35.082 24.2055 35.082 22.288V4.69286C35.3069 4.69286 35.4193 4.69286 35.6442 4.69286H41.7155C42.5026 4.69286 43.0647 5.25681 43.0647 6.04634C43.0647 7.62539 44.4139 8.97887 45.9879 8.97887H66.9003C68.4744 8.97887 69.8236 7.62539 69.8236 6.04634C69.7111 5.25681 70.2733 4.69286 71.0603 4.69286H76.7943V4.46729C77.2441 4.46729 77.5814 4.46728 77.9187 4.58007Z" fill="#EAEEF9"/>
<path d="M77.9187 91.4281V108.347C77.5814 108.459 77.2441 108.459 76.7943 108.459H35.6442C35.4193 108.459 35.1945 108.459 35.082 108.459V91.4281C35.082 89.5107 36.6561 87.9316 38.5674 87.9316H74.4333C76.3446 87.9316 77.9187 89.5107 77.9187 91.4281Z" fill="#EAEEF9"/>
<path d="M84.6669 13.8283C85.0042 16.7608 82.5307 20.1445 79.0453 20.1445C76.0096 20.1445 73.4237 17.3248 73.4237 14.1667V14.2795C73.3112 18.0015 70.2802 19.8405 67.1321 19.051H66.7902C64.5415 18.5998 62.1805 17.3248 62.1805 14.3923C62.1805 17.5504 59.7069 20.1445 56.5588 20.1445C53.4107 20.1445 50.9372 17.212 50.9372 14.1667C50.9372 17.3248 48.3513 20.1445 45.3156 20.1445C42.1675 20.1445 39.694 17.5504 39.694 14.3923C39.694 17.4376 37.2205 20.1445 34.0724 20.1445C30.9243 20.1445 28.226 17.5504 28.4508 13.8283C28.4508 10.4446 27.6638 12.0237 34.747 3.90283H78.4831C85.229 11.9109 84.6669 10.219 84.6669 13.8283Z" fill="url(#paint1_linear_8099_26613)"/>
<path d="M51.0475 14.8434C51.0475 14.6178 51.0475 14.2795 51.0475 14.0539C51.0475 17.212 48.4616 20.1445 45.3135 20.1445C42.1654 20.1445 39.6919 17.5504 39.6919 14.3923C39.6919 14.505 39.6919 14.6178 39.6919 14.7306C39.8043 10.5574 39.1297 12.5876 43.2897 5.03073L44.0767 3.90283H53.2962C50.4854 12.8132 50.9351 10.219 51.0475 14.8434Z" fill="white"/>
<path d="M73.423 14.28C73.423 18.1148 69.8252 20.5962 66.7895 19.9194H66.6771C64.2036 19.4683 62.1798 16.9869 62.1798 14.0544C62.1798 10.4451 62.5171 12.137 59.9312 3.79053H69.1506L69.9376 4.91842C73.6479 12.0242 73.423 10.5579 73.423 14.28Z" fill="white"/>
<path d="M72.8612 95.1499V108.459H40.2559V95.1499C40.2559 94.3603 40.818 93.7964 41.605 93.7964H71.6244C72.1866 93.7964 72.8612 94.3603 72.8612 95.1499Z" fill="white"/>
<path d="M53.8609 108.459H49.4761L51.7247 105.978L53.7485 108.347L53.8609 108.459Z" fill="#CED7E2"/>
<path d="M62.8551 108.459H53.748V108.347L58.2453 103.271L62.8551 108.459Z" fill="#EAEEF9"/>
<path d="M50.3753 103.722C51.493 103.722 52.3991 102.813 52.3991 101.692C52.3991 100.571 51.493 99.6616 50.3753 99.6616C49.2576 99.6616 48.3516 100.571 48.3516 101.692C48.3516 102.813 49.2576 103.722 50.3753 103.722Z" fill="#CED7E2"/>
<path opacity="0.2" d="M84.5538 11.573H28.4502C28.5626 11.1218 28.6751 10.7835 29.0124 10.4451L34.634 3.79053H78.37L83.9917 10.4451C84.3289 10.7835 84.4414 11.1218 84.5538 11.573Z" fill="url(#paint2_linear_8099_26613)"/>
<path d="M71.5616 53.2131H41.4406C40.7119 53.2131 40.2261 52.5879 40.2261 51.9627C40.2261 51.2125 40.8334 50.7124 41.4406 50.7124H71.5616C72.2904 50.7124 72.7762 51.3376 72.7762 51.9627C72.7762 52.5879 72.2904 53.2131 71.5616 53.2131Z" fill="url(#paint3_linear_8099_26613)"/>
<path d="M71.5616 63.2292H41.4406C40.7119 63.2292 40.2261 62.604 40.2261 61.9789C40.2261 61.2287 40.8334 60.7285 41.4406 60.7285H71.5616C72.2904 60.7285 72.7762 61.3537 72.7762 61.9789C72.7762 62.604 72.2904 63.2292 71.5616 63.2292Z" fill="url(#paint4_linear_8099_26613)"/>
<defs>
<linearGradient id="paint0_linear_8099_26613" x1="83.866" y1="105.389" x2="-53.9592" y2="-23.088" gradientUnits="userSpaceOnUse">
<stop stop-color="#0038FF"/>
<stop offset="1" stop-color="#EFF6FF"/>
</linearGradient>
<linearGradient id="paint1_linear_8099_26613" x1="84.1244" y1="19.0778" x2="78.0205" y2="-20.0419" gradientUnits="userSpaceOnUse">
<stop stop-color="#0038FF"/>
<stop offset="1" stop-color="#EFF6FF"/>
</linearGradient>
<linearGradient id="paint2_linear_8099_26613" x1="56.4974" y1="10.6012" x2="56.4974" y2="3.15575" gradientUnits="userSpaceOnUse">
<stop offset="0.00289017" stop-color="#3F5073" stop-opacity="0"/>
<stop offset="1" stop-color="#283247"/>
</linearGradient>
<linearGradient id="paint3_linear_8099_26613" x1="40.166" y1="50.7124" x2="42.67" y2="61.4632" gradientUnits="userSpaceOnUse">
<stop stop-color="#E0EAFC"/>
<stop offset="1" stop-color="#CFDEF3"/>
</linearGradient>
<linearGradient id="paint4_linear_8099_26613" x1="40.166" y1="60.7285" x2="42.67" y2="71.4794" gradientUnits="userSpaceOnUse">
<stop stop-color="#E0EAFC"/>
<stop offset="1" stop-color="#CFDEF3"/>
</linearGradient>
</defs>
</svg>
