<svg width="112" height="112" viewBox="0 0 112 112" fill="none" xmlns="http://www.w3.org/2000/svg">
<path d="M87.4114 103.135C87.4114 107.234 84.0928 110.668 79.8893 110.668H39.7349C35.6421 110.668 32.2129 107.344 32.2129 103.135V8.53273C32.2129 4.43404 35.5314 1 39.7349 1H80.2212C84.314 1 87.7432 4.32326 87.7432 8.53273V103.246H87.4114V103.135Z" fill="white"/>
<path d="M80.2212 1C84.314 1 87.7432 4.32326 87.7432 8.53273V103.467C87.7432 107.566 84.4247 111 80.2212 111H39.7349C35.6421 111 32.2129 107.677 32.2129 103.467V8.53273C32.2129 4.43404 35.5314 1 39.7349 1H80.2212Z" fill="url(#paint0_linear_8099_26534)"/>
<path d="M83.8166 8.58925V103.524C83.8166 105.185 82.821 106.515 81.2724 106.958C80.9405 107.069 80.6087 107.069 80.1662 107.069H39.6799C39.4587 107.069 39.2374 107.069 39.1268 107.069C37.3569 106.736 36.1401 105.296 36.1401 103.524V8.92157C36.1401 7.03839 37.3569 5.59831 39.1268 5.37676C39.3481 5.37676 39.4587 5.37676 39.6799 5.37676H45.6533C46.4276 5.37676 46.9807 5.93064 46.9807 6.70606C46.9807 8.25692 48.3081 9.58623 49.8568 9.58623H70.4318C71.9804 9.58623 73.3078 8.25692 73.3078 6.70606C73.3078 5.93064 73.8592 5.04443 74.6335 5.04443H80.2768C80.6087 5.04443 81.0511 5.04443 81.383 5.15521C82.7104 5.59831 83.8166 6.92762 83.8166 8.58925Z" fill="url(#paint1_linear_8099_26534)"/>
<path d="M62.6878 5.87263H57.2675C56.7144 5.87263 56.4932 5.31876 56.4932 5.09721C56.4932 4.54333 57.0463 4.32178 57.2675 4.32178H62.6878C63.1303 4.32178 63.4621 4.87565 63.4621 5.09721C63.4621 5.65108 63.1303 5.87263 62.6878 5.87263Z" fill="url(#paint2_linear_8099_26534)"/>
<path d="M73.1206 45.0782C73.1206 48.5972 71.7123 51.8033 69.5217 54.1493C69.3652 54.3839 69.1305 54.5403 68.8958 54.7749C66.5486 56.9644 63.4191 58.2938 59.9766 58.2938C57.2382 58.2938 54.6564 57.4336 52.4657 55.9478C51.8398 55.5568 51.2921 55.0094 50.7444 54.5403C48.3191 52.1161 46.8325 48.8318 46.8325 45.1564C46.8325 37.8058 52.7004 31.9409 59.9766 31.9409C67.2528 31.9409 73.1206 37.8058 73.1206 45.0782Z" fill="#E9F0F8"/>
<path d="M73.1206 45.0782C73.1206 48.91 71.4776 52.3507 68.8958 54.6967C66.5486 56.8862 63.4191 58.2156 59.9766 58.2156C57.2382 58.2156 54.6564 57.3554 52.4657 55.8696C49.0232 53.5237 46.8325 49.5356 46.8325 45.0782C46.8325 37.8058 52.7004 31.9409 59.9766 31.9409C67.2528 31.9409 73.1206 37.8058 73.1206 45.0782Z" fill="#E9F0F8"/>
<mask id="mask0_8099_26534" style="mask-type:alpha" maskUnits="userSpaceOnUse" x="45" y="30" width="30" height="30">
<path d="M73.1177 45.0773C73.1177 48.5962 71.7094 51.8023 69.5187 54.1483C69.3623 54.3829 69.1276 54.5393 68.8928 54.7739C66.5457 56.9634 63.4161 58.2928 59.9736 58.2928C57.2353 58.2928 54.6534 57.4326 52.4628 55.9469C51.8369 55.5559 51.2892 55.0085 50.7415 54.5393C48.3161 52.1151 46.8296 48.8308 46.8296 45.1555C46.8296 37.8048 52.6975 31.9399 59.9736 31.9399C67.2498 31.9399 73.1177 37.8048 73.1177 45.0773Z" fill="#E9F0F8"/>
<path d="M73.1177 45.0773C73.1177 48.909 71.4747 52.3497 68.8928 54.6957C66.5457 56.8852 63.4161 58.2146 59.9736 58.2146C57.2353 58.2146 54.6534 57.3544 52.4628 55.8687C49.0203 53.5227 46.8296 49.5346 46.8296 45.0773C46.8296 37.8048 52.6975 31.9399 59.9736 31.9399C67.2498 31.9399 73.1177 37.8048 73.1177 45.0773Z" fill="#E9F0F8"/>
<path fill-rule="evenodd" clip-rule="evenodd" d="M59.9744 32.9555C53.2582 32.9555 47.8452 38.3665 47.8452 45.078C47.8452 49.1983 49.8687 52.8725 53.0339 55.03C55.0678 56.4092 57.4529 57.2004 59.9744 57.2004C63.1495 57.2004 66.0343 55.9758 68.2013 53.9543L68.211 53.9452L68.2111 53.9453C70.5875 51.786 72.1036 48.6153 72.1036 45.078C72.1036 38.3665 66.6905 32.9555 59.9744 32.9555ZM45.8154 45.078C45.8154 37.2445 52.1382 30.9258 59.9744 30.9258C67.8106 30.9258 74.1333 37.2445 74.1333 45.078C74.1333 49.2017 72.3654 52.9105 69.581 55.4431C67.0542 57.798 63.6819 59.2302 59.9744 59.2302C57.0195 59.2302 54.2412 58.3013 51.8938 56.7093L51.892 56.708C48.1728 54.1735 45.8154 49.8718 45.8154 45.078Z" fill="white"/>
</mask>
<g mask="url(#mask0_8099_26534)">
<path d="M59.9471 47.6795C62.5547 47.6795 64.6687 45.5656 64.6687 42.9579C64.6687 40.3503 62.5547 38.2363 59.9471 38.2363C57.3394 38.2363 55.2254 40.3503 55.2254 42.9579C55.2254 45.5656 57.3394 47.6795 59.9471 47.6795Z" fill="url(#paint3_linear_8099_26534)"/>
<path d="M63.4653 49.7819H56.4288C55.2541 49.7819 54.2841 50.667 54.1666 51.8422L53.1322 62.2583C53.1019 62.5788 53.2042 62.8993 53.4202 63.1397C53.6361 63.3801 53.9431 63.5136 54.2614 63.5136H55.5042L56.4364 72.8996C56.55 74.0748 57.5239 74.9599 58.6985 74.9599H61.188C62.3627 74.9599 63.3327 74.071 63.4502 72.8996L64.3823 63.5136H65.629C65.951 63.5136 66.258 63.3763 66.474 63.1397C66.6899 62.8993 66.7922 62.5788 66.7619 62.2583L65.7275 51.8422C65.6138 50.667 64.64 49.778 63.4691 49.778L63.4653 49.7819Z" fill="url(#paint4_linear_8099_26534)"/>
</g>
<path fill-rule="evenodd" clip-rule="evenodd" d="M59.9773 32.9551C53.2611 32.9551 47.8481 38.3661 47.8481 45.0775C47.8481 49.1978 49.8717 52.872 53.0369 55.0295C55.0707 56.4087 57.4558 57.2 59.9773 57.2C63.1524 57.2 66.0372 55.9753 68.2042 53.9538L68.2139 53.9447L68.214 53.9448C70.5904 51.7855 72.1065 48.6148 72.1065 45.0775C72.1065 38.3661 66.6935 32.9551 59.9773 32.9551ZM45.8184 45.0775C45.8184 37.2441 52.1411 30.9253 59.9773 30.9253C67.8135 30.9253 74.1363 37.2441 74.1363 45.0775C74.1363 49.2012 72.3684 52.9101 69.5839 55.4426C67.0571 57.7975 63.6848 59.2297 59.9773 59.2297C57.0225 59.2297 54.2441 58.3008 51.8968 56.7088L51.8949 56.7076C48.1757 54.173 45.8184 49.8713 45.8184 45.0775Z" fill="white"/>
<path d="M73.3547 72.7794H46.5994C45.952 72.7794 45.5205 72.2241 45.5205 71.6687C45.5205 71.0024 46.0599 70.5581 46.5994 70.5581H73.3547C74.002 70.5581 74.4335 71.1134 74.4335 71.6687C74.4335 72.2241 74.002 72.7794 73.3547 72.7794Z" fill="url(#paint5_linear_8099_26534)"/>
<path d="M73.3547 81.6763H46.5994C45.952 81.6763 45.5205 81.121 45.5205 80.5657C45.5205 79.8993 46.0599 79.4551 46.5994 79.4551H73.3547C74.002 79.4551 74.4335 80.0104 74.4335 80.5657C74.4335 81.121 74.002 81.6763 73.3547 81.6763Z" fill="url(#paint6_linear_8099_26534)"/>
<path d="M54.4257 5.87263H54.2045C53.6514 5.87263 53.4302 5.31876 53.4302 5.09721C53.4302 4.54333 53.9833 4.32178 54.2045 4.32178H54.4257C54.9788 4.32178 55.2001 4.87565 55.2001 5.09721C55.2001 5.65108 54.8682 5.87263 54.4257 5.87263Z" fill="url(#paint7_linear_8099_26534)"/>
<path d="M13.226 77.2158C13.226 72.6606 17.4556 68.6185 22.0107 68.6185V59.2056C12.065 59.2056 4.00049 67.2701 4.00049 77.2158C4.00049 79.9818 4.64183 82.5932 5.75678 84.935H5.73047C11.4006 98.0217 22.0107 110.668 22.0107 110.668V85.8427C17.4556 85.8427 13.226 81.7677 13.226 77.2125V77.2158Z" fill="url(#paint8_linear_8099_26534)"/>
<path d="M40.0215 77.2158C40.0215 67.2701 31.957 59.2056 22.0112 59.2056V68.4146C26.5631 68.4146 30.796 72.6606 30.796 77.2158C30.796 81.771 26.5664 86.1519 22.0112 86.1519V110.668C22.0112 110.668 32.6214 98.0217 38.2915 84.935H38.2652C39.3801 82.5932 40.0215 79.9818 40.0215 77.2158Z" fill="url(#paint9_linear_8099_26534)"/>
<circle cx="21.7558" cy="77.1098" r="13.5454" fill="url(#paint10_linear_8099_26534)"/>
<path fill-rule="evenodd" clip-rule="evenodd" d="M28.7587 75.3425H27.9646V82.7452C27.9646 82.8859 27.8566 83 27.7233 83H16.2616C16.1283 83 16.0203 82.8859 16.0203 82.7452V75.3425H15.2423C15.0145 75.3425 14.9135 75.0398 15.091 74.8891L21.9601 69.0562C22.0495 68.9803 22.1772 68.9814 22.2655 69.0588L26.1815 72.495V71.7783C26.1815 71.6376 26.2895 71.5235 26.4228 71.5235H27.4302C27.5634 71.5235 27.6715 71.6376 27.6715 71.7783V73.8024L28.9129 74.8917C29.0866 75.0441 28.9846 75.3425 28.7587 75.3425ZM23.6989 78.3525C23.6989 78.2118 23.5908 78.0977 23.4576 78.0977H20.5276C20.3944 78.0977 20.2863 78.2118 20.2863 78.3525V82.7452C20.2863 82.8859 20.3944 83 20.5276 83H23.4576C23.5908 83 23.6989 82.8859 23.6989 82.7452V78.3525Z" fill="white"/>
<path d="M94.8563 29.3873C94.8563 27.0447 97.0315 24.9659 99.3742 24.9659V20.125C94.2592 20.125 90.1118 24.2724 90.1118 29.3873C90.1118 30.8098 90.4416 32.1528 91.015 33.3572H91.0015C93.9176 40.0874 99.3742 46.591 99.3742 46.591V33.824C97.0315 33.824 94.8563 31.7283 94.8563 29.3856V29.3873Z" fill="url(#paint11_linear_8099_26534)"/>
<path d="M108.638 29.3873C108.638 24.2724 104.49 20.125 99.3755 20.125V24.861C101.716 24.861 103.893 27.0447 103.893 29.3873C103.893 31.73 101.718 33.983 99.3755 33.983V46.591C99.3755 46.591 104.832 40.0874 107.748 33.3572H107.735C108.308 32.1528 108.638 30.8098 108.638 29.3873Z" fill="url(#paint12_linear_8099_26534)"/>
<circle cx="99.242" cy="29.3328" r="6.96614" fill="url(#paint13_linear_8099_26534)"/>
<defs>
<linearGradient id="paint0_linear_8099_26534" x1="87.1776" y1="103.775" x2="-48.2029" y2="-22.6442" gradientUnits="userSpaceOnUse">
<stop stop-color="#0038FF"/>
<stop offset="1" stop-color="#EFF6FF"/>
</linearGradient>
<linearGradient id="paint1_linear_8099_26534" x1="59.9785" y1="7.68571" x2="59.973" y2="107.069" gradientUnits="userSpaceOnUse">
<stop stop-color="#F1F0F0"/>
<stop offset="1" stop-color="white"/>
</linearGradient>
<linearGradient id="paint2_linear_8099_26534" x1="59.9776" y1="1.17578" x2="59.3994" y2="8.01662" gradientUnits="userSpaceOnUse">
<stop stop-color="#2563EB"/>
<stop offset="0.705823" stop-color="#1D4ED8"/>
</linearGradient>
<linearGradient id="paint3_linear_8099_26534" x1="66.6282" y1="72.548" x2="24.3391" y2="43.4927" gradientUnits="userSpaceOnUse">
<stop stop-color="#0038FF"/>
<stop offset="1" stop-color="#EFF6FF"/>
</linearGradient>
<linearGradient id="paint4_linear_8099_26534" x1="66.6282" y1="72.548" x2="24.3391" y2="43.4927" gradientUnits="userSpaceOnUse">
<stop stop-color="#0038FF"/>
<stop offset="1" stop-color="#EFF6FF"/>
</linearGradient>
<linearGradient id="paint5_linear_8099_26534" x1="45.4671" y1="70.5581" x2="47.6914" y2="80.1077" gradientUnits="userSpaceOnUse">
<stop stop-color="#E0EAFC"/>
<stop offset="1" stop-color="#CFDEF3"/>
</linearGradient>
<linearGradient id="paint6_linear_8099_26534" x1="45.4671" y1="79.4551" x2="47.6914" y2="89.0046" gradientUnits="userSpaceOnUse">
<stop stop-color="#E0EAFC"/>
<stop offset="1" stop-color="#CFDEF3"/>
</linearGradient>
<linearGradient id="paint7_linear_8099_26534" x1="54.3151" y1="1.17578" x2="52.2507" y2="7.37837" gradientUnits="userSpaceOnUse">
<stop stop-color="#2563EB"/>
<stop offset="0.705823" stop-color="#1D4ED8"/>
</linearGradient>
<linearGradient id="paint8_linear_8099_26534" x1="21.8273" y1="107.288" x2="-36.0945" y2="69.7908" gradientUnits="userSpaceOnUse">
<stop stop-color="#0038FF"/>
<stop offset="1" stop-color="#EFF6FF"/>
</linearGradient>
<linearGradient id="paint9_linear_8099_26534" x1="31.0094" y1="84.5496" x2="-10.4589" y2="56.0214" gradientUnits="userSpaceOnUse">
<stop stop-color="#0038FF"/>
<stop offset="1" stop-color="#EFF6FF"/>
</linearGradient>
<linearGradient id="paint10_linear_8099_26534" x1="21.7454" y1="76.9061" x2="2.85246" y2="39.7677" gradientUnits="userSpaceOnUse">
<stop stop-color="#0038FF"/>
<stop offset="1" stop-color="#EFF6FF"/>
</linearGradient>
<linearGradient id="paint11_linear_8099_26534" x1="92.1145" y1="21.6856" x2="113.545" y2="25.2045" gradientUnits="userSpaceOnUse">
<stop stop-color="#20C992"/>
<stop offset="1" stop-color="#D3FFE8"/>
</linearGradient>
<linearGradient id="paint12_linear_8099_26534" x1="105.735" y1="44.6958" x2="123.217" y2="-12.7034" gradientUnits="userSpaceOnUse">
<stop stop-color="#20C992"/>
<stop offset="1" stop-color="#EAF9F1"/>
</linearGradient>
<linearGradient id="paint13_linear_8099_26534" x1="101.842" y1="35.3013" x2="105.322" y2="2.65312" gradientUnits="userSpaceOnUse">
<stop stop-color="#20C992"/>
<stop offset="1" stop-color="#EAF9F1"/>
</linearGradient>
</defs>
</svg>
