<svg width="112" height="112" viewBox="0 0 112 112" fill="none" xmlns="http://www.w3.org/2000/svg">
<path d="M14.085 107.808C15.0573 107.808 15.9215 107.048 15.9215 105.963C15.9215 104.986 15.1653 104.118 14.085 104.118C13.1128 104.118 12.2485 104.878 12.2485 105.963C12.2485 106.94 13.0047 107.808 14.085 107.808Z" fill="url(#paint0_linear_8099_26637)"/>
<path d="M93.4716 5.94392C94.4439 5.94392 95.2001 5.18426 95.2001 4.20756C95.2001 3.23085 94.4439 2.47119 93.4716 2.47119C92.4994 2.47119 91.7432 3.23085 91.7432 4.20756C91.7432 5.18426 92.4994 5.94392 93.4716 5.94392Z" fill="url(#paint1_linear_8099_26637)"/>
<path d="M112 17.5971V105.501C112 107.02 110.272 107.779 109.191 106.694L107.355 104.958C106.707 104.307 105.626 104.307 104.978 104.958L101.521 108.322C100.873 108.973 99.7929 108.973 99.1447 108.322L95.6878 104.958C95.0397 104.307 93.9594 104.307 93.3112 104.958L89.8543 108.322C89.2061 108.973 88.1259 108.973 87.4777 108.322L84.0208 104.958C83.3726 104.307 82.2923 104.307 81.6442 104.958L78.2953 108.322C77.6471 108.973 76.5668 108.973 75.9187 108.322L72.4618 104.958C71.8136 104.307 70.7333 104.307 70.0851 104.958L66.6282 108.322C65.9801 108.973 64.8998 108.973 64.2516 108.322L60.7947 104.958C60.1466 104.307 59.0663 104.307 58.4181 104.958L54.9612 108.322C54.313 108.973 53.2327 108.973 52.5846 108.322L48.0474 103.764L47.7233 104.09L45.0226 106.694C43.9423 107.779 42.2139 107.02 42.2139 105.501V17.5971C42.2139 16.0777 43.9423 15.3181 45.0226 16.4033L46.8591 18.1397C47.5073 18.7908 48.5875 18.7908 49.2357 18.1397L52.6926 14.7755C53.3408 14.1243 54.4211 14.1243 55.0692 14.7755L58.5261 18.1397C59.1743 18.7908 60.2546 18.7908 60.9028 18.1397L64.3596 14.7755C65.0078 14.1243 66.0881 14.1243 66.7363 14.7755L70.1932 18.1397C70.8413 18.7908 71.9216 18.7908 72.5698 18.1397L76.0267 14.7755C76.6749 14.1243 77.7551 14.1243 78.4033 14.7755L81.7522 18.1397C82.4004 18.7908 83.4806 18.7908 84.1288 18.1397L87.5857 14.7755C88.2339 14.1243 89.3142 14.1243 89.9623 14.7755L93.4192 18.1397C94.0674 18.7908 95.1477 18.7908 95.7959 18.1397L99.2528 14.7755C99.9009 14.1243 100.981 14.1243 101.629 14.7755L105.086 18.1397C105.734 18.7908 106.815 18.7908 107.463 18.1397L109.299 16.4033C110.272 15.3181 112 16.0777 112 17.5971Z" fill="white"/>
<path d="M98.9292 37.3475H91.3673C90.6111 37.3475 89.9629 36.6963 89.9629 35.9367C89.9629 35.177 90.6111 34.5259 91.3673 34.5259H98.9292C99.6854 34.5259 100.334 35.177 100.334 35.9367C100.334 36.6963 99.6854 37.3475 98.9292 37.3475Z" fill="url(#paint2_linear_8099_26637)"/>
<path d="M84.7368 37.3475H54.921C54.1648 37.3475 53.5166 36.6963 53.5166 35.9367C53.5166 35.177 54.1648 34.5259 54.921 34.5259H84.7368C85.493 34.5259 86.1411 35.177 86.1411 35.9367C86.1411 36.6963 85.493 37.3475 84.7368 37.3475Z" fill="url(#paint3_linear_8099_26637)"/>
<path d="M98.9293 50.804H85.9659C85.2097 50.804 84.5615 50.1529 84.5615 49.3932C84.5615 48.6336 85.2097 47.9824 85.9659 47.9824H98.9293C99.6855 47.9824 100.334 48.6336 100.334 49.3932C100.334 50.1529 99.6855 50.804 98.9293 50.804Z" fill="url(#paint4_linear_8099_26637)"/>
<path d="M79.3295 50.4695H66.0421C65.2859 50.4695 64.6377 49.8184 64.6377 49.0587C64.6377 48.2991 65.2859 47.6479 66.0421 47.6479H79.4376C80.1938 47.6479 80.8419 48.2991 80.8419 49.0587C80.8419 49.8184 80.0857 50.4695 79.3295 50.4695Z" fill="url(#paint5_linear_8099_26637)"/>
<path d="M76.9996 63.6751H66.7369C65.9807 63.6751 65.3325 63.024 65.3325 62.2643C65.3325 61.5047 65.9807 60.8535 66.7369 60.8535H76.9996C77.7558 60.8535 78.4039 61.5047 78.4039 62.2643C78.4039 63.024 77.7558 63.6751 76.9996 63.6751Z" fill="url(#paint6_linear_8099_26637)"/>
<path d="M76.9996 76.8802H66.7369C65.9807 76.8802 65.3325 76.229 65.3325 75.4694C65.3325 74.7097 65.9807 74.0586 66.7369 74.0586H76.9996C77.7558 74.0586 78.4039 74.7097 78.4039 75.4694C78.4039 76.229 77.7558 76.8802 76.9996 76.8802Z" fill="url(#paint7_linear_8099_26637)"/>
<path d="M77.0397 87.2642C69.2617 87.2642 62.672 87.2642 54.894 87.2642C53.0575 87.2642 53.0575 89.9772 54.894 89.9772C63.4282 89.9772 68.6135 89.9772 77.0397 89.9772C77.7959 89.9772 78.4441 89.3261 78.4441 88.5664C78.4441 87.8068 77.7959 87.2642 77.0397 87.2642Z" fill="url(#paint8_linear_8099_26637)"/>
<path d="M94.824 92.8026C93.7437 92.8026 92.8795 91.9344 92.8795 90.8492V88.7872C91.2591 88.6787 89.7467 88.2446 88.4504 87.702C87.4781 87.2679 87.046 86.1827 87.3701 85.0975C87.6942 84.2293 88.4503 83.6867 89.3146 83.6867C89.6387 83.6867 89.8547 83.7952 90.1788 83.9037C91.043 84.3378 92.4474 84.7719 94.1758 84.7719C96.5525 84.7719 98.1729 83.4696 98.1729 81.6247C98.1729 79.8884 96.9846 78.8031 94.1758 77.6094C90.6109 76.1986 87.3701 74.3537 87.3701 70.2298C87.3701 66.8656 89.6387 64.1526 93.2036 63.3929V61.2225C93.2036 60.1372 94.0678 59.269 95.1481 59.269C96.2284 59.269 97.0926 60.1372 97.0926 61.2225V63.1759C98.3889 63.2844 99.4692 63.5014 100.55 63.9355C101.522 64.3696 102.062 65.5634 101.63 66.5401C101.306 67.2997 100.55 67.8423 99.6853 67.8423C99.3612 67.8423 99.1451 67.8423 98.9291 67.7338C97.8488 67.2997 96.7685 67.0827 95.5802 67.0827C92.9875 67.0827 92.1233 68.4935 92.1233 69.7957C92.1233 71.3151 93.0956 72.1832 96.5525 73.594C101.09 75.4389 103.034 77.8264 103.034 81.4077C103.034 84.9889 100.55 87.8105 96.8765 88.5702V90.8492C96.7685 91.9344 95.9043 92.8026 94.824 92.8026Z" fill="url(#paint9_linear_8099_26637)"/>
<path d="M59.1521 48.4846V77.7918C59.1521 77.9157 59.1521 77.9776 59.1521 78.1016C59.0899 79.7745 58.2822 81.2615 57.1016 82.2529C56.0453 83.1823 54.6784 83.7399 53.1871 83.7399H5.90278C4.84649 83.7399 3.91447 83.4921 3.04459 82.9964C2.67178 82.8105 2.29898 82.5627 1.9883 82.2529C1.30482 81.6952 0.745614 80.9517 0.434942 80.0843C0.186403 79.4647 0 78.8451 0 78.1635V48.4846C0 48.4846 2.48538 46.378 6.02705 43.4659C9.69298 40.3679 14.5395 36.4024 18.7646 32.8707C21.1879 30.826 20.9393 31.0739 24.6674 27.9139C27.5256 25.4975 31.6886 25.4975 34.5468 27.9139C35.2924 28.5335 36.038 29.2151 36.7836 29.8347C38.337 31.0739 40.0768 32.5609 41.8787 34.0479C45.6689 37.2079 49.8319 40.6777 53.125 43.4039C56.4803 46.1921 58.9035 48.2368 59.1521 48.4846Z" fill="url(#paint10_linear_8099_26637)"/>
<path d="M53.1251 43.4038V53.937L42.8107 60.133L39.704 61.9918L33.1799 65.8953L30.0732 67.7541L28.7683 68.5596L27.5256 67.7541L24.6053 65.8953L18.3919 61.9918L15.4715 60.133L5.90283 54.1229V43.4658C9.56877 40.3678 14.4153 36.4023 18.6404 32.8706L41.7545 34.0478C45.7311 37.2078 49.8941 40.6776 53.1251 43.4038Z" fill="url(#paint11_linear_8099_26637)"/>
<path d="M51.0752 35.0395V53.5036L41.6308 59.142L38.8347 60.8149L32.8698 64.3466L30.0737 66.0196L28.8932 66.7011L27.7748 66.0196L25.103 64.3466L19.4487 60.8149L16.777 59.142L8.07812 53.6895V35.0395C8.07812 33.1188 9.63149 31.5078 11.6198 31.5078H47.5335C49.4597 31.5078 51.0752 33.1188 51.0752 35.0395Z" fill="white"/>
<path d="M43.3709 45.2007H16.8395C16.4045 45.2007 16.0317 44.8289 16.0317 44.3333C16.0317 43.8376 16.4045 43.4658 16.8395 43.4658H43.3709C43.8059 43.4658 44.1787 43.8376 44.1787 44.3333C44.1787 44.8289 43.8059 45.2007 43.3709 45.2007Z" fill="url(#paint12_linear_8099_26637)"/>
<path d="M43.3709 50.4058H16.8395C16.4045 50.4058 16.0317 50.034 16.0317 49.5383C16.0317 49.0427 16.4045 48.6709 16.8395 48.6709H43.3709C43.8059 48.6709 44.1787 49.0427 44.1787 49.5383C44.1787 50.034 43.8059 50.4058 43.3709 50.4058Z" fill="url(#paint13_linear_8099_26637)"/>
<path d="M43.3709 55.6099H16.8395C16.4045 55.6099 16.0317 55.2381 16.0317 54.7424C16.0317 54.2468 16.4045 53.875 16.8395 53.875H43.3709C43.8059 53.875 44.1787 54.2468 44.1787 54.7424C44.1787 55.2381 43.8059 55.6099 43.3709 55.6099Z" fill="url(#paint14_linear_8099_26637)"/>
<path d="M41.6307 59.1421L38.8346 60.815H19.4486L16.7769 59.1421H16.839H41.6307Z" fill="url(#paint15_linear_8099_26637)"/>
<path d="M32.8703 64.3467L30.0743 66.0816H27.7753L25.1035 64.3467H32.8703Z" fill="url(#paint16_linear_8099_26637)"/>
<path d="M37.6539 39.2525H22.6173C22.1824 39.2525 21.8096 38.8807 21.8096 38.385C21.8096 37.8893 22.1824 37.5176 22.6173 37.5176H37.6539C38.0888 37.5176 38.4616 37.8893 38.4616 38.385C38.4616 38.8807 38.0888 39.2525 37.6539 39.2525Z" fill="url(#paint17_linear_8099_26637)"/>
<path opacity="0.67" d="M0.249512 48.3608L28.645 50.2196L58.7181 48.3608L57.5997 53.7514C57.5997 53.7514 29.3285 68.4979 29.5149 68.4979C29.7013 68.4979 0.311646 51.0251 0.311646 51.0251L0.249512 48.3608Z" fill="url(#paint18_linear_8099_26637)"/>
<path d="M59.1521 48.4849V78.1018C59.0899 79.7747 58.2822 81.2617 57.1016 82.2531C56.0453 83.1825 54.6784 83.7401 53.1871 83.7401H5.90278C4.84649 83.7401 3.91447 83.4923 3.04459 82.9966C2.67178 82.8107 2.29898 82.5629 1.9883 82.2531C1.30482 81.6955 0.745614 80.9519 0.434942 80.0845C0.186403 79.4649 0 78.8453 0 78.1637V78.1018V48.4849L26.4693 65.0282L28.7683 66.4533L29.576 65.9576L30.3216 65.5239L59.1521 48.4849Z" fill="#738DFF"/>
<path d="M57.1638 82.2531C56.1075 83.1825 54.7405 83.7401 53.2493 83.7401H5.90278C4.84649 83.7401 3.91447 83.4923 3.04459 82.9966C2.67178 82.8107 2.29898 82.5629 1.9883 82.2531C1.30482 81.6955 0.745614 80.9519 0.434942 80.0845C0.186403 79.4649 0 78.8453 0 78.1637V78.1018V48.4849L3.10673 50.3437L29.576 66.0196L30.3217 66.4533L30.3838 66.5152L54.1192 80.5182L57.1638 82.2531Z" fill="url(#paint19_linear_8099_26637)"/>
<path d="M59.152 48.4849V78.1018C59.0899 79.7747 58.2822 81.2617 57.1016 82.2531C56.0453 83.1825 54.6784 83.7401 53.1871 83.7401H5.90276C4.84647 83.7401 3.91445 83.4923 3.04457 82.9966C2.67176 82.8107 2.29895 82.5629 1.98828 82.2531L5.03287 80.4563L28.7683 66.4533L29.576 65.9576L30.3216 65.5239L56.0453 50.2817L59.152 48.4849Z" fill="url(#paint20_linear_8099_26637)"/>
<path opacity="0.3" d="M56.0453 50.2817V53.3797L59.1521 51.8307V48.4849L56.0453 50.2817ZM56.0453 65.5858V70.6046L59.1521 69.0556V64.0368L56.0453 65.5858ZM56.0453 74.1363V77.9779C55.9832 78.4116 55.8589 78.9073 55.6104 79.279C55.5483 79.341 55.5483 79.4029 55.4861 79.4649L59.1521 77.6061V72.5873L56.0453 74.1363ZM55.2997 83.1205L54.3677 83.6162C55.424 83.4303 56.2939 82.9347 57.1016 82.3151C57.1016 82.3151 57.1016 82.3151 57.1638 82.3151C57.2259 82.3151 57.2259 82.2531 57.288 82.1911L55.2997 83.1205ZM0 73.9504V78.1018V78.1637C0 78.4116 0.0621344 78.6594 0.124269 78.9073L3.10673 77.3583V72.3395L0 73.9504ZM0 56.7256V61.7443L3.10673 60.1953V55.1766L0 56.7256ZM0 48.4849V53.1938L3.10673 51.6448V50.3437L0 48.4849ZM0 65.338V70.3568L3.10673 68.8078V63.789L0 65.338ZM5.90278 80.6421C5.59211 80.6421 5.28143 80.5802 5.0329 80.5182C4.84649 80.4563 4.72222 80.3943 4.53582 80.3323C4.53582 80.3323 4.53582 80.3323 4.47368 80.3323L1.49123 81.8813C1.67763 82.0672 1.8019 82.1911 1.9883 82.377C2.29898 82.6868 2.67178 82.8727 3.04459 83.1205C3.29313 83.3064 3.6038 83.4303 3.91447 83.4923L9.69299 80.7041H5.90278V80.6421ZM17.5219 80.6421L10.9978 83.7401H18.0811L24.6053 80.6421H17.5219ZM32.31 80.6421L25.7858 83.7401H32.8692L39.3933 80.6421H32.31ZM47.1601 80.6421L40.636 83.7401H46.3524L52.8765 80.6421H47.1601ZM56.0453 56.9734V61.9922L59.1521 60.4432V55.4244L56.0453 56.9734Z" fill="url(#paint21_linear_8099_26637)"/>
<defs>
<linearGradient id="paint0_linear_8099_26637" x1="12.2418" y1="104.118" x2="17.1984" y2="105.746" gradientUnits="userSpaceOnUse">
<stop stop-color="#E0EAFC"/>
<stop offset="1" stop-color="#CFDEF3"/>
</linearGradient>
<linearGradient id="paint1_linear_8099_26637" x1="91.7368" y1="2.47119" x2="96.4019" y2="4.00296" gradientUnits="userSpaceOnUse">
<stop stop-color="#E0EAFC"/>
<stop offset="1" stop-color="#CFDEF3"/>
</linearGradient>
<linearGradient id="paint2_linear_8099_26637" x1="89.9437" y1="34.5259" x2="96.2213" y2="42.1364" gradientUnits="userSpaceOnUse">
<stop stop-color="#E0EAFC"/>
<stop offset="1" stop-color="#CFDEF3"/>
</linearGradient>
<linearGradient id="paint3_linear_8099_26637" x1="53.4564" y1="34.5259" x2="56.5938" y2="46.4917" gradientUnits="userSpaceOnUse">
<stop stop-color="#E0EAFC"/>
<stop offset="1" stop-color="#CFDEF3"/>
</linearGradient>
<linearGradient id="paint4_linear_8099_26637" x1="84.5324" y1="47.9824" x2="89.8919" y2="57.8641" gradientUnits="userSpaceOnUse">
<stop stop-color="#E0EAFC"/>
<stop offset="1" stop-color="#CFDEF3"/>
</linearGradient>
<linearGradient id="paint5_linear_8099_26637" x1="64.6078" y1="47.6479" x2="69.8875" y2="57.6493" gradientUnits="userSpaceOnUse">
<stop stop-color="#E0EAFC"/>
<stop offset="1" stop-color="#CFDEF3"/>
</linearGradient>
<linearGradient id="paint6_linear_8099_26637" x1="65.3084" y1="60.8535" x2="71.168" y2="69.8074" gradientUnits="userSpaceOnUse">
<stop stop-color="#E0EAFC"/>
<stop offset="1" stop-color="#CFDEF3"/>
</linearGradient>
<linearGradient id="paint7_linear_8099_26637" x1="65.3084" y1="74.0586" x2="71.168" y2="83.0125" gradientUnits="userSpaceOnUse">
<stop stop-color="#E0EAFC"/>
<stop offset="1" stop-color="#CFDEF3"/>
</linearGradient>
<linearGradient id="paint8_linear_8099_26637" x1="53.4706" y1="87.2642" x2="57.1297" y2="98.3534" gradientUnits="userSpaceOnUse">
<stop stop-color="#E0EAFC"/>
<stop offset="1" stop-color="#CFDEF3"/>
</linearGradient>
<linearGradient id="paint9_linear_8099_26637" x1="87.2346" y1="59.269" x2="110.257" y2="62.8405" gradientUnits="userSpaceOnUse">
<stop stop-color="#E0EAFC"/>
<stop offset="1" stop-color="#CFDEF3"/>
</linearGradient>
<linearGradient id="paint10_linear_8099_26637" x1="29.576" y1="-90.8211" x2="-53.7791" y2="134.387" gradientUnits="userSpaceOnUse">
<stop stop-color="#2563EB"/>
<stop offset="0.705823" stop-color="#1D4ED8"/>
</linearGradient>
<linearGradient id="paint11_linear_8099_26637" x1="51.9842" y1="56.6165" x2="24.7282" y2="23.8957" gradientUnits="userSpaceOnUse">
<stop stop-color="#0038FF"/>
<stop offset="1" stop-color="#EFF6FF" stop-opacity="0.1"/>
</linearGradient>
<linearGradient id="paint12_linear_8099_26637" x1="15.9798" y1="43.4658" x2="17.3995" y2="51.0636" gradientUnits="userSpaceOnUse">
<stop stop-color="#E0EAFC"/>
<stop offset="1" stop-color="#CFDEF3"/>
</linearGradient>
<linearGradient id="paint13_linear_8099_26637" x1="15.9798" y1="48.6709" x2="17.3995" y2="56.2687" gradientUnits="userSpaceOnUse">
<stop stop-color="#E0EAFC"/>
<stop offset="1" stop-color="#CFDEF3"/>
</linearGradient>
<linearGradient id="paint14_linear_8099_26637" x1="15.9798" y1="53.875" x2="17.3995" y2="61.4728" gradientUnits="userSpaceOnUse">
<stop stop-color="#E0EAFC"/>
<stop offset="1" stop-color="#CFDEF3"/>
</linearGradient>
<linearGradient id="paint15_linear_8099_26637" x1="16.731" y1="59.1421" x2="18.2164" y2="66.4213" gradientUnits="userSpaceOnUse">
<stop stop-color="#E0EAFC"/>
<stop offset="1" stop-color="#CFDEF3"/>
</linearGradient>
<linearGradient id="paint16_linear_8099_26637" x1="25.0892" y1="64.3467" x2="28.7399" y2="69.7376" gradientUnits="userSpaceOnUse">
<stop stop-color="#E0EAFC"/>
<stop offset="1" stop-color="#CFDEF3"/>
</linearGradient>
<linearGradient id="paint17_linear_8099_26637" x1="38.292" y1="39.1385" x2="38.0517" y2="34.8717" gradientUnits="userSpaceOnUse">
<stop stop-color="#0038FF"/>
<stop offset="1" stop-color="#EFF6FF"/>
</linearGradient>
<linearGradient id="paint18_linear_8099_26637" x1="29.448" y1="74.8395" x2="29.448" y2="49.6943" gradientUnits="userSpaceOnUse">
<stop stop-color="#4F6AFF"/>
<stop offset="1" stop-color="#657EFF" stop-opacity="0"/>
</linearGradient>
<linearGradient id="paint19_linear_8099_26637" x1="56.5815" y1="81.4246" x2="30.4816" y2="3.14356" gradientUnits="userSpaceOnUse">
<stop stop-color="#0038FF"/>
<stop offset="1" stop-color="#EFF6FF"/>
</linearGradient>
<linearGradient id="paint20_linear_8099_26637" x1="58.5698" y1="81.4246" x2="32.4698" y2="3.14356" gradientUnits="userSpaceOnUse">
<stop stop-color="#0038FF"/>
<stop offset="1" stop-color="#EFF6FF"/>
</linearGradient>
<linearGradient id="paint21_linear_8099_26637" x1="29.576" y1="-23.0324" x2="-4.15329" y2="125.954" gradientUnits="userSpaceOnUse">
<stop stop-color="#2563EB"/>
<stop offset="0.705823" stop-color="#1D4ED8"/>
</linearGradient>
</defs>
</svg>
