<svg width="112" height="112" viewBox="0 0 112 112" fill="none" xmlns="http://www.w3.org/2000/svg">
<path d="M1.5896 57.8364C2.43115 57.8364 3.1792 57.1789 3.1792 56.2397C3.1792 55.3944 2.52466 54.6431 1.5896 54.6431C0.654541 54.737 0 55.4883 0 56.3336C0 57.1789 0.654541 57.8364 1.5896 57.8364Z" fill="url(#paint0_linear_8099_26509)"/>
<path d="M109.722 38.5805C111.124 37.2656 111.218 35.1055 109.909 33.6966C108.6 32.2878 106.449 32.1939 104.953 33.5088C103.55 34.8237 103.457 36.9839 104.766 38.3927C106.075 39.8015 108.226 39.8954 109.722 38.5805Z" fill="#EAEEF9"/>
<path d="M109.021 23.3663C109.863 23.3663 110.518 22.7088 110.518 21.8636C110.518 21.0183 109.863 20.3608 109.021 20.3608C108.18 20.3608 107.525 21.0183 107.525 21.8636C107.525 22.7088 108.18 23.3663 109.021 23.3663Z" fill="url(#paint1_linear_8099_26509)"/>
<path d="M83.1059 55.1108L111.158 83.2869C112.28 84.414 112.28 86.2924 111.158 87.4194L88.5293 110.148C87.4072 111.275 85.5371 111.275 84.415 110.148L56.3633 81.972L83.1059 55.1108Z" fill="url(#paint2_linear_8099_26509)"/>
<path d="M76.7147 61.5587L71.7559 66.5396L101.906 96.823L106.864 91.8421L76.7147 61.5587Z" fill="url(#paint3_linear_8099_26509)"/>
<path d="M88.5602 103.534C90.0574 102.031 90.0574 99.5925 88.5602 98.0887C87.0631 96.5849 84.6357 96.5849 83.1386 98.0887C81.6414 99.5925 81.6414 102.031 83.1386 103.534C84.6357 105.038 87.0631 105.038 88.5602 103.534Z" fill="url(#paint4_linear_8099_26509)"/>
<path d="M88.5602 103.534C90.0574 102.031 90.0574 99.5925 88.5602 98.0887C87.0631 96.5849 84.6357 96.5849 83.1386 98.0887C81.6414 99.5925 81.6414 102.031 83.1386 103.534C84.6357 105.038 87.0631 105.038 88.5602 103.534Z" fill="#0038FF"/>
<path d="M84.8747 99.9069C86.3718 98.4031 86.3718 95.965 84.8747 94.4612C83.3775 92.9574 80.9502 92.9574 79.453 94.4612C77.9559 95.965 77.9559 98.4031 79.453 99.9069C80.9502 101.411 83.3775 101.411 84.8747 99.9069Z" fill="#DBE6FA"/>
<path d="M48.9524 21.5823L23.0076 47.7335L2.13673 26.7702C1.89554 26.5279 2.03186 26.1202 2.43693 26.1202H3.83952C4.58527 26.1202 5.18107 25.5186 5.18107 24.7749V22.1452C5.18107 21.9496 5.33332 21.7999 5.52263 21.7999H8.14079C8.9229 21.7999 9.44823 21.171 9.5691 20.4425L9.57585 20.4019V20.3607V17.7309C9.57585 17.5583 9.7144 17.3605 9.97374 17.2917H12.5356C13.3177 17.2917 13.843 16.6628 13.9639 15.9344L13.9706 15.8937V15.8525V13.2228C13.9706 13.0696 14.0874 12.8567 14.451 12.7835H17.0238C17.806 12.7835 18.3313 12.1546 18.4522 11.4262L18.4589 11.3855V11.3443V8.71458C18.4589 8.55337 18.5757 8.3693 18.894 8.3693H21.5121C22.2942 8.3693 22.8196 7.74039 22.9404 7.01194L22.9472 6.9713V6.93009V4.30033C22.9472 4.10478 23.0994 3.95505 23.2887 3.95505H25.9069C26.689 3.95505 27.2143 3.32614 27.3352 2.59769L27.342 2.55704V2.51584V1.13144C27.38 0.774298 27.5489 0.598739 27.6791 0.535782C27.8058 0.474507 27.9495 0.486239 28.0772 0.614528L48.9524 21.5823Z" fill="white" stroke="#E5E9F4"/>
<path d="M30.3681 12.1909L27.4694 15.0085C27.1889 15.2903 26.7214 15.2903 26.4409 15.0085C26.1603 14.7267 26.1603 14.2571 26.4409 13.9754L29.3395 11.0639C29.6201 10.7821 30.0876 10.7821 30.3681 11.0639C30.6486 11.4395 30.6486 11.9091 30.3681 12.1909Z" fill="url(#paint5_linear_8099_26509)"/>
<path d="M25.0678 17.5438L13.3796 29.1899C13.0991 29.4716 12.6315 29.4716 12.351 29.1899C12.0705 28.9081 12.0705 28.4385 12.351 28.1567L23.9457 16.5106C24.2263 16.2289 24.6938 16.2289 24.9743 16.5106C25.3483 16.7924 25.3483 17.262 25.0678 17.5438Z" fill="url(#paint6_linear_8099_26509)"/>
<path d="M26.1989 21.3946L23.2067 24.4L24.5158 23.0852C21.4301 26.1845 18.999 28.6265 15.8198 31.8197C15.5392 32.1015 15.5392 32.5711 15.8198 32.8529C16.1003 33.1346 16.5678 33.1346 16.8483 32.8529C22.0847 27.5933 20.4015 29.2839 25.5444 24.1183L24.2353 25.4332L27.2275 22.4277C27.882 21.6764 26.8535 20.6432 26.1989 21.3946Z" fill="url(#paint7_linear_8099_26509)"/>
<path d="M57.5499 13.2239L95.3263 51.1677C96.7289 52.5765 97.1029 54.6427 96.3548 56.4272C88.7809 73.8024 75.0355 87.6087 57.7369 95.2163C55.9603 95.9676 53.9032 95.5919 52.5006 94.1831L14.6307 56.2394C13.2281 54.8306 12.8541 52.7643 13.6022 50.9798C21.2696 33.6046 35.015 19.7983 52.3136 12.1908C54.0902 11.4394 56.1473 11.8151 57.5499 13.2239Z" fill="url(#paint8_linear_8099_26509)"/>
<path d="M66.4478 35.4827L36.7129 65.2554C35.8714 66.1007 34.4688 66.1007 33.6273 65.2554L21.6585 53.2336C20.817 52.3883 20.817 50.9795 21.6585 50.1342L51.3934 20.3615C52.2349 19.5162 53.6375 19.5162 54.479 20.3615L66.4478 32.3833C67.2893 33.2286 67.2893 34.5435 66.4478 35.4827Z" fill="white"/>
<path d="M54.8371 70.0433L47.7306 77.1812C47.0761 77.8387 46.141 77.8387 45.4865 77.1812L40.8112 72.4852C40.1567 71.8278 40.1567 70.8886 40.8112 70.2311L47.9177 63.0932C48.5722 62.4357 49.5073 62.4357 50.1618 63.0932L54.8371 67.7892C55.3981 68.4466 55.3981 69.3858 54.8371 70.0433Z" fill="url(#paint9_linear_8099_26509)"/>
<path d="M66.5461 58.2112L59.4396 65.3492C58.7851 66.0066 57.85 66.0066 57.1955 65.3492L52.5202 60.6532C51.8657 59.9957 51.8657 59.0565 52.5202 58.3991L59.6266 51.2611C60.2812 50.6037 61.2162 50.6037 61.8708 51.2611L66.5461 55.9572C67.2006 56.6146 67.2006 57.6477 66.5461 58.2112Z" fill="white"/>
<path d="M78.2531 46.471L71.1467 53.609C70.4921 54.2664 69.5571 54.2664 68.9025 53.609L64.2272 48.9129C63.5727 48.2555 63.5727 47.3163 64.2272 46.6589L71.3337 39.5209C71.9882 38.8635 72.9233 38.8635 73.5778 39.5209L78.2531 44.2169C78.9076 44.8744 78.9076 45.8136 78.2531 46.471Z" fill="white"/>
<path d="M64.593 79.7171L57.4865 86.855C56.832 87.5125 55.8969 87.5125 55.2424 86.855L50.5671 82.159C49.9125 81.5016 49.9125 80.5624 50.5671 79.9049L57.6735 72.767C58.3281 72.1096 59.2631 72.1096 59.9177 72.767L64.593 77.463C65.154 78.1205 65.154 79.0597 64.593 79.7171Z" fill="white"/>
<path d="M76.3 67.9769L69.1935 75.1148C68.539 75.7723 67.6039 75.7723 66.9494 75.1148L62.2741 70.4188C61.6196 69.7614 61.6196 68.8222 62.2741 68.1647L69.3806 61.0268C70.0351 60.3693 70.9702 60.3693 71.6247 61.0268L76.3 65.7228C76.9545 66.2863 76.9545 67.3194 76.3 67.9769Z" fill="white"/>
<path d="M88.007 56.1453L80.9006 63.2833C80.246 63.9407 79.311 63.9407 78.6564 63.2833L73.9811 58.5873C73.3266 57.9298 73.3266 56.9906 73.9811 56.3332L81.0876 49.1952C81.7421 48.5378 82.6772 48.5378 83.3317 49.1952L88.007 53.8912C88.568 54.5487 88.568 55.4879 88.007 56.1453Z" fill="white"/>
<path d="M33.6065 49.5704C33.9805 49.4765 34.3545 49.7583 34.3545 50.134L34.5416 52.3881H34.6351L35.8506 50.6036C36.0376 50.3218 36.5052 50.2279 36.7857 50.5097L36.9727 50.6975C37.2532 50.9793 37.1597 51.4489 36.8792 51.6367L35.1026 52.8577V52.9516L37.2532 53.0455C37.6272 53.0455 37.9078 53.4212 37.8143 53.7969L37.7208 54.1725C37.6272 54.5482 37.2532 54.7361 36.8792 54.5482L34.8221 53.609L35.7571 55.5813C35.9441 55.957 35.7571 56.3327 35.3831 56.4266L35.1026 56.5205C34.7286 56.6145 34.3545 56.3327 34.3545 55.957L34.1675 53.7029L32.952 55.4874C32.7649 55.7692 32.2974 55.8631 32.0169 55.5813L31.8299 55.4874C31.5494 55.2057 31.6429 54.7361 31.9234 54.5482L33.6065 53.4212L31.3624 53.2333C30.9883 53.2333 30.7078 52.8577 30.8013 52.482L30.8948 52.1063C30.9883 51.7306 31.3624 51.5428 31.7364 51.7306L33.7 52.6698L32.7649 50.6975C32.5779 50.3218 32.7649 49.9461 33.139 49.8522L33.6065 49.5704Z" fill="#1C3754"/>
<path d="M40.202 42.901C40.576 42.8071 40.95 43.0889 40.95 43.4645L41.137 45.7186H41.2305L42.4461 43.9341C42.6331 43.6524 43.1006 43.5585 43.3812 43.8402L43.5682 44.0281C43.8487 44.3098 43.7552 44.7794 43.4747 44.9673L41.6981 46.1882V46.2821L43.8487 46.3761C44.2227 46.3761 44.5032 46.7517 44.4097 47.1274L44.3162 47.5031C44.2227 47.8788 43.8487 48.0666 43.4747 47.8788L41.4175 46.9396L42.3526 48.9119C42.5396 49.2876 42.3526 49.6633 41.9786 49.7572L41.6981 49.8511C41.324 49.945 40.95 49.6633 40.95 49.2876L40.763 47.0335L39.5474 48.818C39.3604 49.0998 38.8929 49.1937 38.6124 48.9119L38.3318 48.818C38.0513 48.5362 38.1448 48.0666 38.4253 47.8788L40.1085 46.7517L37.8643 46.5639C37.4903 46.5639 37.2098 46.1882 37.3033 45.8125L37.3968 45.4369C37.4903 45.0612 37.8643 44.8733 38.2383 45.0612L40.202 46.0004L39.2669 44.0281C39.0799 43.6524 39.2669 43.2767 39.6409 43.1828L40.202 42.901Z" fill="#1C3754"/>
<path d="M46.9544 36.235C47.3284 36.1411 47.7024 36.4228 47.7024 36.7985L47.8895 39.0526H47.983L49.1985 37.2681C49.3856 36.8924 49.8531 36.8924 50.1336 37.1742L50.3206 37.362C50.6011 37.6438 50.6011 38.1134 50.2271 38.3012L48.4505 39.5222V39.6161L50.6011 39.71C50.9752 39.71 51.2557 40.0857 51.1622 40.4614L51.0687 40.7432C50.9752 41.1189 50.5076 41.3067 50.2271 41.1189L48.2635 40.1797L49.1985 42.152C49.3856 42.5277 49.1985 42.9033 48.731 42.9973L48.4505 43.0912C48.0765 43.1851 47.7024 42.9033 47.7024 42.5277L47.5154 40.3675L46.2999 42.2459C46.1128 42.5277 45.6453 42.6216 45.3648 42.3398L45.1778 42.152C44.8973 41.8702 44.8973 41.4006 45.2713 41.2128L46.9544 40.0857L44.8038 39.8979C44.4297 39.8979 44.1492 39.5222 44.2427 39.1465L44.3362 38.8648C44.4297 38.4891 44.8973 38.3012 45.1778 38.4891L47.1414 39.4283L46.2064 37.456C46.0193 37.0803 46.2064 36.7046 46.5804 36.6107L46.9544 36.235Z" fill="#1C3754"/>
<path d="M53.7445 29.4692C54.025 29.3753 54.3991 29.5632 54.3991 29.9388L54.5861 32.2869H54.6796L55.8952 30.4085C56.0822 30.1267 56.4562 30.1267 56.7367 30.3145L57.1107 30.6902C57.2978 30.8781 57.2978 31.3477 57.0172 31.5355L55.1471 32.8504V32.9443L57.3913 33.0382C57.7653 33.0382 57.9523 33.4139 57.8588 33.6957L57.6718 34.2592C57.5783 34.5409 57.2042 34.7288 56.9237 34.6349L54.8666 33.6957L55.8017 35.7619C55.8952 36.0437 55.8017 36.4193 55.4276 36.5133L54.9601 36.6072C54.6796 36.7011 54.3056 36.4193 54.3056 36.1376L54.1186 33.7896L52.903 35.668C52.716 35.9497 52.3419 35.9497 52.0614 35.7619L51.6874 35.3862C51.4069 35.1045 51.5004 34.7288 51.7809 34.5409L53.5575 33.32L51.2199 33.1321C50.8458 33.1321 50.6588 32.7565 50.7523 32.4747L50.9394 31.9112C51.0329 31.6294 51.4069 31.4416 51.6874 31.5355L53.7445 32.4747L52.8095 30.4085C52.716 30.1267 52.8095 29.751 53.1835 29.6571L53.7445 29.4692Z" fill="#1C3754"/>
<defs>
<linearGradient id="paint0_linear_8099_26509" x1="3.14681" y1="57.6266" x2="-0.157103" y2="51.5421" gradientUnits="userSpaceOnUse">
<stop stop-color="#0038FF"/>
<stop offset="1" stop-color="#EFF6FF"/>
</linearGradient>
<linearGradient id="paint1_linear_8099_26509" x1="110.487" y1="23.1689" x2="107.378" y2="17.4422" gradientUnits="userSpaceOnUse">
<stop stop-color="#0038FF"/>
<stop offset="1" stop-color="#EFF6FF"/>
</linearGradient>
<linearGradient id="paint2_linear_8099_26509" x1="111.433" y1="107.323" x2="53.6139" y2="0.843106" gradientUnits="userSpaceOnUse">
<stop stop-color="#0038FF"/>
<stop offset="1" stop-color="#EFF6FF"/>
</linearGradient>
<linearGradient id="paint3_linear_8099_26509" x1="73.1549" y1="63.8905" x2="104.731" y2="94.81" gradientUnits="userSpaceOnUse">
<stop stop-color="#BDCFFF"/>
<stop offset="1" stop-color="#91A5FF" stop-opacity="0.5"/>
</linearGradient>
<linearGradient id="paint4_linear_8099_26509" x1="83.1858" y1="103.507" x2="88.5816" y2="98.1355" gradientUnits="userSpaceOnUse">
<stop stop-color="#BDCFFF"/>
<stop offset="1" stop-color="#91A5FF" stop-opacity="0.5"/>
</linearGradient>
<linearGradient id="paint5_linear_8099_26509" x1="26.1511" y1="13.0362" x2="31.4096" y2="13.0362" gradientUnits="userSpaceOnUse">
<stop stop-color="#CBD2D9"/>
<stop offset="1" stop-color="#EDF1F4" stop-opacity="0"/>
</linearGradient>
<linearGradient id="paint6_linear_8099_26509" x1="11.9012" y1="22.8502" x2="27.7769" y2="22.8502" gradientUnits="userSpaceOnUse">
<stop stop-color="#CBD2D9"/>
<stop offset="1" stop-color="#EDF1F4" stop-opacity="0"/>
</linearGradient>
<linearGradient id="paint7_linear_8099_26509" x1="15.3936" y1="27.0987" x2="29.6978" y2="27.0987" gradientUnits="userSpaceOnUse">
<stop stop-color="#CBD2D9"/>
<stop offset="1" stop-color="#EDF1F4" stop-opacity="0"/>
</linearGradient>
<linearGradient id="paint8_linear_8099_26509" x1="13.0705" y1="11.8115" x2="125.737" y2="48.8519" gradientUnits="userSpaceOnUse">
<stop stop-color="#E0EAFC"/>
<stop offset="1" stop-color="#CFDEF3"/>
</linearGradient>
<linearGradient id="paint9_linear_8099_26509" x1="55.1057" y1="76.6843" x2="39.4696" y2="48.0229" gradientUnits="userSpaceOnUse">
<stop stop-color="#0038FF"/>
<stop offset="1" stop-color="#EFF6FF"/>
</linearGradient>
</defs>
</svg>
