<svg width="112" height="112" viewBox="0 0 112 112" fill="none" xmlns="http://www.w3.org/2000/svg">
<path d="M86.121 103.3C86.121 107.445 82.7646 110.919 78.5132 110.919H37.9008C33.7612 110.919 30.293 107.557 30.293 103.3V7.61865C30.293 3.47321 33.6494 0 37.9008 0H78.8488C82.9884 0 86.4567 3.36117 86.4567 7.61865V103.412H86.121V103.3Z" fill="white"/>
<path d="M78.8488 0C82.9884 0 86.4567 3.36117 86.4567 7.61865V103.636C86.4567 107.781 83.1003 111.255 78.8488 111.255H37.9008C33.7612 111.255 30.293 107.893 30.293 103.636V7.61865C30.293 3.47321 33.6494 0 37.9008 0H78.8488Z" fill="url(#paint0_linear_8099_26564)"/>
<path d="M82.4849 7.67558V103.693C82.4849 105.373 81.478 106.718 79.9116 107.166C79.576 107.278 79.2404 107.278 78.7928 107.278H37.8448C37.621 107.278 37.3973 107.278 37.2854 107.278C35.4953 106.942 34.2646 105.486 34.2646 103.693V8.01169C34.2646 6.10703 35.4953 4.65053 37.2854 4.42645C37.5092 4.42645 37.621 4.42645 37.8448 4.42645H43.8863C44.6695 4.42645 45.2289 4.98664 45.2289 5.77092C45.2289 7.33946 46.5714 8.68393 48.1378 8.68393H68.9474C70.5137 8.68393 71.8563 7.33946 71.8563 5.77092C71.8563 4.98664 72.4139 4.09033 73.1971 4.09033H78.9047C79.2404 4.09033 79.6879 4.09033 80.0235 4.20237C81.3661 4.65053 82.4849 5.99499 82.4849 7.67558Z" fill="url(#paint1_linear_8099_26564)"/>
<path d="M61.1149 4.92841H55.6328C55.0734 4.92841 54.8496 4.36821 54.8496 4.14414C54.8496 3.58394 55.409 3.35986 55.6328 3.35986H61.1149C61.5624 3.35986 61.898 3.92006 61.898 4.14414C61.898 4.70433 61.5624 4.92841 61.1149 4.92841Z" fill="url(#paint2_linear_8099_26564)"/>
<path d="M71.668 44.5806C71.668 48.1397 70.2437 51.3824 68.028 53.7551C67.8698 53.9924 67.6324 54.1506 67.395 54.3878C65.021 56.6024 61.8558 57.9469 58.3741 57.9469C55.6045 57.9469 52.9932 57.0769 50.7775 55.5742C50.1445 55.1787 49.5905 54.6251 49.0366 54.1506C46.5836 51.6988 45.0801 48.377 45.0801 44.6597C45.0801 37.2252 51.0149 31.2935 58.3741 31.2935C65.7332 31.2935 71.668 37.2252 71.668 44.5806Z" fill="#E9F0F8"/>
<path d="M71.668 44.5806C71.668 48.4561 70.0063 51.936 67.395 54.3087C65.021 56.5233 61.8558 57.8678 58.3741 57.8678C55.6045 57.8678 52.9932 56.9978 50.7775 55.4951C47.2957 53.1224 45.0801 49.0888 45.0801 44.5806C45.0801 37.2252 51.0149 31.2935 58.3741 31.2935C65.7332 31.2935 71.668 37.2252 71.668 44.5806Z" fill="#E9F0F8"/>
<mask id="mask0_8099_26564" style="mask-type:alpha" maskUnits="userSpaceOnUse" x="44" y="30" width="29" height="29">
<path d="M71.6666 44.5801C71.6666 48.1392 70.2422 51.3819 68.0266 53.7546C67.8683 53.9919 67.6309 54.1501 67.3935 54.3873C65.0196 56.6019 61.8543 57.9464 58.3726 57.9464C55.603 57.9464 52.9917 57.0764 50.776 55.5737C50.143 55.1782 49.5891 54.6246 49.0352 54.1501C46.5821 51.6983 45.0786 48.3765 45.0786 44.6592C45.0786 37.2247 51.0134 31.293 58.3726 31.293C65.7318 31.293 71.6666 37.2247 71.6666 44.5801Z" fill="#E9F0F8"/>
<path d="M71.6666 44.5801C71.6666 48.4556 70.0048 51.9355 67.3935 54.3083C65.0196 56.5228 61.8543 57.8673 58.3726 57.8673C55.603 57.8673 52.9917 56.9973 50.776 55.4946C47.2943 53.1219 45.0786 49.0883 45.0786 44.5801C45.0786 37.2247 51.0134 31.293 58.3726 31.293C65.7318 31.293 71.6666 37.2247 71.6666 44.5801Z" fill="#E9F0F8"/>
<path fill-rule="evenodd" clip-rule="evenodd" d="M58.3727 32.32C51.5799 32.32 46.1052 37.7927 46.1052 44.5807C46.1052 48.748 48.1518 52.4641 51.3531 54.6462C53.4101 56.0411 55.8224 56.8414 58.3727 56.8414C61.584 56.8414 64.5017 55.6028 66.6934 53.5583L66.7033 53.5491L66.7033 53.5491C69.1069 51.3652 70.6402 48.1584 70.6402 44.5807C70.6402 37.7927 65.1655 32.32 58.3727 32.32ZM44.0522 44.5807C44.0522 36.6579 50.4471 30.2671 58.3727 30.2671C66.2983 30.2671 72.6931 36.6579 72.6931 44.5807C72.6931 48.7514 70.9051 52.5026 68.0889 55.064C65.5333 57.4458 62.1225 58.8944 58.3727 58.8944C55.3841 58.8944 52.5741 57.9549 50.2 56.3447L50.1981 56.3434C46.4365 53.78 44.0522 49.4292 44.0522 44.5807Z" fill="white"/>
</mask>
<g mask="url(#mask0_8099_26564)">
<path d="M58.3437 47.2121C60.9811 47.2121 63.1192 45.074 63.1192 42.4366C63.1192 39.7992 60.9811 37.6611 58.3437 37.6611C55.7063 37.6611 53.5682 39.7992 53.5682 42.4366C53.5682 45.074 55.7063 47.2121 58.3437 47.2121Z" fill="url(#paint3_linear_8099_26564)"/>
<path d="M61.9021 49.3383H54.7853C53.5972 49.3383 52.6161 50.2336 52.4973 51.4222L51.4511 61.9571C51.4204 62.2813 51.5239 62.6054 51.7423 62.8486C51.9608 63.0917 52.2712 63.2267 52.5931 63.2267H53.8502L54.793 72.7198C54.9079 73.9083 55.8929 74.8036 57.0809 74.8036H59.5988C60.7869 74.8036 61.768 73.9045 61.8868 72.7198L62.8295 63.2267H64.0904C64.4162 63.2267 64.7266 63.0878 64.945 62.8486C65.1635 62.6054 65.267 62.2813 65.2363 61.9571L64.19 51.4222C64.0751 50.2336 63.0901 49.3345 61.9059 49.3345L61.9021 49.3383Z" fill="url(#paint4_linear_8099_26564)"/>
</g>
<path fill-rule="evenodd" clip-rule="evenodd" d="M58.3741 32.3195C51.5814 32.3195 46.1066 37.7922 46.1066 44.5802C46.1066 48.7475 48.1532 52.4636 51.3546 54.6457C53.4116 56.0406 55.8239 56.8409 58.3741 56.8409C61.5855 56.8409 64.5032 55.6023 66.6949 53.5578L66.7047 53.5486L66.7048 53.5487C69.1083 51.3647 70.6417 48.1579 70.6417 44.5802C70.6417 37.7922 65.1669 32.3195 58.3741 32.3195ZM44.0537 44.5802C44.0537 36.6574 50.4486 30.2666 58.3741 30.2666C66.2997 30.2666 72.6946 36.6574 72.6946 44.5802C72.6946 48.7509 70.9065 52.5021 68.0903 55.0635C65.5347 57.4453 62.1239 58.8939 58.3741 58.8939C55.3856 58.8939 52.5756 57.9544 50.2014 56.3442L50.1996 56.3429C46.438 53.7795 44.0537 49.4288 44.0537 44.5802Z" fill="white"/>
<path d="M71.9031 72.5982H44.8426C44.1879 72.5982 43.7515 72.0365 43.7515 71.4749C43.7515 70.8009 44.297 70.3516 44.8426 70.3516H71.9031C72.5578 70.3516 72.9943 70.9132 72.9943 71.4749C72.9943 72.0365 72.5578 72.5982 71.9031 72.5982Z" fill="url(#paint5_linear_8099_26564)"/>
<path d="M71.9031 81.5967H44.8426C44.1879 81.5967 43.7515 81.035 43.7515 80.4734C43.7515 79.7994 44.297 79.3501 44.8426 79.3501H71.9031C72.5578 79.3501 72.9943 79.9117 72.9943 80.4734C72.9943 81.035 72.5578 81.5967 71.9031 81.5967Z" fill="url(#paint6_linear_8099_26564)"/>
<path d="M52.7603 4.92841H52.5366C51.9772 4.92841 51.7534 4.36821 51.7534 4.14414C51.7534 3.58394 52.3128 3.35986 52.5366 3.35986H52.7603C53.3197 3.35986 53.5435 3.92006 53.5435 4.14414C53.5435 4.70433 53.2079 4.92841 52.7603 4.92841Z" fill="url(#paint7_linear_8099_26564)"/>
<path d="M42.4076 91.3304C42.4076 95.9879 40.5436 100.231 37.6441 103.336C37.437 103.647 37.1264 103.854 36.8157 104.164C33.7091 107.062 29.567 108.822 25.0107 108.822C21.3863 108.822 17.9691 107.683 15.0696 105.717C14.2412 105.199 13.5163 104.475 12.7914 103.854C9.58128 100.645 7.61377 96.2984 7.61377 91.4339C7.61377 81.7049 15.3802 73.9424 25.0107 73.9424C34.6411 73.9424 42.4076 81.7049 42.4076 91.3304Z" fill="#E9F0F8"/>
<path d="M42.4076 91.3304C42.4076 96.4019 40.233 100.956 36.8157 104.061C33.7091 106.959 29.567 108.718 25.0107 108.718C21.3863 108.718 17.9691 107.58 15.0696 105.613C10.5133 102.508 7.61377 97.2299 7.61377 91.3304C7.61377 81.7049 15.3802 73.9424 25.0107 73.9424C34.6411 73.9424 42.4076 81.7049 42.4076 91.3304Z" fill="#E9F0F8"/>
<mask id="mask1_8099_26564" style="mask-type:alpha" maskUnits="userSpaceOnUse" x="6" y="72" width="38" height="39">
<path d="M42.4042 91.3289C42.4042 95.9864 40.5402 100.23 37.6407 103.335C37.4336 103.645 37.123 103.852 36.8123 104.163C33.7057 107.061 29.5636 108.82 25.0073 108.82C21.3829 108.82 17.9657 107.682 15.0662 105.715C14.2377 105.198 13.5129 104.473 12.788 103.852C9.57786 100.644 7.61035 96.2969 7.61035 91.4324C7.61035 81.7034 15.3768 73.9409 25.0073 73.9409C34.6377 73.9409 42.4042 81.7034 42.4042 91.3289Z" fill="#E9F0F8"/>
<path d="M42.4042 91.3289C42.4042 96.4004 40.2295 100.954 36.8123 104.059C33.7057 106.957 29.5636 108.717 25.0073 108.717C21.3829 108.717 17.9657 107.578 15.0662 105.612C10.5098 102.507 7.61035 97.2284 7.61035 91.3289C7.61035 81.7034 15.3768 73.9409 25.0073 73.9409C34.6377 73.9409 42.4042 81.7034 42.4042 91.3289Z" fill="#E9F0F8"/>
<path fill-rule="evenodd" clip-rule="evenodd" d="M25.0068 75.2851C16.1175 75.2851 8.95311 82.4469 8.95311 91.3299C8.95311 96.7834 11.6314 101.646 15.8207 104.502C18.5126 106.327 21.6694 107.375 25.0068 107.375C29.2092 107.375 33.0274 105.754 35.8955 103.078L35.9084 103.066L35.9085 103.066C39.0538 100.208 41.0604 96.0118 41.0604 91.3299C41.0604 82.4469 33.896 75.2851 25.0068 75.2851ZM6.2666 91.3299C6.2666 80.9619 14.6351 72.5986 25.0068 72.5986C35.3784 72.5986 43.7469 80.9619 43.7469 91.3299C43.7469 96.7878 41.407 101.697 37.7216 105.049C34.3773 108.165 29.9138 110.061 25.0068 110.061C21.0959 110.061 17.4185 108.832 14.3117 106.725L14.3092 106.723C9.3867 103.368 6.2666 97.6748 6.2666 91.3299Z" fill="white"/>
</mask>
<g mask="url(#mask1_8099_26564)">
<path d="M24.9721 94.773C28.4235 94.773 31.2214 91.9751 31.2214 88.5237C31.2214 85.0723 28.4235 82.2744 24.9721 82.2744C21.5207 82.2744 18.7228 85.0723 18.7228 88.5237C18.7228 91.9751 21.5207 94.773 24.9721 94.773Z" fill="url(#paint8_linear_8099_26564)"/>
<path d="M29.6287 97.5556H20.3155C18.7608 97.5556 17.4769 98.7272 17.3214 100.283L15.9522 106.069C15.9121 106.493 16.0475 106.917 16.3334 107.235C16.6193 107.554 17.0255 107.73 17.4468 107.73H19.0918H30.8424H32.4924C32.9187 107.73 33.3249 107.549 33.6108 107.235C33.8967 106.917 34.0321 106.493 33.992 106.069L32.6228 100.283C32.4724 98.7272 31.1834 97.5505 29.6337 97.5505L29.6287 97.5556Z" fill="url(#paint9_linear_8099_26564)"/>
</g>
<path fill-rule="evenodd" clip-rule="evenodd" d="M25.0121 75.2847C16.1229 75.2847 8.95848 82.4464 8.95848 91.3294C8.95848 96.7829 11.6368 101.646 15.8261 104.501C18.518 106.327 21.6748 107.374 25.0121 107.374C29.2146 107.374 33.0327 105.753 35.9009 103.078L35.9138 103.066L35.9139 103.066C39.0592 100.208 41.0658 96.0113 41.0658 91.3294C41.0658 82.4464 33.9014 75.2847 25.0121 75.2847ZM6.27197 91.3294C6.27197 80.9614 14.6405 72.5981 25.0121 72.5981C35.3838 72.5981 43.7523 80.9614 43.7523 91.3294C43.7523 96.7873 41.4124 101.696 37.727 105.048C34.3827 108.165 29.9192 110.061 25.0121 110.061C21.1012 110.061 17.4239 108.831 14.3171 106.724L14.3146 106.722C9.39207 103.368 6.27197 97.6743 6.27197 91.3294Z" fill="url(#paint10_linear_8099_26564)"/>
<path d="M107.746 58.8706C107.746 62.4874 106.299 65.7827 104.047 68.194C103.886 68.4351 103.645 68.5958 103.404 68.837C100.991 71.0874 97.7746 72.4538 94.2364 72.4538C91.4218 72.4538 88.7681 71.5697 86.5165 70.0426C85.8732 69.6407 85.3102 69.0781 84.7473 68.5958C82.2545 66.1042 80.7266 62.7285 80.7266 58.9509C80.7266 51.3957 86.7577 45.3677 94.2364 45.3677C101.715 45.3677 107.746 51.3957 107.746 58.8706Z" fill="#E9F0F8"/>
<path d="M107.746 58.8706C107.746 62.8089 106.057 66.3454 103.404 68.7566C100.991 71.0071 97.7746 72.3734 94.2364 72.3734C91.4218 72.3734 88.7681 71.4893 86.5165 69.9622C82.9782 67.551 80.7266 63.4519 80.7266 58.8706C80.7266 51.3957 86.7577 45.3677 94.2364 45.3677C101.715 45.3677 107.746 51.3957 107.746 58.8706Z" fill="#E9F0F8"/>
<mask id="mask2_8099_26564" style="mask-type:alpha" maskUnits="userSpaceOnUse" x="79" y="44" width="30" height="30">
<path d="M107.748 58.8696C107.748 62.4864 106.301 65.7818 104.049 68.193C103.888 68.4341 103.647 68.5949 103.406 68.836C100.993 71.0865 97.7766 72.4528 94.2383 72.4528C91.4238 72.4528 88.7701 71.5687 86.5184 70.0416C85.8751 69.6397 85.3122 69.0771 84.7493 68.5949C82.2564 66.1033 80.7285 62.7275 80.7285 58.95C80.7285 51.3948 86.7597 45.3667 94.2383 45.3667C101.717 45.3667 107.748 51.3948 107.748 58.8696Z" fill="#E9F0F8"/>
<path d="M107.748 58.8696C107.748 62.8079 106.059 66.3444 103.406 68.7556C100.993 71.0061 97.7766 72.3724 94.2383 72.3724C91.4238 72.3724 88.7701 71.4883 86.5184 69.9612C82.9801 67.55 80.7285 63.4509 80.7285 58.8696C80.7285 51.3948 86.7597 45.3667 94.2383 45.3667C101.717 45.3667 107.748 51.3948 107.748 58.8696Z" fill="#E9F0F8"/>
<path fill-rule="evenodd" clip-rule="evenodd" d="M94.2385 46.4105C87.3354 46.4105 81.7718 51.972 81.7718 58.8702C81.7718 63.1052 83.8516 66.8816 87.1049 69.0991C89.1953 70.5167 91.6468 71.33 94.2385 71.33C97.5019 71.33 100.467 70.0712 102.694 67.9935L102.704 67.9842L102.704 67.9842C105.147 65.7649 106.705 62.506 106.705 58.8702C106.705 51.972 101.142 46.4105 94.2385 46.4105ZM79.6855 58.8702C79.6855 50.8188 86.1842 44.3242 94.2385 44.3242C102.293 44.3242 108.791 50.8188 108.791 58.8702C108.791 63.1086 106.974 66.9207 104.112 69.5237C101.515 71.9441 98.0491 73.4162 94.2385 73.4162C91.2014 73.4162 88.3457 72.4615 85.9331 70.8252L85.9312 70.8239C82.1085 68.2188 79.6855 63.7974 79.6855 58.8702Z" fill="white"/>
</mask>
<g mask="url(#mask2_8099_26564)">
<path d="M94.2101 61.5439C96.8903 61.5439 99.0631 59.3711 99.0631 56.6909C99.0631 54.0106 96.8903 51.8379 94.2101 51.8379C91.5298 51.8379 89.3571 54.0106 89.3571 56.6909C89.3571 59.3711 91.5298 61.5439 94.2101 61.5439Z" fill="url(#paint11_linear_8099_26564)"/>
<path d="M97.8262 63.7047H90.5939C89.3866 63.7047 88.3895 64.6145 88.2688 65.8223L87.2056 76.5283C87.1744 76.8577 87.2796 77.1871 87.5016 77.4342C87.7236 77.6813 88.039 77.8185 88.3662 77.8185H89.6436L90.6017 87.4657C90.7185 88.6735 91.7194 89.5833 92.9268 89.5833H95.4856C96.6929 89.5833 97.6899 88.6696 97.8107 87.4657L98.7687 77.8185H100.05C100.381 77.8185 100.697 77.6774 100.919 77.4342C101.141 77.1871 101.246 76.8577 101.215 76.5283L100.151 65.8223C100.034 64.6145 99.0336 63.7007 97.8301 63.7007L97.8262 63.7047Z" fill="url(#paint12_linear_8099_26564)"/>
</g>
<path fill-rule="evenodd" clip-rule="evenodd" d="M94.2365 46.41C87.3335 46.41 81.7698 51.9715 81.7698 58.8697C81.7698 63.1047 83.8497 66.8811 87.103 69.0986C89.1934 70.5162 91.6448 71.3295 94.2365 71.3295C97.5 71.3295 100.465 70.0708 102.692 67.993L102.702 67.9837L102.702 67.9837C105.145 65.7644 106.703 62.5055 106.703 58.8697C106.703 51.9715 101.14 46.41 94.2365 46.41ZM79.6836 58.8697C79.6836 50.8183 86.1823 44.3237 94.2365 44.3237C102.291 44.3237 108.789 50.8183 108.789 58.8697C108.789 63.1081 106.972 66.9202 104.11 69.5232C101.513 71.9436 98.0472 73.4157 94.2365 73.4157C91.1994 73.4157 88.3438 72.461 85.9311 70.8247L85.9292 70.8234C82.1065 68.2184 79.6836 63.797 79.6836 58.8697Z" fill="url(#paint13_linear_8099_26564)"/>
<path d="M21.8566 13.6466C21.8566 16.0768 20.884 18.291 19.3711 19.9112C19.2631 20.0732 19.101 20.1812 18.9389 20.3432C17.3179 21.8553 15.1566 22.7734 12.7791 22.7734C10.888 22.7734 9.10493 22.1794 7.59201 21.1533C7.15975 20.8832 6.78152 20.5052 6.40329 20.1812C4.72828 18.507 3.70166 16.2388 3.70166 13.7006C3.70166 8.62411 7.75411 4.57373 12.7791 4.57373C17.8042 4.57373 21.8566 8.62411 21.8566 13.6466Z" fill="#E9F0F8"/>
<path d="M21.8566 13.6466C21.8566 16.2928 20.722 18.669 18.9389 20.2892C17.3179 21.8013 15.1566 22.7194 12.7791 22.7194C10.888 22.7194 9.10493 22.1254 7.59201 21.0993C5.21457 19.4791 3.70166 16.7249 3.70166 13.6466C3.70166 8.62411 7.75411 4.57373 12.7791 4.57373C17.8042 4.57373 21.8566 8.62411 21.8566 13.6466Z" fill="#E9F0F8"/>
<mask id="mask3_8099_26564" style="mask-type:alpha" maskUnits="userSpaceOnUse" x="3" y="3" width="20" height="21">
<path d="M21.8542 13.6461C21.8542 16.0763 20.8816 18.2905 19.3687 19.9107C19.2606 20.0727 19.0985 20.1807 18.9364 20.3427C17.3155 21.8548 15.1541 22.7729 12.7767 22.7729C10.8856 22.7729 9.10249 22.1789 7.58957 21.1528C7.15731 20.8828 6.77908 20.5047 6.40085 20.1807C4.72584 18.5065 3.69922 16.2383 3.69922 13.7001C3.69922 8.62362 7.75167 4.57324 12.7767 4.57324C17.8017 4.57324 21.8542 8.62362 21.8542 13.6461Z" fill="#E9F0F8"/>
<path d="M21.8542 13.6461C21.8542 16.2923 20.7195 18.6685 18.9364 20.2887C17.3155 21.8008 15.1541 22.7189 12.7767 22.7189C10.8856 22.7189 9.10249 22.1249 7.58957 21.0988C5.21213 19.4786 3.69922 16.7244 3.69922 13.6461C3.69922 8.62362 7.75167 4.57324 12.7767 4.57324C17.8017 4.57324 21.8542 8.62362 21.8542 13.6461Z" fill="#E9F0F8"/>
<path fill-rule="evenodd" clip-rule="evenodd" d="M12.7784 5.27484C8.1401 5.27484 4.40179 9.01175 4.40179 13.6468C4.40179 16.4923 5.79928 19.0298 7.98522 20.5198C9.38981 21.4723 11.037 22.0187 12.7784 22.0187C14.9712 22.0187 16.9634 21.173 18.46 19.7769L18.4667 19.7706L18.4668 19.7707C20.108 18.2794 21.155 16.0897 21.155 13.6468C21.155 9.01175 17.4167 5.27484 12.7784 5.27484ZM3 13.6468C3 8.23688 7.36659 3.87305 12.7784 3.87305C18.1902 3.87305 22.5568 8.23688 22.5568 13.6468C22.5568 16.4947 21.3358 19.0561 19.4128 20.805C17.6678 22.4314 15.3388 23.4205 12.7784 23.4205C10.7377 23.4205 8.81895 22.779 7.19783 21.6795L7.19655 21.6787C4.62803 19.9283 3 16.9575 3 13.6468Z" fill="white"/>
</mask>
<g mask="url(#mask3_8099_26564)">
<path d="M12.7594 15.443C14.5603 15.443 16.0202 13.9831 16.0202 12.1822C16.0202 10.3813 14.5603 8.92139 12.7594 8.92139C10.9585 8.92139 9.49857 10.3813 9.49857 12.1822C9.49857 13.9831 10.9585 15.443 12.7594 15.443Z" fill="url(#paint14_linear_8099_26564)"/>
<path d="M15.1892 16.8949H10.3296C9.51838 16.8949 8.84846 17.5062 8.76733 18.3178L8.05293 25.5114C8.03199 25.7327 8.10265 25.954 8.25181 26.12C8.40097 26.2861 8.61294 26.3783 8.83275 26.3783H9.69109L10.3348 32.8604C10.4134 33.672 11.0859 34.2833 11.8971 34.2833H13.6164C14.4276 34.2833 15.0976 33.6693 15.1787 32.8604L15.8224 26.3783H16.6834C16.9058 26.3783 17.1178 26.2834 17.267 26.12C17.4161 25.954 17.4868 25.7327 17.4658 25.5114L16.7514 18.3178C16.6729 17.5062 16.0004 16.8923 15.1918 16.8923L15.1892 16.8949Z" fill="url(#paint15_linear_8099_26564)"/>
</g>
<path fill-rule="evenodd" clip-rule="evenodd" d="M12.7803 5.27435C8.14205 5.27435 4.40374 9.01126 4.40374 13.6463C4.40374 16.4918 5.80123 19.0293 7.98717 20.5193C9.39176 21.4718 11.0389 22.0182 12.7803 22.0182C14.9731 22.0182 16.9654 21.1725 18.462 19.7764L18.4687 19.7701L18.4687 19.7702C20.1099 18.2789 21.1569 16.0892 21.1569 13.6463C21.1569 9.01126 17.4186 5.27435 12.7803 5.27435ZM3.00195 13.6463C3.00195 8.2364 7.36854 3.87256 12.7803 3.87256C18.1921 3.87256 22.5587 8.2364 22.5587 13.6463C22.5587 16.4942 21.3378 19.0556 19.4148 20.8046C17.6698 22.4309 15.3408 23.42 12.7803 23.42C10.7397 23.42 8.8209 22.7785 7.19978 21.6791L7.1985 21.6782C4.62998 19.9278 3.00195 16.957 3.00195 13.6463Z" fill="url(#paint16_linear_8099_26564)"/>
<defs>
<linearGradient id="paint0_linear_8099_26564" x1="85.8845" y1="103.948" x2="-51.04" y2="-23.9139" gradientUnits="userSpaceOnUse">
<stop stop-color="#0038FF"/>
<stop offset="1" stop-color="#EFF6FF"/>
</linearGradient>
<linearGradient id="paint1_linear_8099_26564" x1="58.3749" y1="6.76173" x2="58.3694" y2="107.278" gradientUnits="userSpaceOnUse">
<stop stop-color="#F1F0F0"/>
<stop offset="1" stop-color="white"/>
</linearGradient>
<linearGradient id="paint2_linear_8099_26564" x1="58.3738" y1="0.177983" x2="57.789" y2="7.09685" gradientUnits="userSpaceOnUse">
<stop stop-color="#2563EB"/>
<stop offset="0.705823" stop-color="#1D4ED8"/>
</linearGradient>
<linearGradient id="paint3_linear_8099_26564" x1="65.1011" y1="72.3642" x2="22.3296" y2="42.9775" gradientUnits="userSpaceOnUse">
<stop stop-color="#0038FF"/>
<stop offset="1" stop-color="#EFF6FF"/>
</linearGradient>
<linearGradient id="paint4_linear_8099_26564" x1="65.1011" y1="72.3642" x2="22.3296" y2="42.9775" gradientUnits="userSpaceOnUse">
<stop stop-color="#0038FF"/>
<stop offset="1" stop-color="#EFF6FF"/>
</linearGradient>
<linearGradient id="paint5_linear_8099_26564" x1="43.6975" y1="70.3516" x2="45.9471" y2="80.01" gradientUnits="userSpaceOnUse">
<stop stop-color="#E0EAFC"/>
<stop offset="1" stop-color="#CFDEF3"/>
</linearGradient>
<linearGradient id="paint6_linear_8099_26564" x1="43.6975" y1="79.3501" x2="45.9471" y2="89.0086" gradientUnits="userSpaceOnUse">
<stop stop-color="#E0EAFC"/>
<stop offset="1" stop-color="#CFDEF3"/>
</linearGradient>
<linearGradient id="paint7_linear_8099_26564" x1="52.6485" y1="0.177983" x2="50.5605" y2="6.45132" gradientUnits="userSpaceOnUse">
<stop stop-color="#2563EB"/>
<stop offset="0.705823" stop-color="#1D4ED8"/>
</linearGradient>
<linearGradient id="paint8_linear_8099_26564" x1="28.3415" y1="105.907" x2="37.2085" y2="46.9103" gradientUnits="userSpaceOnUse">
<stop stop-color="#20C992"/>
<stop offset="1" stop-color="#EAF9F1"/>
</linearGradient>
<linearGradient id="paint9_linear_8099_26564" x1="28.3415" y1="105.907" x2="37.2085" y2="46.9103" gradientUnits="userSpaceOnUse">
<stop stop-color="#20C992"/>
<stop offset="1" stop-color="#EAF9F1"/>
</linearGradient>
<linearGradient id="paint10_linear_8099_26564" x1="32.0071" y1="107.378" x2="41.3602" y2="19.5894" gradientUnits="userSpaceOnUse">
<stop stop-color="#20C992"/>
<stop offset="1" stop-color="#EAF9F1"/>
</linearGradient>
<linearGradient id="paint11_linear_8099_26564" x1="101.077" y1="87.1043" x2="57.6113" y2="57.2405" gradientUnits="userSpaceOnUse">
<stop stop-color="#0038FF"/>
<stop offset="1" stop-color="#EFF6FF"/>
</linearGradient>
<linearGradient id="paint12_linear_8099_26564" x1="101.077" y1="87.1043" x2="57.6113" y2="57.2405" gradientUnits="userSpaceOnUse">
<stop stop-color="#0038FF"/>
<stop offset="1" stop-color="#EFF6FF"/>
</linearGradient>
<linearGradient id="paint13_linear_8099_26564" x1="108.493" y1="71.505" x2="78.4735" y2="15.9491" gradientUnits="userSpaceOnUse">
<stop stop-color="#0038FF"/>
<stop offset="1" stop-color="#EFF6FF"/>
</linearGradient>
<linearGradient id="paint14_linear_8099_26564" x1="17.3735" y1="32.6176" x2="-11.832" y2="12.5515" gradientUnits="userSpaceOnUse">
<stop stop-color="#0038FF"/>
<stop offset="1" stop-color="#EFF6FF"/>
</linearGradient>
<linearGradient id="paint15_linear_8099_26564" x1="17.3735" y1="32.6176" x2="-11.832" y2="12.5515" gradientUnits="userSpaceOnUse">
<stop stop-color="#0038FF"/>
<stop offset="1" stop-color="#EFF6FF"/>
</linearGradient>
<linearGradient id="paint16_linear_8099_26564" x1="22.3595" y1="22.1362" x2="2.18886" y2="-15.1929" gradientUnits="userSpaceOnUse">
<stop stop-color="#0038FF"/>
<stop offset="1" stop-color="#EFF6FF"/>
</linearGradient>
</defs>
</svg>
