<svg width="355" height="200" viewBox="0 0 355 200" fill="none" xmlns="http://www.w3.org/2000/svg">
<rect width="355" height="200" rx="8" fill="#002554"/>
<path d="M96.4578 120.023L65.6183 71.5373C61.6922 65.3647 67.4257 57.5959 74.4814 59.5279L287.091 117.745C296.088 120.209 294.307 133.395 284.978 133.375C218.152 133.23 138.478 132.998 125.896 133.461C109.316 134.072 100.18 126.437 96.4578 120.023Z" fill="url(#paint0_linear_525_400)"/>
<path d="M298.473 21C300.789 21 302.644 21.5066 303.827 21.9777L303.018 27.0162L302.483 26.7482C301.381 26.2771 299.965 25.8238 298.013 25.8559C295.675 25.8559 294.594 26.889 294.594 27.8554C294.581 28.9446 295.857 29.6628 297.944 30.7384C301.389 32.3978 302.981 34.4099 302.959 37.0549C302.913 41.8813 298.838 45 292.561 45C289.883 44.9709 287.303 44.4093 285.908 43.7603L286.747 38.5539L287.517 38.925C289.478 39.7931 290.748 40.1442 293.138 40.1442C294.854 40.1442 296.696 39.4322 296.711 37.8737C296.722 36.8561 295.941 36.1304 293.616 34.9908C291.351 33.8784 288.348 32.0152 288.382 28.6742C288.417 24.1547 292.573 21.0001 298.474 21.0001L298.473 21ZM250.074 21.7392H259.714C261.012 21.7878 262.06 22.2018 262.422 23.5973L264.5 34.2221C264.5 34.2231 264.5 34.2269 264.5 34.228L265.124 37.4113L270.977 21.7392H277.309L267.898 44.679L261.572 44.685L256.537 26.174C259.533 27.7465 262.084 29.5658 263.561 32.0695C263.18 31.2773 262.678 30.3831 262.036 29.5017C261.288 28.4753 259.673 27.1501 258.998 26.5863C256.646 24.6218 253.451 23.0352 250 22.1956L250.074 21.7392ZM279.827 21.7656H286.018L282.145 44.6702H275.953L279.827 21.7656ZM314.799 21.7656H319.489L324.4 44.6702H318.77C318.77 44.6702 318.211 42.0389 318.03 41.2365C317.145 41.2365 310.956 41.2277 310.259 41.2277C310.024 41.8477 308.981 44.6701 308.981 44.6701H302.611L311.621 23.6679C312.259 22.1755 313.346 21.7655 314.799 21.7655L314.799 21.7656ZM315.259 27.9261C314.955 28.7781 314.424 30.1539 314.46 30.0935C314.46 30.0935 312.554 35.1292 312.055 36.4366L317.064 36.4337C316.822 35.2979 315.667 29.8815 315.667 29.8815L315.259 27.9262V27.9261Z" fill="white"/>
<defs>
<linearGradient id="paint0_linear_525_400" x1="100.223" y1="161.789" x2="124.885" y2="87.4974" gradientUnits="userSpaceOnUse">
<stop offset="0.270833" stop-color="#215699"/>
<stop offset="1" stop-color="#002554"/>
</linearGradient>
</defs>
</svg>
