<svg width="192" height="121" viewBox="0 0 192 121" fill="none" xmlns="http://www.w3.org/2000/svg">
<g clip-path="url(#clip0_8027_26953)">
<path d="M7.02629 0H184.324C188.204 0 191.35 3.14645 191.35 7.02629V113.643C191.35 117.523 188.204 120.669 184.324 120.669H7.02629C3.14645 120.669 0 117.523 0 113.643V7.02629C0 3.14645 3.14645 0 7.02629 0Z" fill="#5B89B4"/>
<path d="M163.521 54.1994H148.238V59.2937H163.521V54.1994Z" fill="white"/>
<path d="M163.521 47.2599H148.238V52.3541H163.521V47.2599Z" fill="white"/>
<path d="M178.796 58.2606L178.725 58.2764C178.488 58.3237 178.401 58.3395 178.228 58.3395C177.834 58.3395 177.36 58.1345 177.36 57.1724C177.36 56.6756 177.447 56.0211 178.188 56.0211C178.315 56.0211 178.457 56.0447 178.733 56.1236L178.796 56.1393V58.2606ZM178.922 53.466L178.796 53.4897V55.2719L178.693 55.2404H178.662C178.543 55.193 178.259 55.1142 177.983 55.1142C176.493 55.1142 176.185 56.2419 176.185 57.1803C176.185 58.4736 176.911 59.2227 178.173 59.2227C178.709 59.2227 179.103 59.1675 179.505 59.0334C179.876 58.9152 180.002 58.7496 180.002 58.3868V53.2847C179.647 53.3478 179.277 53.4108 178.922 53.4739" fill="white"/>
<path d="M183.212 58.2922L183.149 58.308L182.92 58.371C182.707 58.4262 182.518 58.4578 182.368 58.4578C182.021 58.4578 181.816 58.2843 181.816 57.9925C181.816 57.8033 181.903 57.4799 182.47 57.4799H183.212V58.2922ZM182.691 55.0826C182.234 55.0826 181.761 55.1615 181.177 55.3508L180.799 55.469L180.925 56.3286L181.295 56.2103C181.69 56.0841 182.171 55.9974 182.534 55.9974C182.699 55.9974 183.196 55.9974 183.196 56.5415V56.7781H182.502C181.24 56.7781 180.649 57.1803 180.649 58.0398C180.649 58.7811 181.185 59.2227 182.1 59.2227C182.384 59.2227 182.77 59.1754 183.109 59.0887H183.125H183.141L183.251 59.1123C183.606 59.1754 183.977 59.2385 184.331 59.3095V56.4784C184.331 55.5637 183.779 55.0984 182.691 55.0984" fill="white"/>
<path d="M174.403 58.2922L174.34 58.308L174.111 58.371C173.899 58.4262 173.709 58.4578 173.559 58.4578C173.212 58.4578 173 58.2843 173 57.9925C173 57.8033 173.086 57.4799 173.654 57.4799H174.395V58.2922H174.403ZM173.883 55.0826C173.425 55.0826 172.952 55.1615 172.369 55.3508L171.99 55.469L172.116 56.3286L172.487 56.2103C172.873 56.0841 173.362 55.9974 173.725 55.9974C173.891 55.9974 174.387 55.9974 174.387 56.5336V56.7702H173.693C172.432 56.7702 171.84 57.1724 171.84 58.0398C171.84 58.7811 172.384 59.2227 173.291 59.2227C173.575 59.2227 173.962 59.1754 174.301 59.0887H174.316H174.332L174.443 59.1044C174.798 59.1675 175.168 59.2306 175.523 59.3016V56.4706C175.523 55.5558 174.971 55.0905 173.883 55.0905" fill="white"/>
<path d="M169.624 55.0905C169.049 55.0905 168.576 55.2798 168.394 55.3665L168.347 55.3902L168.308 55.3586C168.063 55.1773 167.7 55.0905 167.203 55.0905C166.762 55.0905 166.352 55.1536 165.902 55.2877C165.516 55.4059 165.366 55.5873 165.366 55.9422V59.1754H166.573V56.1866L166.628 56.163C166.872 56.0841 167.014 56.0684 167.156 56.0684C167.503 56.0684 167.685 56.2576 167.685 56.6204V59.1754H168.875V56.5652C168.875 56.4153 168.844 56.3207 168.836 56.3049L168.796 56.2261L168.875 56.1866C169.057 56.1078 169.254 56.0684 169.467 56.0684C169.703 56.0684 169.995 56.163 169.995 56.6204V59.1754H171.186V56.5021C171.186 55.5558 170.673 55.0984 169.624 55.0984" fill="white"/>
<path d="M182.329 50.5798C182.155 50.5798 181.863 50.5641 181.627 50.5167L181.556 50.501V48.7503C181.556 48.6005 181.532 48.5137 181.524 48.498L181.485 48.427L181.564 48.3954C181.564 48.3954 181.603 48.3797 181.619 48.3718H181.627C181.627 48.3718 181.682 48.3481 181.706 48.3402C181.713 48.3402 181.729 48.3402 181.737 48.3324C182.005 48.2614 182.25 48.2693 182.36 48.2614C183.101 48.2614 183.18 48.9159 183.18 49.4127C183.18 50.3748 182.707 50.5798 182.313 50.5798M182.313 47.2599C182.313 47.2599 182.289 47.2599 182.281 47.2599C181.587 47.2599 180.878 47.4491 180.617 47.8198C180.483 48.0012 180.404 48.2298 180.397 48.498V50.2959C180.397 50.4458 180.365 50.5089 180.357 50.5246L180.318 50.6035H178.125V49.3496C178.094 48.0327 177.321 47.3072 176.186 47.3072H175.082C175.034 47.6305 175.003 47.8513 174.955 48.1746H176.051C176.627 48.1746 176.927 48.6636 176.927 49.4206V50.6823L176.848 50.6429C176.848 50.6429 176.738 50.6035 176.588 50.6035H174.695C174.656 50.8479 174.616 51.1555 174.561 51.4709H180.389C180.586 51.4315 180.815 51.4 181.02 51.3605C181.311 51.5025 181.863 51.5813 182.242 51.5813C183.511 51.5813 184.332 50.7375 184.332 49.4285C184.332 48.1194 183.535 47.2835 182.305 47.2599" fill="white"/>
<path d="M172.101 51.9993H172.156C173.418 51.9993 174.009 51.5813 174.009 50.5483C174.009 49.807 173.465 49.2156 172.558 49.2156H171.391C171.044 49.2156 170.839 49.0184 170.839 48.6793C170.839 48.4506 170.926 48.1668 171.493 48.1668H174.041C174.096 47.8356 174.127 47.6226 174.175 47.2993H171.525C170.295 47.2993 169.672 47.8119 169.672 48.6793C169.672 49.5468 170.216 49.9726 171.123 49.9726H172.29C172.637 49.9726 172.85 50.2486 172.85 50.5404C172.85 50.7297 172.763 51.124 172.195 51.124H168.268H167.59C167.014 51.124 166.612 50.7927 166.612 50.0357V49.5152C166.612 48.7267 166.928 48.2377 167.59 48.2377H168.702C168.749 47.8986 168.781 47.6936 168.828 47.3703H167.314C166.178 47.3703 165.398 48.1273 165.374 49.4522V50.0436C165.406 51.3605 166.186 51.9914 167.314 51.9914H168.418H170.437H171.643H172.109L172.101 51.9993Z" fill="white"/>
<path d="M161.605 100.142L156.747 111.742H153.577L151.187 102.484C151.038 101.917 150.919 101.704 150.47 101.467C149.752 101.073 148.561 100.71 147.505 100.481L147.576 100.142H152.686C153.332 100.142 153.924 100.576 154.066 101.325L155.328 108.036L158.45 100.142H161.605ZM174.033 107.957C174.041 104.897 169.798 104.724 169.83 103.36C169.83 102.942 170.232 102.5 171.099 102.382C171.533 102.327 172.716 102.279 174.056 102.902L174.585 100.442C173.859 100.182 172.937 99.9294 171.777 99.9294C168.812 99.9294 166.723 101.507 166.707 103.77C166.691 105.442 168.197 106.372 169.333 106.924C170.5 107.492 170.894 107.855 170.886 108.367C170.878 109.148 169.956 109.487 169.088 109.503C167.582 109.534 166.707 109.101 166.005 108.777L165.461 111.317C166.163 111.64 167.456 111.916 168.797 111.932C171.951 111.932 174.009 110.37 174.025 107.965M181.855 111.75H184.631L182.21 100.15H179.647C179.072 100.15 178.583 100.489 178.37 101.002L173.867 111.75H177.014L177.637 110.015H181.485L181.848 111.75H181.855ZM178.512 107.642L180.089 103.289L180.996 107.642H178.504H178.512ZM165.887 100.15L163.403 111.75H160.406L162.89 100.15H165.895H165.887Z" fill="white"/>
<path d="M169.443 25.2663L166.857 23.7758C166.439 23.5314 166.178 23.0819 166.178 22.6008V19.6121C166.178 19.1311 166.439 18.6816 166.857 18.4371L169.309 17.0255V19.6121C169.309 20.8265 169.964 21.97 171.02 22.5772L173.244 23.8626L170.799 25.2741C170.587 25.3924 170.35 25.4555 170.121 25.4555C169.893 25.4555 169.648 25.3924 169.443 25.2741M178.969 25.2741L176.525 23.8626L178.748 22.5772C179.805 21.97 180.468 20.8265 180.468 19.6121V17.0255L182.92 18.4371C183.338 18.6816 183.598 19.1311 183.598 19.6121V22.6008C183.598 23.0819 183.338 23.5393 182.92 23.7758L180.333 25.2663C180.121 25.3845 179.892 25.4476 179.655 25.4476C179.419 25.4476 179.182 25.3845 178.977 25.2663M171.84 21.1656C171.288 20.8423 170.941 20.2509 170.941 19.6042V16.0871L173.985 14.3286C174.537 14.0053 175.231 14.0053 175.783 14.3286L178.827 16.0792H178.835V19.6042C178.835 20.243 178.488 20.8423 177.936 21.1577L174.884 22.9163L171.832 21.1577L171.84 21.1656ZM170.941 11.3872C170.941 10.9061 171.202 10.4488 171.62 10.2122L174.206 8.72175C174.624 8.47729 175.145 8.47729 175.563 8.72175L178.149 10.2122C178.567 10.4566 178.827 10.9061 178.827 11.3872V14.2182L176.596 12.9328C175.539 12.3256 174.222 12.3256 173.165 12.9328L170.934 14.2182V11.3872H170.941ZM173.394 7.31019L170.807 8.80061C169.885 9.32896 169.309 10.3226 169.309 11.3872V15.1408L166.036 17.0255C165.114 17.5539 164.538 18.5475 164.538 19.6121V22.6008C164.538 23.6654 165.114 24.6512 166.036 25.1874L168.623 26.6778C169.088 26.9459 169.601 27.0721 170.121 27.0721C170.642 27.0721 171.154 26.9381 171.62 26.6778L174.876 24.801H174.884H174.892L178.149 26.6778C178.606 26.9459 179.127 27.0721 179.647 27.0721C180.168 27.0721 180.68 26.9381 181.146 26.6778L183.732 25.1874C184.655 24.6512 185.231 23.6654 185.231 22.6008V19.6121C185.231 18.5475 184.655 17.5618 183.732 17.0255L180.46 15.1408V11.3872C180.46 10.3226 179.884 9.32896 178.961 8.80061L176.375 7.31019C175.909 7.04207 175.397 6.91589 174.876 6.91589C174.356 6.91589 173.843 7.04995 173.378 7.31019" fill="white"/>
<path d="M132.309 23.0109H133.01V18.926H132.309V23.0109ZM137.655 20.4638C137.529 20.3691 137.411 20.2982 137.3 20.2587C137.19 20.2193 137.064 20.2035 136.93 20.2035C136.559 20.2035 136.244 20.3297 135.968 20.5742C135.66 20.858 135.502 21.2208 135.502 21.6545C135.502 22.033 135.629 22.3564 135.873 22.6324C136.157 22.9478 136.512 23.1134 136.93 23.1134C137.072 23.1134 137.19 23.0897 137.3 23.0503C137.411 23.0109 137.529 22.9399 137.655 22.8453V23.0188H138.357V20.306H137.655V20.4795V20.4638ZM137.49 22.2065C137.348 22.38 137.166 22.4668 136.938 22.4668C136.74 22.4668 136.567 22.4037 136.433 22.2696C136.275 22.1119 136.196 21.9069 136.196 21.6466C136.196 21.4258 136.259 21.2366 136.378 21.0867C136.52 20.9132 136.701 20.8265 136.938 20.8265C137.135 20.8265 137.308 20.8975 137.442 21.0315C137.592 21.1814 137.671 21.3864 137.671 21.6466C137.671 21.8753 137.608 22.0567 137.49 22.2065ZM133.673 21.3706V23.0188H134.375V21.347C134.375 20.9763 134.564 20.8659 134.872 20.8659H135.266V20.2508H134.848C134.059 20.2508 133.681 20.6767 133.681 21.3785M130.85 17.7116C130.85 17.4908 130.668 17.3094 130.448 17.3094C130.227 17.3094 130.045 17.4908 130.045 17.7116C130.045 17.9324 130.227 18.1138 130.448 18.1138C130.668 18.1138 130.85 17.9324 130.85 17.7116ZM130.905 20.4716C130.779 20.377 130.661 20.306 130.55 20.2666C130.44 20.2272 130.314 20.2114 130.179 20.2114C129.809 20.2114 129.493 20.3376 129.217 20.582C128.91 20.8659 128.752 21.2287 128.752 21.6624C128.752 22.0409 128.878 22.3642 129.123 22.6402C129.407 22.9557 129.762 23.1213 130.179 23.1213C130.321 23.1213 130.44 23.0976 130.55 23.0582C130.661 23.0188 130.779 22.9478 130.905 22.8532V23.0267H131.607V20.3139H130.905V20.4874V20.4716ZM130.739 22.2144C130.597 22.3879 130.416 22.4746 130.187 22.4746C129.99 22.4746 129.817 22.4116 129.683 22.2775C129.525 22.1198 129.454 21.9148 129.454 21.6545C129.454 21.4337 129.509 21.2445 129.627 21.0946C129.769 20.9211 129.951 20.8344 130.187 20.8344C130.385 20.8344 130.558 20.9054 130.692 21.0394C130.842 21.1893 130.921 21.3943 130.921 21.6545C130.921 21.8832 130.858 22.0646 130.739 22.2144ZM148.136 13.9264C148.356 13.9264 148.538 13.745 148.538 13.5242C148.538 13.3034 148.356 13.122 148.136 13.122C147.915 13.122 147.733 13.3034 147.733 13.5242C147.733 13.745 147.923 13.9264 148.136 13.9264ZM129.698 17.7195C129.698 17.4987 129.517 17.3173 129.296 17.3173C129.075 17.3173 128.894 17.4987 128.894 17.7195C128.894 17.9403 129.083 18.1217 129.296 18.1217C129.509 18.1217 129.698 17.9403 129.698 17.7195ZM137.103 17.7195C137.103 17.9403 137.285 18.1217 137.505 18.1217C137.726 18.1217 137.908 17.9403 137.908 17.7195C137.908 17.4987 137.726 17.3173 137.505 17.3173C137.285 17.3173 137.103 17.4987 137.103 17.7195ZM139.106 16.7259V16.1265H138.941C138.807 16.1265 138.704 16.024 138.704 15.89V15.3774C138.704 15.0146 138.578 14.6834 138.341 14.439C138.105 14.1945 137.774 14.0447 137.348 14.0447C136.922 14.0447 136.591 14.1945 136.362 14.439L136.867 14.8648C136.977 14.7307 137.143 14.644 137.348 14.644C137.553 14.644 137.718 14.7307 137.837 14.8648C137.947 14.9989 138.01 15.1881 138.01 15.3853V15.8269C138.01 15.9373 138.034 16.0398 138.065 16.1344H136.133C136.007 16.1344 135.897 16.0319 135.897 15.8979V15.3853C135.897 15.0225 135.771 14.6913 135.534 14.4469C135.297 14.2024 134.966 14.0526 134.54 14.0526C134.115 14.0526 133.783 14.2024 133.555 14.4469L134.059 14.8727C134.17 14.7386 134.335 14.6519 134.54 14.6519C134.745 14.6519 134.911 14.7386 135.029 14.8727C135.14 15.0068 135.203 15.196 135.203 15.3932V15.8348C135.203 15.9452 135.226 16.0477 135.258 16.1423H132.829V14.0604H131.796C130.952 14.0604 130.448 14.6755 130.448 15.401V16.1502H129.32C129.115 16.1502 128.949 16.0635 128.839 15.9294C128.728 15.7953 128.673 15.6061 128.673 15.4089C128.673 15.2118 128.728 15.0225 128.839 14.8885L128.334 14.4626C128.106 14.7071 127.971 15.0383 127.971 15.401C127.971 15.7638 128.098 16.1029 128.334 16.3473C128.563 16.5918 128.902 16.7416 129.32 16.7416H131.142V15.401C131.142 15.0068 131.37 14.6598 131.788 14.6598H132.119V16.7416H139.114L139.106 16.7259ZM139.477 18.9497C139.359 18.9497 139.256 18.9891 139.169 19.0758C139.083 19.1626 139.043 19.2572 139.043 19.3755C139.043 19.4938 139.09 19.6042 139.169 19.6831C139.256 19.7698 139.359 19.8092 139.477 19.8092C139.595 19.8092 139.706 19.7698 139.792 19.6831C139.879 19.5963 139.918 19.4938 139.918 19.3755C139.918 19.2572 139.879 19.1547 139.792 19.0758C139.706 18.9891 139.603 18.9497 139.477 18.9497ZM139.13 23.0976C139.13 23.5077 138.885 23.8547 138.467 23.8547V24.4619C139.264 24.4619 139.832 23.8389 139.832 23.1371V20.306H139.138V23.0976H139.13ZM159.562 20.306H158.639L157.654 21.276V18.9339H156.952V23.0188H157.654V22.1592L157.914 21.9069L158.781 23.0188H159.641L158.395 21.4416L159.57 20.2982L159.562 20.306ZM155.572 20.306C155.422 20.243 155.272 20.2114 155.107 20.2114C154.98 20.2114 154.87 20.2272 154.775 20.2666C154.681 20.2982 154.578 20.3612 154.476 20.448V20.306H153.774V23.0188H154.476V21.6545C154.476 21.347 154.515 21.1341 154.602 21.0315C154.697 20.9054 154.846 20.8423 155.051 20.8423C155.209 20.8423 155.327 20.8896 155.414 20.9921C155.501 21.0946 155.548 21.2997 155.548 21.6072V23.0188H156.25V21.5599C156.25 21.1104 156.155 20.7871 155.958 20.5742C155.856 20.4638 155.722 20.3691 155.572 20.306ZM152.37 20.4716C152.244 20.377 152.126 20.306 152.015 20.2666C151.905 20.2272 151.779 20.2114 151.645 20.2114C151.282 20.2114 150.959 20.3376 150.683 20.582C150.375 20.8659 150.217 21.2287 150.217 21.6624C150.217 22.0409 150.344 22.3642 150.588 22.6402C150.872 22.9557 151.219 23.1213 151.645 23.1213C151.787 23.1213 151.905 23.0976 152.015 23.0582C152.126 23.0188 152.244 22.9478 152.37 22.8532V23.0267H153.072V20.3139H152.37V20.4874V20.4716ZM152.205 22.2144C152.063 22.3879 151.881 22.4746 151.653 22.4746C151.455 22.4746 151.282 22.4116 151.148 22.2775C150.99 22.1198 150.919 21.9148 150.919 21.6545C150.919 21.4337 150.982 21.2445 151.101 21.0946C151.243 20.9211 151.424 20.8344 151.661 20.8344C151.858 20.8344 152.031 20.9054 152.165 21.0394C152.315 21.1893 152.394 21.3943 152.394 21.6545C152.394 21.8832 152.331 22.0646 152.213 22.2144M159.073 14.0368C158.229 14.0368 157.725 14.6519 157.725 15.3774C157.725 15.6534 157.796 15.9057 157.93 16.1265H157.047L156.92 16.0477C157.015 15.8663 157.07 15.6692 157.07 15.4957C157.07 14.7702 156.566 14.1551 155.714 14.1551C154.949 14.1551 154.413 14.5651 154.042 15.0146V14.368H153.395V16.1265H152.638C152.52 16.1265 152.489 16.0398 152.489 15.9215V14.2813H151.787V16.5287C151.787 16.9309 151.55 17.2779 151.132 17.2779V17.8772C151.96 17.8772 152.457 17.2936 152.481 16.5839C152.544 16.6628 152.63 16.718 152.757 16.718H155.911C156.195 16.718 156.447 16.5918 156.636 16.4104C156.739 16.5839 156.92 16.718 157.165 16.718H159.065C159.909 16.718 160.422 16.1029 160.422 15.3774C160.422 14.6519 159.917 14.0368 159.065 14.0368M155.698 16.1187H154.129C154.436 15.3695 155.02 14.7386 155.706 14.7386C156.124 14.7386 156.36 15.0856 156.36 15.4799C156.36 15.8742 156.116 16.1187 155.698 16.1187ZM159.065 16.1187C158.647 16.1187 158.411 15.7717 158.411 15.3695C158.411 14.9673 158.647 14.6282 159.065 14.6282C159.483 14.6282 159.72 14.9752 159.72 15.3695C159.72 15.7638 159.483 16.1187 159.065 16.1187ZM148.412 20.2035C148.27 20.2035 148.151 20.2193 148.041 20.2587C147.931 20.2982 147.812 20.3691 147.686 20.4638V18.9181H146.984V23.003H147.686V22.8295C147.812 22.9241 147.931 22.9872 148.041 23.0345C148.151 23.074 148.277 23.0976 148.412 23.0976C148.782 23.0976 149.098 22.9715 149.366 22.727C149.681 22.4431 149.839 22.0804 149.839 21.6466C149.839 21.276 149.713 20.9527 149.468 20.6767C149.184 20.3612 148.837 20.1956 148.412 20.1956M148.956 22.1986C148.814 22.3721 148.632 22.4589 148.396 22.4589C148.199 22.4589 148.033 22.3958 147.899 22.2617C147.749 22.104 147.67 21.899 147.67 21.6387C147.67 21.4179 147.733 21.2287 147.852 21.0789C147.986 20.9054 148.167 20.8186 148.396 20.8186C148.593 20.8186 148.766 20.8896 148.9 21.0237C149.058 21.1735 149.137 21.3785 149.137 21.6387C149.137 21.8674 149.074 22.0488 148.956 22.1986ZM140.668 13.0274H139.966V16.7022H140.668V13.0274ZM149.658 16.7022C150.501 16.7022 151.014 16.0871 151.014 15.3616C151.014 14.6361 150.509 14.021 149.658 14.021C148.806 14.021 148.309 14.6361 148.309 15.3616C148.309 15.6376 148.38 15.89 148.514 16.1108H147.599C147.394 16.1108 147.229 16.024 147.118 15.89C147.008 15.7559 146.953 15.5666 146.953 15.3695C146.953 15.1724 147.008 14.9831 147.118 14.849L146.614 14.4232C146.385 14.6677 146.251 14.9989 146.251 15.3616C146.251 15.7244 146.377 16.0635 146.614 16.3079C146.842 16.5524 147.181 16.7022 147.599 16.7022H149.658ZM149.658 14.6203C150.075 14.6203 150.312 14.9673 150.312 15.3616C150.312 15.7559 150.075 16.1108 149.658 16.1108C149.24 16.1108 149.003 15.7638 149.003 15.3616C149.003 14.9594 149.232 14.6203 149.658 14.6203ZM142.332 20.2903C142.182 20.2272 142.032 20.1956 141.866 20.1956C141.74 20.1956 141.63 20.2114 141.535 20.2508C141.44 20.2824 141.338 20.3455 141.235 20.4322V18.9181H140.534V23.003H141.235V21.6387C141.235 21.3312 141.275 21.1183 141.362 21.0158C141.456 20.8896 141.606 20.8265 141.811 20.8265C141.969 20.8265 142.087 20.8738 142.174 20.9763C142.268 21.0789 142.308 21.2839 142.308 21.5914V23.003H143.01V21.5441C143.01 21.0946 142.915 20.7713 142.718 20.5584C142.608 20.448 142.481 20.3534 142.332 20.2903ZM143.719 23.003H144.421V20.2903H143.719V23.003ZM144.027 15.7401V13.0274H143.357V15.7007C143.357 15.9846 143.215 16.1108 143.018 16.1108H142.426C142.308 16.1108 142.276 16.024 142.276 15.9057V14.2655H141.575V16.5129C141.575 16.9151 141.338 17.2621 140.92 17.2621V17.8614C141.748 17.8614 142.245 17.2779 142.268 16.5681C142.332 16.647 142.418 16.7022 142.544 16.7022H143.112C143.727 16.7022 144.019 16.3158 144.019 15.7322M144.65 16.7022H145.352V13.0274H144.65V16.7022ZM144.059 18.926C143.94 18.926 143.838 18.9654 143.751 19.0522C143.664 19.1389 143.625 19.2336 143.625 19.3519C143.625 19.4701 143.664 19.5805 143.751 19.6594C143.838 19.7461 143.94 19.7856 144.059 19.7856C144.177 19.7856 144.287 19.7461 144.374 19.6594C144.461 19.5727 144.5 19.4701 144.5 19.3519C144.5 19.2336 144.461 19.131 144.374 19.0522C144.287 18.9654 144.185 18.926 144.059 18.926Z" fill="white"/>
<path d="M9.53395 10.4565H10.0071V13.8711C10.0071 14.9909 9.37623 15.6297 8.32741 15.6297C7.2786 15.6297 6.75024 15.0146 6.75024 14.1313C6.75024 13.6109 6.8843 13.1456 7.03413 12.8538L7.43631 12.9958C7.31802 13.2718 7.20762 13.6897 7.20762 14.0209C7.20762 14.6912 7.64923 15.0303 8.36684 15.0303C9.08445 15.0303 9.53395 14.6991 9.53395 13.9657V10.4644V10.4565Z" fill="white"/>
<path d="M10.7799 10.4565H11.2531V13.2324C11.2531 13.6819 11.5054 13.7765 11.876 13.7765H11.9076L12.0022 13.7923L11.9707 14.3522L11.876 14.3679H11.8603C11.2294 14.3679 10.7799 14.084 10.7799 13.4137V10.4565Z" fill="white"/>
<path d="M15.5351 13.7923L15.5035 14.3522L15.4089 14.3679C15.0146 14.3679 14.7071 14.2023 14.573 13.879C14.4311 14.1393 14.0841 14.3837 13.5794 14.3837C13.1536 14.3837 12.846 14.2339 12.6646 13.9815C12.5148 14.226 12.2151 14.3601 11.8839 14.3601L11.7893 14.3443L11.813 13.7844L11.9076 13.7686C12.1836 13.7686 12.4044 13.7055 12.5148 13.5557C12.5148 13.5084 12.5148 13.469 12.5148 13.4216C12.5148 12.7119 13.0116 12.1205 13.7135 12.1205C14.2497 12.1205 14.6124 12.4832 14.8096 13.2087C14.9279 13.6503 15.0856 13.7765 15.4483 13.7765L15.543 13.7923H15.5351ZM14.3995 13.4768C14.2812 13.0116 14.0368 12.7119 13.6346 12.7119C13.2324 12.7119 12.9328 12.9879 12.9328 13.3586C12.9328 13.6188 13.1772 13.8002 13.6267 13.8002C14.0762 13.8002 14.3049 13.6346 14.4074 13.4768H14.3995Z" fill="white"/>
<path d="M18.2243 13.7765V14.3759H15.4169L15.3223 14.3443L15.338 13.8238L15.4406 13.7765H16.0951C15.8979 13.6109 15.7796 13.3586 15.7796 13.0274C15.7796 12.4123 16.237 11.7972 17.0019 11.7972C17.5382 11.7972 17.8773 12.1442 18.0113 12.3571L17.7353 12.7514C17.5776 12.5937 17.3095 12.3886 16.9625 12.3886C16.5288 12.3886 16.2291 12.6962 16.2291 13.0589C16.2291 13.5321 16.6707 13.7686 17.0966 13.7686H18.2321L18.2243 13.7765Z" fill="white"/>
<path d="M19.5884 10.1806V10.5039H18.5632V10.1963H18.7288C18.6815 10.1411 18.6579 10.0623 18.6579 9.96766C18.6579 9.73108 18.8314 9.49451 19.1389 9.49451C19.3203 9.49451 19.478 9.59702 19.5332 9.71531L19.3912 9.944C19.336 9.90457 19.2572 9.84148 19.1389 9.84148C19.0127 9.84148 18.8944 9.91246 18.8944 10.015C18.8944 10.1017 18.997 10.1727 19.1862 10.1727H19.5805L19.5884 10.1806ZM18.8392 14.3758V10.8272H19.3124V14.3758H18.8392Z" fill="white"/>
<path d="M10.0465 19.5647C10.0465 20.5347 9.39991 21.0631 8.63498 21.0631C8.15394 21.0631 7.79908 20.8501 7.55462 20.4322V20.9921H7.0105V17.1122H7.56251V18.6421C7.81485 18.2478 8.1776 18.027 8.63498 18.027C9.39991 18.027 10.0465 18.5396 10.0465 19.5647ZM9.463 19.5569C9.463 18.855 9.07659 18.5159 8.57189 18.5159C8.0672 18.5159 7.67291 18.9496 7.54673 19.5411V19.5726C7.66502 20.1641 8.03566 20.5899 8.57189 20.5899C9.10813 20.5899 9.463 20.2114 9.463 19.5647V19.5569Z" fill="white"/>
<path d="M12.7436 18.098H13.2956V21H12.7436V20.4006C12.4754 20.8422 12.1127 21.0552 11.6474 21.0552C11.1112 21.0552 10.6538 20.7791 10.6538 19.8565V18.098H11.2058V19.8013C11.2058 20.3297 11.4345 20.5662 11.7815 20.5662C12.2152 20.5662 12.5149 20.2745 12.7514 19.6672V18.098H12.7436Z" fill="white"/>
<path d="M13.9185 20.8265L14.0367 20.3533C14.2891 20.5031 14.6203 20.5978 14.9515 20.5978C15.33 20.5978 15.5903 20.4952 15.5903 20.2035C15.5903 19.5411 13.9658 20.101 13.9658 18.9181C13.9658 18.3897 14.3837 18.027 15.1013 18.027C15.4247 18.027 15.7953 18.1137 16.0476 18.2557L15.9293 18.7288C15.677 18.579 15.401 18.4922 15.1171 18.4922C14.7859 18.4922 14.5257 18.6342 14.5257 18.8865C14.5257 19.6199 16.1344 19.06 16.1344 20.164C16.1344 20.716 15.606 21.063 14.9357 21.063C14.5414 21.063 14.1393 20.9447 13.9185 20.8343V20.8265Z" fill="white"/>
<path d="M17.0255 16.852C17.2226 16.852 17.3961 17.0018 17.3961 17.2147C17.3961 17.4277 17.2305 17.5775 17.0255 17.5775C16.8283 17.5775 16.6627 17.4198 16.6627 17.2147C16.6627 17.0097 16.8283 16.852 17.0255 16.852ZM16.7495 20.9921V18.0901H17.3015V20.9921H16.7495Z" fill="white"/>
<path d="M20.8187 19.2336V21H20.2667V19.2888C20.2667 18.7525 20.038 18.5238 19.6831 18.5238C19.2337 18.5238 18.9261 18.8235 18.6816 19.4465V21.0079H18.1296V18.1059H18.6816V18.7289C18.9655 18.2636 19.3441 18.0349 19.8093 18.0349C20.3534 18.0349 20.8187 18.3109 20.8187 19.2336Z" fill="white"/>
<path d="M22.0173 19.7303C22.0725 20.3139 22.4194 20.5899 23.0267 20.5899C23.3657 20.5899 23.6654 20.5347 24.0203 20.3375L24.1228 20.7555C23.8389 20.9447 23.4131 21.063 22.9557 21.063C21.9936 21.063 21.4337 20.511 21.4337 19.5726C21.4337 18.6342 22.0725 18.027 22.8768 18.027C23.6812 18.027 24.2647 18.5159 24.2647 19.5489C24.2647 19.612 24.2647 19.6909 24.249 19.7382H22.0094L22.0173 19.7303ZM22.0173 19.336H23.6891C23.6339 18.7682 23.3263 18.5001 22.8689 18.5001C22.4116 18.5001 22.0882 18.784 22.0173 19.336Z" fill="white"/>
<path d="M24.6906 20.8265L24.8088 20.3533C25.0612 20.5031 25.3924 20.5978 25.7236 20.5978C26.1021 20.5978 26.3624 20.4952 26.3624 20.2035C26.3624 19.5411 24.7379 20.101 24.7379 18.9181C24.7379 18.3897 25.1558 18.027 25.8734 18.027C26.1967 18.027 26.5674 18.1137 26.8197 18.2557L26.7014 18.7288C26.4491 18.579 26.1731 18.4922 25.8892 18.4922C25.558 18.4922 25.2978 18.6342 25.2978 18.8865C25.2978 19.6199 26.9065 19.06 26.9065 20.164C26.9065 20.716 26.3781 21.063 25.7078 21.063C25.3135 21.063 24.9114 20.9447 24.6906 20.8343V20.8265Z" fill="white"/>
<path d="M27.3165 20.8265L27.4348 20.3533C27.6872 20.5031 28.0184 20.5978 28.3496 20.5978C28.7281 20.5978 28.9883 20.4952 28.9883 20.2035C28.9883 19.5411 27.3638 20.101 27.3638 18.9181C27.3638 18.3897 27.7818 18.027 28.4994 18.027C28.8227 18.027 29.1934 18.1137 29.4457 18.2557L29.3274 18.7288C29.0751 18.579 28.7991 18.4922 28.5152 18.4922C28.184 18.4922 27.9237 18.6342 27.9237 18.8865C27.9237 19.6199 29.5325 19.06 29.5325 20.164C29.5325 20.716 29.0041 21.063 28.3338 21.063C27.9395 21.063 27.5373 20.9447 27.3165 20.8343V20.8265Z" fill="white"/>
</g>
<defs>
<clipPath id="clip0_8027_26953">
<rect width="191.35" height="120.661" fill="white"/>
</clipPath>
</defs>
</svg>
